<svg version="1.1" xmlns="http://www.w3.org/2000/svg" xmlns:xlink="http://www.w3.org/1999/xlink" width="95.36763" height="65.04248" viewBox="0,0,95.36763,65.04248"><g transform="translate(-197.32525,-145.44806)"><g data-paper-data="{&quot;isPaintingLayer&quot;:true}" fill-rule="nonzero" stroke-linecap="butt" stroke-linejoin="miter" stroke-miterlimit="10" stroke-dasharray="" stroke-dashoffset="0" style="mix-blend-mode: normal"><path d="M213.35646,198.79059c0,-11.60228 -0.29874,-31.48574 -0.29874,-37.64083c0,-4.5767 4.84473,-7.94266 8.79406,-7.94266c6.25173,0 25.20023,0 36.44588,0c5.12102,0 8.64469,4.59348 8.64469,7.79329c0,5.97306 0,25.99703 0,37.49145c0,4.93751 -3.72726,8.30115 -7.151,8.30115c-6.44113,0 -26.88877,0 -38.08893,0c-3.97046,0 -8.34596,-3.22231 -8.34596,-8.00241z" fill="#547a5c" stroke="#2e4333" stroke-width="4"/><path d="M234.90632,166.12532c0.54589,9.36599 -6.26045,17.48434 -15.20239,18.13285c-8.94194,0.6485 -16.63335,-6.41842 -17.17924,-15.78441c-0.54589,-9.36599 6.26045,-17.48434 15.20239,-18.13285c8.94194,-0.6485 16.63335,6.41842 17.17924,15.78441z" fill="none" stroke="#d4c47a" stroke-width="7.5"/><path d="M226.3605,154.70455c0,-1.82254 1.47746,-3.3 3.3,-3.3c1.82254,0 3.3,1.47746 3.3,3.3c0,1.82254 -1.47746,3.3 -3.3,3.3c-1.82254,0 -3.3,-1.47746 -3.3,-3.3z" fill="#d4aa7b" stroke="none" stroke-width="0.5"/><path d="M214.9205,150.19454c0,-1.82254 1.47746,-3.3 3.3,-3.3c1.82254,0 3.3,1.47746 3.3,3.3c0,1.82254 -1.47746,3.3 -3.3,3.3c-1.82254,0 -3.3,-1.47746 -3.3,-3.3z" fill="#d4aa7b" stroke="none" stroke-width="0.5"/><path d="M202.4905,156.68454c0,-1.82254 1.47746,-3.3 3.3,-3.3c1.82254,0 3.3,1.47746 3.3,3.3c0,1.82254 -1.47746,3.3 -3.3,3.3c-1.82254,0 -3.3,-1.47746 -3.3,-3.3z" fill="#d4aa7b" stroke="none" stroke-width="0.5"/><path d="M199.5205,171.31454c0,-1.82254 1.47746,-3.3 3.3,-3.3c1.82254,0 3.3,1.47746 3.3,3.3c0,1.82254 -1.47746,3.3 -3.3,3.3c-1.82254,0 -3.3,-1.47746 -3.3,-3.3z" fill="#d4aa7b" stroke="none" stroke-width="0.5"/><path d="M207.0005,182.09455c0,-1.82254 1.47746,-3.3 3.3,-3.3c1.82254,0 3.3,1.47746 3.3,3.3c0,1.82254 -1.47746,3.3 -3.3,3.3c-1.82254,0 -3.3,-1.47746 -3.3,-3.3z" fill="#d4aa7b" stroke="none" stroke-width="0.5"/><path d="M230.50001,188.95001v-17.5h58.25v17.5z" fill="#547a5c" stroke="#2e4333" stroke-width="4"/><path d="M221.95835,198.04169v-36.08333h36.08333v36.08333z" fill="#547a5c" stroke="#2e4333" stroke-width="4"/><path d="M197.32525,210.49054v-65.04248h95.36763v65.04248z" fill="none" stroke="none" stroke-width="0"/></g></g></svg>