<svg version="1.1" xmlns="http://www.w3.org/2000/svg" xmlns:xlink="http://www.w3.org/1999/xlink" width="85.625" height="40.08333" viewBox="0,0,85.625,40.08333"><g transform="translate(-219.95835,-159.95835)"><g data-paper-data="{&quot;isPaintingLayer&quot;:true}" fill-rule="nonzero" stroke-linecap="butt" stroke-linejoin="miter" stroke-miterlimit="10" stroke-dasharray="" stroke-dashoffset="0" style="mix-blend-mode: normal"><path d="M230.66668,187.45001v-14.5h72.91667v14.5z" fill="#617fff" stroke="#4255ad" stroke-width="4"/><path d="M221.95835,198.04168v-36.08333h36.08333v36.08333z" fill="#617fff" stroke="#4255ad" stroke-width="4"/><path d="M262.80325,185.48439v-10.5h1.33333v10.5z" fill="#adbcff" stroke="none" stroke-width="0"/><path d="M266.59492,185.48439v-10.5h1.33334v10.5z" fill="#adbcff" stroke="none" stroke-width="0"/><path d="M270.55325,185.48439v-10.5h1.33334v10.5z" fill="#adbcff" stroke="none" stroke-width="0"/><path d="M274.63658,185.48439v-10.5h1.33334v10.5z" fill="#adbcff" stroke="none" stroke-width="0"/><path d="M278.76159,185.35939v-10.5h1.33333v10.5z" fill="#adbcff" stroke="none" stroke-width="0"/><path d="M282.59492,185.35939v-10.5h1.33334v10.5z" fill="#adbcff" stroke="none" stroke-width="0"/><path d="M286.42825,185.35939v-10.5h1.33334v10.5z" fill="#adbcff" stroke="none" stroke-width="0"/><path d="M290.26158,185.35939v-10.5h1.33334v10.5z" fill="#adbcff" stroke="none" stroke-width="0"/><path d="M227.69098,192.14454v-25h29.875v25z" fill="#617fff" stroke="#4255ad" stroke-width="3"/><path d="M232.44098,187.76954v-16h24.625v16z" fill="#617fff" stroke="#4255ad" stroke-width="2"/><path d="M294.17825,185.35939v-10.5h1.33334v10.5z" fill="#adbcff" stroke="none" stroke-width="0"/><path d="M298.01158,185.35939v-10.5h1.33334v10.5z" fill="#adbcff" stroke="none" stroke-width="0"/></g></g></svg>