<svg version="1.1" xmlns="http://www.w3.org/2000/svg" xmlns:xlink="http://www.w3.org/1999/xlink" width="525.9303" height="335.45301" viewBox="0,0,525.9303,335.45301"><g transform="translate(-22.40917,-40.46324)"><g data-paper-data="{&quot;isPaintingLayer&quot;:true}" fill="none" fill-rule="nonzero" stroke="#ffffff" stroke-width="3" stroke-linecap="round" stroke-linejoin="miter" stroke-miterlimit="10" stroke-dasharray="" stroke-dashoffset="0" style="mix-blend-mode: normal"><path d="M23.90917,374.41625c0,0 9.19812,-115.51353 17.71909,-188.78504c1.49325,-12.84041 11.39972,-71.2611 11.36164,-71.48089c1.87372,-12.27011 16.37659,-44.96502 42.5931,-61.38969c20.03943,-12.55473 48.09786,-11.2114 58.92413,-10.14566c20.22817,1.99126 43.25734,21.454 41.71592,50.59885c-1.5297,28.92309 -26.5492,229.40466 41.9419,221.11419c0.01217,-0.00178 6.03387,0.50522 13.66939,-0.6872c10.54205,-1.64632 22.16036,-8.62589 27.28604,-13.48663c15.60572,-14.7991 19.82619,-49.36783 21.62299,-51.76796c7.44137,-26.62642 21.71648,-148.14608 34.06974,-168.34003c10.88975,-17.80154 21.85961,-24.59425 37.04794,-24.21073c27.06331,0.68337 43.78426,17.47573 49.29276,29.49461c-0.17086,3.13524 3.71758,10.92092 6.85904,20.33255c2.70702,8.1101 4.60192,17.17008 5.88905,28.52443c2.3257,20.51607 5.37608,48.07703 5.31731,64.13192c0.10533,39.21976 113.71721,32.3109 107.36337,35.32923"/></g></g></svg>