<svg version="1.1" xmlns="http://www.w3.org/2000/svg" xmlns:xlink="http://www.w3.org/1999/xlink" width="83.18342" height="60.1688" viewBox="0,0,83.18342,60.1688"><g transform="translate(-209.50946,-150.32174)"><g data-paper-data="{&quot;isPaintingLayer&quot;:true}" fill-rule="nonzero" stroke-linecap="butt" stroke-linejoin="miter" stroke-miterlimit="10" stroke-dasharray="" stroke-dashoffset="0" style="mix-blend-mode: normal"><path d="M213.35647,198.79059c0,-11.60228 -0.29874,-31.48574 -0.29874,-37.64083c0,-4.5767 4.84473,-7.94266 8.79406,-7.94266c6.25173,0 25.20023,0 36.44588,0c5.12102,0 8.64469,4.59348 8.64469,7.79329c0,5.97306 0,25.99703 0,37.49145c0,4.93751 -3.72726,8.30115 -7.151,8.30115c-6.44113,0 -26.88877,0 -38.08893,0c-3.97046,0 -8.34596,-3.22231 -8.34596,-8.00241z" fill="#e04646" stroke="#8f0000" stroke-width="4"/><path d="M230.50002,188.95001v-17.5h58.25v17.5z" fill="#e04646" stroke="#8f0000" stroke-width="4"/><path d="M221.95836,198.04168v-36.08333h36.08333v36.08333z" fill="#e04646" stroke="#8f0000" stroke-width="4"/><path d="M226.44099,169.01954c0,-1.17361 0.95139,-2.125 2.125,-2.125c1.17361,0 2.125,0.95139 2.125,2.125c0,1.17361 -0.95139,2.125 -2.125,2.125c-1.17361,0 -2.125,-0.95139 -2.125,-2.125z" fill="#000000" stroke="none" stroke-width="0"/><path d="M237.566,169.01955c0,-1.17361 0.95139,-2.125 2.125,-2.125c1.17361,0 2.125,0.95139 2.125,2.125c0,1.17361 -0.95139,2.125 -2.125,2.125c-1.17361,0 -2.125,-0.95139 -2.125,-2.125z" fill="#000000" stroke="none" stroke-width="0"/><path d="M249.441,169.01955c0,-1.17361 0.95139,-2.125 2.125,-2.125c1.17361,0 2.125,0.95139 2.125,2.125c0,1.17361 -0.95139,2.125 -2.125,2.125c-1.17361,0 -2.125,-0.95139 -2.125,-2.125z" fill="#000000" stroke="none" stroke-width="0"/><path d="M209.50946,210.49054v-60.1688h83.18342v60.1688z" fill="none" stroke="none" stroke-width="0"/></g></g></svg>