<svg version="1.1" xmlns="http://www.w3.org/2000/svg" xmlns:xlink="http://www.w3.org/1999/xlink" width="145.5" height="145.5" viewBox="0,0,145.5,145.5"><g transform="translate(-167.25,-107.25)"><g data-paper-data="{&quot;isPaintingLayer&quot;:true}" fill-rule="nonzero" stroke-width="7.5" stroke-linejoin="miter" stroke-miterlimit="10" stroke-dasharray="" stroke-dashoffset="0" style="mix-blend-mode: normal"><path d="M171,180c0,-38.10765 30.89235,-69 69,-69c38.10765,0 69,30.89235 69,69c0,38.10765 -30.89235,69 -69,69c-38.10765,0 -69,-30.89235 -69,-69z" fill="#ffef17" stroke="#ccbf12" stroke-linecap="butt"/><g fill="none" stroke="#fff894" stroke-linecap="round"><path d="M213.16667,187v34.33333"/><path d="M196,204.16667l34.33333,0"/></g><g fill="none" stroke="#fff894" stroke-linecap="round"><path d="M239,127.33333v40"/><path d="M219,147.33334h40"/></g><g fill="none" stroke="#fff894" stroke-linecap="round"><path d="M259.5,177.33333v28.33334"/><path d="M245.33333,191.5h28.33333"/></g><g fill="none" stroke="#fff894" stroke-linecap="round"><path d="M197.66667,153v22.66667"/><path d="M186.33333,164.33333h22.66667"/></g><g fill="none" stroke="#fff894" stroke-linecap="round"><path d="M248.66667,216v22.66668"/><path d="M237.33334,227.33334h22.66667"/></g><g fill="none" stroke="#fff894" stroke-linecap="round"><path d="M289,163.33333v22.66668"/><path d="M277.66667,174.66667h22.66667"/></g></g></g></svg>