<svg version="1.1" xmlns="http://www.w3.org/2000/svg" xmlns:xlink="http://www.w3.org/1999/xlink" width="33.625" height="33.625" viewBox="0,0,33.625,33.625"><g transform="translate(-223.1875,-163.1875)"><g data-paper-data="{&quot;isPaintingLayer&quot;:true}" fill-rule="nonzero" stroke="#2b004c" stroke-width="3" stroke-linejoin="miter" stroke-miterlimit="10" stroke-dasharray="" stroke-dashoffset="0" style="mix-blend-mode: normal"><path d="M224.6875,180c0,-8.45686 6.85564,-15.3125 15.3125,-15.3125c8.45686,0 15.3125,6.85564 15.3125,15.3125c0,8.45686 -6.85564,15.3125 -15.3125,15.3125c-8.45686,0 -15.3125,-6.85564 -15.3125,-15.3125z" fill="#36005f" stroke-linecap="butt"/><g fill="none" stroke-linecap="round"><g><g><path d="M250.46705,189.60418l-20.70901,-20.70901"/><path d="M229.30784,191.10483l21.38431,-21.38431"/></g><path d="M240,165.625v28.75"/><path d="M225.625,180h28.75"/></g><g><g><path d="M253.49231,184.44487l-27.39713,-10.35004"/><path d="M234.82607,194.52136l10.68755,-28.29052"/></g><path d="M234.08345,166.89905l11.83311,26.20191"/><path d="M226.89905,185.91655l26.20191,-11.83311"/></g></g></g></g></svg>