<svg version="1.1" xmlns="http://www.w3.org/2000/svg" xmlns:xlink="http://www.w3.org/1999/xlink" width="71.81149" height="60.16879" viewBox="0,0,71.81149,60.16879"><g transform="translate(-209.50946,-150.32174)"><g data-paper-data="{&quot;isPaintingLayer&quot;:true}" fill-rule="nonzero" stroke-linecap="butt" stroke-linejoin="miter" stroke-miterlimit="10" stroke-dasharray="" stroke-dashoffset="0" style="mix-blend-mode: normal"><path d="M213.35643,198.79057c0,-11.60228 -0.29874,-31.48574 -0.29874,-37.64083c0,-4.5767 4.84473,-7.94266 8.79406,-7.94266c6.25173,0 25.20023,0 36.44588,0c5.12102,0 8.64469,4.59348 8.64469,7.79329c0,5.97306 0,25.99703 0,37.49145c0,4.93751 -3.72726,8.30115 -7.151,8.30115c-6.44113,0 -26.88877,0 -38.08893,0c-3.97046,0 -8.34596,-3.22231 -8.34596,-8.00241z" fill="#ffa200" stroke="#bb7600" stroke-width="4"/><path d="M230.50001,194.07501v-27.875h47v27.875z" fill="#ffa200" stroke="#bb7600" stroke-width="4"/><path d="M221.95835,198.04169v-36.08333h36.08333v36.08333z" fill="#ffa200" stroke="#bb7600" stroke-width="4"/><path d="M209.50946,210.49054v-60.16879h71.81149v60.16879z" fill="none" stroke="none" stroke-width="0"/></g></g></svg>