<svg version="1.1" xmlns="http://www.w3.org/2000/svg" xmlns:xlink="http://www.w3.org/1999/xlink" width="33.625" height="33.625" viewBox="0,0,33.625,33.625"><g transform="translate(-223.1875,-163.27841)"><g data-paper-data="{&quot;isPaintingLayer&quot;:true}" fill="#ffe000" fill-rule="nonzero" stroke="#ffc900" stroke-linecap="butt" stroke-linejoin="miter" stroke-miterlimit="10" stroke-dasharray="" stroke-dashoffset="0" style="mix-blend-mode: normal"><path d="M224.6875,180.09091c0,-8.45686 6.85564,-15.3125 15.3125,-15.3125c8.45686,0 15.3125,6.85564 15.3125,15.3125c0,8.45686 -6.85564,15.3125 -15.3125,15.3125c-8.45686,0 -15.3125,-6.85564 -15.3125,-15.3125z" stroke-width="3"/><path d="M239.27796,170.5495l3.05321,3.64902l4.65754,-2.05616l-0.76532,4.30327l4.20469,1.6964l-5.05704,3.06139l4.33156,4.82961l-5.2006,-0.71905l-0.2869,4.51161l-3.07372,-3.36197l-2.57943,2.3418l-1.6787,-2.80374l-4.05086,0.64176l2.34352,-3.71865l-5.58404,-2.38739l5.0767,-2.72255l-2.75511,-5.52889l4.73629,2.28889z" stroke-width="2"/></g></g></svg>