<svg version="1.1" xmlns="http://www.w3.org/2000/svg" xmlns:xlink="http://www.w3.org/1999/xlink" width="112.08081" height="53.45078" viewBox="0,0,112.08081,53.45078"><g transform="translate(-198.64969,-146.59091)"><g data-paper-data="{&quot;isPaintingLayer&quot;:true}" fill-rule="nonzero" stroke-linejoin="miter" stroke-miterlimit="10" stroke-dasharray="" stroke-dashoffset="0" style="mix-blend-mode: normal"><path d="M234.78132,166.12532c0.54589,9.36599 -6.26045,17.48434 -15.20239,18.13285c-8.94194,0.6485 -16.63335,-6.41842 -17.17924,-15.78441c-0.54589,-9.36599 6.26045,-17.48434 15.20239,-18.13285c8.94194,-0.6485 16.63335,6.41842 17.17924,15.78441z" fill="none" stroke="#d4c47a" stroke-width="7.5" stroke-linecap="butt"/><path d="M226.2355,154.70455c0,-1.82254 1.47746,-3.3 3.3,-3.3c1.82254,0 3.3,1.47746 3.3,3.3c0,1.82254 -1.47746,3.3 -3.3,3.3c-1.82254,0 -3.3,-1.47746 -3.3,-3.3z" fill="#d4aa7b" stroke="none" stroke-width="0.5" stroke-linecap="butt"/><path d="M214.7955,150.19454c0,-1.82254 1.47746,-3.3 3.3,-3.3c1.82254,0 3.3,1.47746 3.3,3.3c0,1.82254 -1.47746,3.3 -3.3,3.3c-1.82254,0 -3.3,-1.47746 -3.3,-3.3z" fill="#d4aa7b" stroke="none" stroke-width="0.5" stroke-linecap="butt"/><path d="M202.3655,156.68454c0,-1.82254 1.47746,-3.3 3.3,-3.3c1.82254,0 3.3,1.47746 3.3,3.3c0,1.82254 -1.47746,3.3 -3.3,3.3c-1.82254,0 -3.3,-1.47746 -3.3,-3.3z" fill="#d4aa7b" stroke="none" stroke-width="0.5" stroke-linecap="butt"/><path d="M199.3955,171.31454c0,-1.82254 1.47746,-3.3 3.3,-3.3c1.82254,0 3.3,1.47746 3.3,3.3c0,1.82254 -1.47746,3.3 -3.3,3.3c-1.82254,0 -3.3,-1.47746 -3.3,-3.3z" fill="#d4aa7b" stroke="none" stroke-width="0.5" stroke-linecap="butt"/><path d="M290.8063,172.75011l9.85634,-6.27776l-1.68966,8.20938l8.7299,5.15096l-6.75862,5.63389l1.54885,9.4971l-12.67242,-6.76066" fill="#fff300" stroke="#eda41a" stroke-width="3.5" stroke-linecap="round"/><path d="M206.8755,182.09455c0,-1.82254 1.47746,-3.3 3.3,-3.3c1.82254,0 3.3,1.47746 3.3,3.3c0,1.82254 -1.47746,3.3 -3.3,3.3c-1.82254,0 -3.3,-1.47746 -3.3,-3.3z" fill="#d4aa7b" stroke="none" stroke-width="0.5" stroke-linecap="butt"/><path d="M230.37501,188.95001v-17.5h58.25v17.5z" fill="#547a5c" stroke="#2e4333" stroke-width="4" stroke-linecap="butt"/><path d="M221.83335,198.04169v-36.08333h36.08333v36.08333z" fill="#547a5c" stroke="#2e4333" stroke-width="4" stroke-linecap="butt"/></g></g></svg>