<svg version="1.1" xmlns="http://www.w3.org/2000/svg" xmlns:xlink="http://www.w3.org/1999/xlink" width="71.83115" height="49.60434" viewBox="0,0,71.83115,49.60434"><g transform="translate(-210.39803,-155.07283)"><g data-paper-data="{&quot;isPaintingLayer&quot;:true}" fill-rule="nonzero" stroke-linecap="butt" stroke-linejoin="miter" stroke-miterlimit="10" stroke-dasharray="" stroke-dashoffset="0" style="mix-blend-mode: normal"><path d="M237.49841,184.79435v-7.82844h4.5859v7.82844z" fill="#00a8ff" stroke="none" stroke-width="0"/><path d="M254.93752,190.00002v-20.33333h25.29167v20.33333z" fill="#c989ec" stroke="#9062a9" stroke-width="4"/><path d="M221.95836,198.04168v-36.08333h36.08333v36.08333z" fill="#c989ec" stroke="#9062a9" stroke-width="4"/><path d="M219.50216,199.98938l36.03579,-43.50854l3.9599,3.27977l-36.03579,43.50854z" fill="#d7aeed" stroke="#bb97ce" stroke-width="2"/><path d="M211.39804,177.42912h43.62062v5.14176h-43.62062z" fill="#d7aeed" stroke="#bb97ce" stroke-width="2"/><path d="M255.53795,203.26916l-36.03579,-43.50854l3.9599,-3.27977l36.03579,43.50854z" data-paper-data="{&quot;index&quot;:null}" fill="#d7aeed" stroke="#bb97ce" stroke-width="2"/><path d="M234.39055,183.48076l7.61998,-8.94418l2.47392,2.10765l-7.61998,8.94418z" fill="#d7aeed" stroke="none" stroke-width="0"/><path d="M242.01053,185.58842l-7.61998,-8.94419l2.47392,-2.10766l7.61998,8.94419z" data-paper-data="{&quot;index&quot;:null}" fill="#d7aeed" stroke="none" stroke-width="0"/><path d="M245.2979,181.73943l-11.74954,-0.10399l0.02876,-3.24987l11.74954,0.10399z" data-paper-data="{&quot;index&quot;:null}" fill="#d7aeed" stroke="none" stroke-width="0"/></g></g></svg>