<svg version="1.1" xmlns="http://www.w3.org/2000/svg" xmlns:xlink="http://www.w3.org/1999/xlink" width="57.88463" height="57.58589" viewBox="0,0,57.88463,57.58589"><g transform="translate(-211.05774,-151.2071)"><g data-paper-data="{&quot;isPaintingLayer&quot;:true}" fill-rule="nonzero" stroke="#cccccc" stroke-width="4" stroke-linejoin="miter" stroke-miterlimit="10" stroke-dasharray="" stroke-dashoffset="0" style="mix-blend-mode: normal"><path d="M213.35649,198.79059c0,-11.60228 -0.29874,-31.48574 -0.29874,-37.64083c0,-4.5767 4.84473,-7.94266 8.79406,-7.94266c6.25173,0 25.20023,0 36.44588,0c5.12102,0 8.64469,4.59348 8.64469,7.79329c0,5.97306 0,25.99703 0,37.49145c0,4.93751 -3.72726,8.30115 -7.151,8.30115c-6.44113,0 -26.88877,0 -38.08893,0c-3.97046,0 -8.34596,-3.22231 -8.34596,-8.00241z" fill="#ffffff" stroke-linecap="butt"/><path d="M221.8369,155.01957v49.375" fill="none" stroke-linecap="round"/><path d="M239.9619,154.64457v50.625" fill="none" stroke-linecap="round"/><path d="M257.5869,154.39457v50" fill="none" stroke-linecap="round"/><path d="M215.0244,197.58207h49.375" fill="none" stroke-linecap="round"/><path d="M214.6494,179.45707h50.625" fill="none" stroke-linecap="round"/><path d="M214.3994,161.83207h50" fill="none" stroke-linecap="round"/><path d="M263.21875,156.78125l-46.4375,46.4375" data-paper-data="{&quot;index&quot;:null}" fill="none" stroke-linecap="round"/><path d="M216.78125,156.78125l46.4375,46.4375" data-paper-data="{&quot;index&quot;:null}" fill="none" stroke-linecap="round"/></g></g></svg>