<svg version="1.1" xmlns="http://www.w3.org/2000/svg" xmlns:xlink="http://www.w3.org/1999/xlink" width="77.39583" height="40.08333" viewBox="0,0,77.39583,40.08333"><g transform="translate(-219.95835,-159.95835)"><g data-paper-data="{&quot;isPaintingLayer&quot;:true}" fill-rule="nonzero" stroke-linejoin="miter" stroke-miterlimit="10" stroke-dasharray="" stroke-dashoffset="0" style="mix-blend-mode: normal"><path d="M255.31251,189.87502v-20.33333h40.04167v20.33333z" fill="#ffffff" stroke="#cccccc" stroke-width="4" stroke-linecap="butt"/><path d="M221.95835,198.04168v-36.08333h36.08333v36.08333z" fill="#ffffff" stroke="#cccccc" stroke-width="4" stroke-linecap="butt"/><path d="M230.94098,163.51954v32.875" fill="none" stroke="#cccccc" stroke-width="4" stroke-linecap="round"/><path d="M240,163.5v33" fill="none" stroke="#cccccc" stroke-width="4" stroke-linecap="round"/><path d="M249.44098,162.26954v33.625" fill="none" stroke="#cccccc" stroke-width="4" stroke-linecap="round"/><path d="M224.32576,188.63477h32.875" fill="none" stroke="#cccccc" stroke-width="4" stroke-linecap="round"/><path d="M224.30621,179.57576h33" fill="none" stroke="#cccccc" stroke-width="4" stroke-linecap="round"/><path d="M223.07576,170.13477h33.625" fill="none" stroke="#cccccc" stroke-width="4" stroke-linecap="round"/><path d="M261.66668,188.06252v-16.625h2.25v16.625z" fill="#cc5a5a" stroke="none" stroke-width="0" stroke-linecap="butt"/><path d="M266.29168,188.06252v-16.625h2.25v16.625z" fill="#cccccc" stroke="none" stroke-width="0" stroke-linecap="butt"/><path d="M270.91668,188.06252v-16.625h2.25v16.625z" fill="#cccccc" stroke="none" stroke-width="0" stroke-linecap="butt"/><path d="M275.54168,188.06252v-16.625h2.25v16.625z" fill="#cccccc" stroke="none" stroke-width="0" stroke-linecap="butt"/><path d="M279.91668,188.06252v-16.625h2.25v16.625z" fill="#cccccc" stroke="none" stroke-width="0" stroke-linecap="butt"/><path d="M284.54168,188.06252v-16.625h2.25v16.625z" fill="#cccccc" stroke="none" stroke-width="0" stroke-linecap="butt"/><path d="M289.41668,188.06252v-16.625h2.25v16.625z" fill="#cccccc" stroke="none" stroke-width="0" stroke-linecap="butt"/></g></g></svg>