<svg version="1.1" xmlns="http://www.w3.org/2000/svg" xmlns:xlink="http://www.w3.org/1999/xlink" width="60.71032" height="74.0712" viewBox="0,0,60.71032,74.0712"><g transform="translate(-209.50946,-141.13798)"><g data-paper-data="{&quot;isPaintingLayer&quot;:true}" fill-rule="nonzero" stroke-linecap="butt" stroke-linejoin="miter" stroke-miterlimit="10" stroke-dasharray="" stroke-dashoffset="0" style="mix-blend-mode: normal"><path d="M213.35642,198.79054c0,-11.60228 -0.29874,-31.48574 -0.29874,-37.64083c0,-4.5767 4.84473,-7.94266 8.79406,-7.94266c6.25173,0 25.20023,0 36.44588,0c5.12102,0 8.64469,4.59348 8.64469,7.79329c0,5.97306 0,25.99703 0,37.49145c0,4.93751 -3.72726,8.30115 -7.151,8.30115c-6.44113,0 -26.88877,0 -38.08893,0c-3.97046,0 -8.34596,-3.22231 -8.34596,-8.00241z" fill="#9b9b9b" stroke="#666666" stroke-width="4"/><text transform="translate(228.30641,198.67543) scale(1.3227,1.3227)" font-size="40" xml:space="preserve" fill="#ffffff" fill-rule="nonzero" stroke="none" stroke-width="1" stroke-linecap="butt" stroke-linejoin="miter" stroke-miterlimit="10" stroke-dasharray="" stroke-dashoffset="0" font-family="Sans Serif" font-weight="normal" text-anchor="start" style="mix-blend-mode: normal"><tspan x="0" dy="0">?</tspan></text><path d="M209.50946,210.49054v-60.16879h60.71032v60.16879z" fill="none" stroke="none" stroke-width="0"/></g></g></svg>