<svg version="1.1" xmlns="http://www.w3.org/2000/svg" xmlns:xlink="http://www.w3.org/1999/xlink" width="91.97532" height="53.45077" viewBox="0,0,91.97532,53.45077"><g transform="translate(-198.77469,-146.59091)"><g data-paper-data="{&quot;isPaintingLayer&quot;:true}" fill-rule="nonzero" stroke-linecap="butt" stroke-linejoin="miter" stroke-miterlimit="10" stroke-dasharray="" stroke-dashoffset="0" style="mix-blend-mode: normal"><path d="M234.90632,166.12533c0.54589,9.36599 -6.26045,17.48434 -15.20239,18.13285c-8.94194,0.6485 -16.63335,-6.41842 -17.17924,-15.78441c-0.54589,-9.36599 6.26045,-17.48434 15.20239,-18.13285c8.94194,-0.6485 16.63335,6.41842 17.17924,15.78441z" fill="none" stroke="#d4c47a" stroke-width="7.5"/><path d="M226.3605,154.70455c0,-1.82254 1.47746,-3.3 3.3,-3.3c1.82254,0 3.3,1.47746 3.3,3.3c0,1.82254 -1.47746,3.3 -3.3,3.3c-1.82254,0 -3.3,-1.47746 -3.3,-3.3z" fill="#d4aa7b" stroke="none" stroke-width="0.5"/><path d="M214.9205,150.19455c0,-1.82254 1.47746,-3.3 3.3,-3.3c1.82254,0 3.3,1.47746 3.3,3.3c0,1.82254 -1.47746,3.3 -3.3,3.3c-1.82254,0 -3.3,-1.47746 -3.3,-3.3z" fill="#d4aa7b" stroke="none" stroke-width="0.5"/><path d="M202.4905,156.68455c0,-1.82254 1.47746,-3.3 3.3,-3.3c1.82254,0 3.3,1.47746 3.3,3.3c0,1.82254 -1.47746,3.3 -3.3,3.3c-1.82254,0 -3.3,-1.47746 -3.3,-3.3z" fill="#d4aa7b" stroke="none" stroke-width="0.5"/><path d="M199.5205,171.31455c0,-1.82254 1.47746,-3.3 3.3,-3.3c1.82254,0 3.3,1.47746 3.3,3.3c0,1.82254 -1.47746,3.3 -3.3,3.3c-1.82254,0 -3.3,-1.47746 -3.3,-3.3z" fill="#d4aa7b" stroke="none" stroke-width="0.5"/><path d="M207.0005,182.09455c0,-1.82254 1.47746,-3.3 3.3,-3.3c1.82254,0 3.3,1.47746 3.3,3.3c0,1.82254 -1.47746,3.3 -3.3,3.3c-1.82254,0 -3.3,-1.47746 -3.3,-3.3z" fill="#d4aa7b" stroke="none" stroke-width="0.5"/><path d="M230.50001,188.95002v-17.5h58.25v17.5z" fill="#547a5c" stroke="#2e4333" stroke-width="4"/><path d="M221.95835,198.04169v-36.08333h36.08333v36.08333z" fill="#547a5c" stroke="#2e4333" stroke-width="4"/></g></g></svg>