<svg version="1.1" xmlns="http://www.w3.org/2000/svg" xmlns:xlink="http://www.w3.org/1999/xlink" width="715.32554" height="20.8474" viewBox="0,0,715.32554,20.8474"><defs><linearGradient x1="266.99985" y1="180.21282" x2="287.84725" y2="180.21282" gradientUnits="userSpaceOnUse" id="color-1"><stop offset="0" stop-color="#ffffff"/><stop offset="1" stop-color="#ff0000"/></linearGradient><linearGradient x1="285.02932" y1="180" x2="382.11351" y2="180" gradientUnits="userSpaceOnUse" id="color-2"><stop offset="0" stop-color="#ff0000"/><stop offset="1" stop-color="#ff5900"/></linearGradient><linearGradient x1="469.66064" y1="180" x2="380.90932" y2="180" gradientUnits="userSpaceOnUse" id="color-3"><stop offset="0" stop-color="#ffa200"/><stop offset="1" stop-color="#ff5900"/></linearGradient><linearGradient x1="468.97179" y1="180" x2="565.88183" y2="180" gradientUnits="userSpaceOnUse" id="color-4"><stop offset="0" stop-color="#ffa200"/><stop offset="1" stop-color="#fee100"/></linearGradient><linearGradient x1="669.54563" y1="180" x2="564.47686" y2="180" gradientUnits="userSpaceOnUse" id="color-5"><stop offset="0" stop-color="#99ff00"/><stop offset="1" stop-color="#ffe100"/></linearGradient><linearGradient x1="669.58044" y1="180" x2="781.84809" y2="180" gradientUnits="userSpaceOnUse" id="color-6"><stop offset="0" stop-color="#c1ff66"/><stop offset="1" stop-color="#8cff66"/></linearGradient><linearGradient x1="669.58044" y1="180" x2="781.84809" y2="180" gradientUnits="userSpaceOnUse" id="color-7"><stop offset="0" stop-color="#99ff00"/><stop offset="1" stop-color="#66ff00"/></linearGradient><linearGradient x1="893.67062" y1="180" x2="781.40297" y2="180" gradientUnits="userSpaceOnUse" id="color-8"><stop offset="0" stop-color="#00ff1e"/><stop offset="1" stop-color="#6aff00"/></linearGradient><linearGradient x1="870.05775" y1="180" x2="982.3254" y2="180" gradientUnits="userSpaceOnUse" id="color-9"><stop offset="0" stop-color="#00ff1e"/><stop offset="1" stop-color="#40ff00"/></linearGradient></defs><g transform="translate(-266.99985,-169.78912)"><g data-paper-data="{&quot;isPaintingLayer&quot;:true}" fill-rule="nonzero" stroke="none" stroke-linecap="butt" stroke-linejoin="miter" stroke-miterlimit="10" stroke-dasharray="" stroke-dashoffset="0" style="mix-blend-mode: normal"><path d="M266.99985,180.21282c0,-5.75686 4.66685,-10.4237 10.4237,-10.4237c5.75684,0 10.4237,4.66685 10.4237,10.4237c0,5.75686 -4.66685,10.4237 -10.4237,10.4237c-5.75684,0 -10.4237,-4.66685 -10.4237,-10.4237z" fill="url(#color-1)" stroke-width="1.5"/><g stroke-width="0"><path d="M285.02932,185.35079v-10.70157h97.08417v10.70157z" fill="url(#color-2)"/><path d="M380.90932,185.35079v-10.70157h88.75132v10.70157z" data-paper-data="{&quot;index&quot;:null}" fill="url(#color-3)"/><path d="M468.97179,185.35079v-10.70157h96.91004v10.70157z" data-paper-data="{&quot;index&quot;:null}" fill="url(#color-4)"/><path d="M564.47686,185.35079v-10.70157h105.06877v10.70157z" data-paper-data="{&quot;index&quot;:null}" fill="url(#color-5)"/><path d="M669.58044,185.35079v-10.70157h112.26765v10.70157z" data-paper-data="{&quot;index&quot;:null}" fill="url(#color-6)"/><path d="M669.58044,185.35079v-10.70157h112.26765v10.70157z" data-paper-data="{&quot;index&quot;:null}" fill="url(#color-7)"/><path d="M781.40297,185.35079v-10.70157h112.26765v10.70157z" data-paper-data="{&quot;index&quot;:null}" fill="url(#color-8)"/><path d="M870.05775,185.35079v-10.70157h112.26765v10.70157z" data-paper-data="{&quot;index&quot;:null}" fill="url(#color-9)"/></g></g></g></svg>