<svg version="1.1" xmlns="http://www.w3.org/2000/svg" xmlns:xlink="http://www.w3.org/1999/xlink" width="28.5" height="28.5" viewBox="0,0,28.5,28.5"><g transform="translate(-225.75,-165.75)"><g data-paper-data="{&quot;isPaintingLayer&quot;:true}" fill-rule="nonzero" stroke="#000000" stroke-linecap="butt" stroke-linejoin="miter" stroke-miterlimit="10" stroke-dasharray="" stroke-dashoffset="0" style="mix-blend-mode: normal"><path d="M227.5,192.5v-25h25v25z" fill="#bbbbbb" stroke-width="3.5"/><path d="M237.3125,180c0,-1.44975 1.17525,-2.625 2.625,-2.625c1.44975,0 2.625,1.17525 2.625,2.625c0,1.44975 -1.17525,2.625 -2.625,2.625c-1.44975,0 -2.625,-1.17525 -2.625,-2.625z" fill="#000000" stroke-width="0.5"/><path d="M244.1875,180c0,-1.44975 1.17525,-2.625 2.625,-2.625c1.44975,0 2.625,1.17525 2.625,2.625c0,1.44975 -1.17525,2.625 -2.625,2.625c-1.44975,0 -2.625,-1.17525 -2.625,-2.625z" fill="#000000" stroke-width="0.5"/><path d="M230.5625,180c0,-1.44975 1.17525,-2.625 2.625,-2.625c1.44975,0 2.625,1.17525 2.625,2.625c0,1.44975 -1.17525,2.625 -2.625,2.625c-1.44975,0 -2.625,-1.17525 -2.625,-2.625z" fill="#000000" stroke-width="0.5"/></g></g></svg>