<svg version="1.1" xmlns="http://www.w3.org/2000/svg" xmlns:xlink="http://www.w3.org/1999/xlink" width="930.81532" height="30.50749" viewBox="0,0,930.81532,30.50749"><g transform="translate(-240.79732,-164.79351)"><g data-paper-data="{&quot;isPaintingLayer&quot;:true}" fill-rule="nonzero" stroke-linejoin="miter" stroke-miterlimit="10" stroke-dasharray="" stroke-dashoffset="0" style="mix-blend-mode: normal"><path d="M242.04732,187.01277v-13.51351h928.31532v13.51351z" fill="#ff4f4f" stroke="#ff0000" stroke-width="2.5" stroke-linecap="butt"/><path d="M245.21397,183.42718v-6.34234h921.64865v6.34234z" fill="#ff8f8f" stroke="#ff2929" stroke-width="1.5" stroke-linecap="butt"/><path d="M245.88889,187.98275c0,0 -0.43984,3.0648 0.0485,4.47818c0.50994,1.47588 1.95964,1.30474 2.48497,1.38783c1.39311,0.22036 2.65647,-0.61533 2.75493,-1.61805c0.49331,-5.02384 0.19178,-17.03817 0.12856,-23.86253c-0.01662,-1.79419 1.19355,-2.47816 2.91521,-2.49133c0.2876,-0.0022 2.70899,0.04506 3.1439,1.07829c0.56358,1.33893 -0.27998,4.99652 0.16771,5.45636" fill="none" stroke="#ff0000" stroke-width="1.5" stroke-linecap="round"/><path d="M255.48888,187.98275c0,0 -0.43984,3.0648 0.0485,4.47818c0.50994,1.47588 1.95964,1.30474 2.48497,1.38783c1.39311,0.22036 2.65646,-0.61533 2.75492,-1.61805c0.49331,-5.02384 0.19179,-17.03817 0.12857,-23.86253c-0.01662,-1.79419 1.19355,-2.47816 2.91521,-2.49133c0.2876,-0.0022 2.70899,0.04506 3.1439,1.07829c0.56358,1.33893 -0.27998,4.99652 0.16771,5.45636" fill="none" stroke="#ff0000" stroke-width="1.5" stroke-linecap="round"/><path d="M265.78889,187.98275c0,0 -0.43984,3.0648 0.0485,4.47818c0.50994,1.47588 1.95964,1.30474 2.48497,1.38783c1.39311,0.22036 2.65647,-0.61533 2.75493,-1.61805c0.49331,-5.02384 0.19179,-17.03817 0.12857,-23.86253c-0.01662,-1.79419 1.19354,-2.47816 2.9152,-2.49133c0.28759,-0.0022 2.70899,0.04506 3.1439,1.07829c0.56358,1.33893 -0.27998,4.99652 0.16771,5.45636" fill="none" stroke="#ff0000" stroke-width="1.5" stroke-linecap="round"/><path d="M276.55556,187.98275c0,0 -0.43984,3.0648 0.0485,4.47818c0.50993,1.47588 1.95964,1.30474 2.48497,1.38783c1.39311,0.22036 2.65646,-0.61533 2.75492,-1.61805c0.49331,-5.02384 0.19179,-17.03817 0.12857,-23.86253c-0.01662,-1.79419 1.19355,-2.47816 2.91521,-2.49133c0.2876,-0.0022 2.70899,0.04506 3.1439,1.07829c0.56358,1.33893 -0.27998,4.99652 0.16771,5.45636" fill="none" stroke="#ff0000" stroke-width="1.5" stroke-linecap="round"/><path d="M255.48888,187.98275c0,0 -0.43984,3.0648 0.0485,4.47818c0.50994,1.47588 1.95964,1.30474 2.48497,1.38783c1.39311,0.22036 2.65646,-0.61533 2.75492,-1.61805c0.49331,-5.02384 0.19179,-17.03817 0.12857,-23.86253c-0.01662,-1.79419 1.19355,-2.47816 2.91521,-2.49133c0.2876,-0.0022 2.70899,0.04506 3.1439,1.07829c0.56358,1.33893 -0.27998,4.99652 0.16771,5.45636" fill="none" stroke="#ff0000" stroke-width="1.5" stroke-linecap="round"/><path d="M287.55556,188.31608c0,0 -0.43984,3.0648 0.0485,4.47818c0.50993,1.47589 1.95964,1.30474 2.48497,1.38783c1.39311,0.22036 2.65646,-0.61533 2.75492,-1.61805c0.49331,-5.02384 0.19179,-17.03817 0.12857,-23.86253c-0.01662,-1.79419 1.19355,-2.47816 2.91521,-2.49133c0.2876,-0.0022 2.70899,0.04506 3.1439,1.07829c0.56358,1.33893 -0.27998,4.99652 0.16771,5.45636" fill="none" stroke="#ff0000" stroke-width="1.5" stroke-linecap="round"/><path d="M297.15556,188.31608c0,0 -0.43984,3.0648 0.0485,4.47818c0.50994,1.47589 1.95964,1.30474 2.48497,1.38783c1.39311,0.22036 2.65647,-0.61533 2.75493,-1.61805c0.49331,-5.02384 0.19178,-17.03817 0.12856,-23.86253c-0.01662,-1.79419 1.19355,-2.47816 2.91521,-2.49133c0.28759,-0.0022 2.70899,0.04506 3.1439,1.07829c0.56358,1.33893 -0.27999,4.99652 0.1677,5.45636" fill="none" stroke="#ff0000" stroke-width="1.5" stroke-linecap="round"/><path d="M307.45556,188.31608c0,0 -0.43984,3.0648 0.0485,4.47818c0.50994,1.47589 1.95964,1.30474 2.48497,1.38783c1.39311,0.22036 2.65647,-0.61533 2.75493,-1.61805c0.49331,-5.02384 0.19178,-17.03817 0.12856,-23.86253c-0.01662,-1.79419 1.19355,-2.47816 2.91521,-2.49133c0.2876,-0.0022 2.70899,0.04506 3.1439,1.07829c0.56358,1.33893 -0.27998,4.99652 0.16771,5.45636" fill="none" stroke="#ff0000" stroke-width="1.5" stroke-linecap="round"/><path d="M318.22222,188.31608c0,0 -0.43984,3.0648 0.0485,4.47818c0.50994,1.47589 1.95964,1.30474 2.48497,1.38783c1.39311,0.22036 2.65647,-0.61533 2.75493,-1.61805c0.49331,-5.02384 0.19178,-17.03817 0.12856,-23.86253c-0.01662,-1.79419 1.19355,-2.47816 2.91521,-2.49133c0.28759,-0.0022 2.70899,0.04506 3.1439,1.07829c0.56358,1.33893 -0.27999,4.99652 0.1677,5.45636" fill="none" stroke="#ff0000" stroke-width="1.5" stroke-linecap="round"/><path d="M297.15556,188.31608c0,0 -0.43984,3.0648 0.0485,4.47818c0.50994,1.47589 1.95964,1.30474 2.48497,1.38783c1.39311,0.22036 2.65647,-0.61533 2.75493,-1.61805c0.49331,-5.02384 0.19178,-17.03817 0.12856,-23.86253c-0.01662,-1.79419 1.19355,-2.47816 2.91521,-2.49133c0.28759,-0.0022 2.70899,0.04506 3.1439,1.07829c0.56358,1.33893 -0.27999,4.99652 0.1677,5.45636" fill="none" stroke="#ff0000" stroke-width="1.5" stroke-linecap="round"/><path d="M245.88889,187.98275c0,0 -0.43984,3.0648 0.0485,4.47818c0.50994,1.47588 1.95964,1.30474 2.48497,1.38783c1.39311,0.22036 2.65647,-0.61533 2.75493,-1.61805c0.49331,-5.02384 0.19178,-17.03817 0.12856,-23.86253c-0.01662,-1.79419 1.19355,-2.47816 2.91521,-2.49133c0.2876,-0.0022 2.70899,0.04506 3.1439,1.07829c0.56358,1.33893 -0.27998,4.99652 0.16771,5.45636" fill="none" stroke="#ff0000" stroke-width="1.5" stroke-linecap="round"/><path d="M255.48888,187.98275c0,0 -0.43984,3.0648 0.0485,4.47818c0.50994,1.47588 1.95964,1.30474 2.48497,1.38783c1.39311,0.22036 2.65646,-0.61533 2.75492,-1.61805c0.49331,-5.02384 0.19179,-17.03817 0.12857,-23.86253c-0.01662,-1.79419 1.19355,-2.47816 2.91521,-2.49133c0.2876,-0.0022 2.70899,0.04506 3.1439,1.07829c0.56358,1.33893 -0.27998,4.99652 0.16771,5.45636" fill="none" stroke="#ff0000" stroke-width="1.5" stroke-linecap="round"/><path d="M265.78889,187.98275c0,0 -0.43984,3.0648 0.0485,4.47818c0.50994,1.47588 1.95964,1.30474 2.48497,1.38783c1.39311,0.22036 2.65647,-0.61533 2.75493,-1.61805c0.49331,-5.02384 0.19179,-17.03817 0.12857,-23.86253c-0.01662,-1.79419 1.19354,-2.47816 2.9152,-2.49133c0.28759,-0.0022 2.70899,0.04506 3.1439,1.07829c0.56358,1.33893 -0.27998,4.99652 0.16771,5.45636" fill="none" stroke="#ff0000" stroke-width="1.5" stroke-linecap="round"/><path d="M276.55556,187.98275c0,0 -0.43984,3.0648 0.0485,4.47818c0.50993,1.47588 1.95964,1.30474 2.48497,1.38783c1.39311,0.22036 2.65646,-0.61533 2.75492,-1.61805c0.49331,-5.02384 0.19179,-17.03817 0.12857,-23.86253c-0.01662,-1.79419 1.19355,-2.47816 2.91521,-2.49133c0.2876,-0.0022 2.70899,0.04506 3.1439,1.07829c0.56358,1.33893 -0.27998,4.99652 0.16771,5.45636" fill="none" stroke="#ff0000" stroke-width="1.5" stroke-linecap="round"/><path d="M255.48888,187.98275c0,0 -0.43984,3.0648 0.0485,4.47818c0.50994,1.47588 1.95964,1.30474 2.48497,1.38783c1.39311,0.22036 2.65646,-0.61533 2.75492,-1.61805c0.49331,-5.02384 0.19179,-17.03817 0.12857,-23.86253c-0.01662,-1.79419 1.19355,-2.47816 2.91521,-2.49133c0.2876,-0.0022 2.70899,0.04506 3.1439,1.07829c0.56358,1.33893 -0.27998,4.99652 0.16771,5.45636" fill="none" stroke="#ff0000" stroke-width="1.5" stroke-linecap="round"/><path d="M287.55556,188.31608c0,0 -0.43984,3.0648 0.0485,4.47818c0.50993,1.47589 1.95964,1.30474 2.48497,1.38783c1.39311,0.22036 2.65646,-0.61533 2.75492,-1.61805c0.49331,-5.02384 0.19179,-17.03817 0.12857,-23.86253c-0.01662,-1.79419 1.19355,-2.47816 2.91521,-2.49133c0.2876,-0.0022 2.70899,0.04506 3.1439,1.07829c0.56358,1.33893 -0.27998,4.99652 0.16771,5.45636" fill="none" stroke="#ff0000" stroke-width="1.5" stroke-linecap="round"/><path d="M297.15556,188.31608c0,0 -0.43984,3.0648 0.0485,4.47818c0.50994,1.47589 1.95964,1.30474 2.48497,1.38783c1.39311,0.22036 2.65647,-0.61533 2.75493,-1.61805c0.49331,-5.02384 0.19178,-17.03817 0.12856,-23.86253c-0.01662,-1.79419 1.19355,-2.47816 2.91521,-2.49133c0.28759,-0.0022 2.70899,0.04506 3.1439,1.07829c0.56358,1.33893 -0.27999,4.99652 0.1677,5.45636" fill="none" stroke="#ff0000" stroke-width="1.5" stroke-linecap="round"/><path d="M307.45556,188.31608c0,0 -0.43984,3.0648 0.0485,4.47818c0.50994,1.47589 1.95964,1.30474 2.48497,1.38783c1.39311,0.22036 2.65647,-0.61533 2.75493,-1.61805c0.49331,-5.02384 0.19178,-17.03817 0.12856,-23.86253c-0.01662,-1.79419 1.19355,-2.47816 2.91521,-2.49133c0.2876,-0.0022 2.70899,0.04506 3.1439,1.07829c0.56358,1.33893 -0.27998,4.99652 0.16771,5.45636" fill="none" stroke="#ff0000" stroke-width="1.5" stroke-linecap="round"/><path d="M318.22222,188.31608c0,0 -0.43984,3.0648 0.0485,4.47818c0.50994,1.47589 1.95964,1.30474 2.48497,1.38783c1.39311,0.22036 2.65647,-0.61533 2.75493,-1.61805c0.49331,-5.02384 0.19178,-17.03817 0.12856,-23.86253c-0.01662,-1.79419 1.19355,-2.47816 2.91521,-2.49133c0.28759,-0.0022 2.70899,0.04506 3.1439,1.07829c0.56358,1.33893 -0.27999,4.99652 0.1677,5.45636" fill="none" stroke="#ff0000" stroke-width="1.5" stroke-linecap="round"/><path d="M297.15556,188.31608c0,0 -0.43984,3.0648 0.0485,4.47818c0.50994,1.47589 1.95964,1.30474 2.48497,1.38783c1.39311,0.22036 2.65647,-0.61533 2.75493,-1.61805c0.49331,-5.02384 0.19178,-17.03817 0.12856,-23.86253c-0.01662,-1.79419 1.19355,-2.47816 2.91521,-2.49133c0.28759,-0.0022 2.70899,0.04506 3.1439,1.07829c0.56358,1.33893 -0.27999,4.99652 0.1677,5.45636" fill="none" stroke="#ff0000" stroke-width="1.5" stroke-linecap="round"/><path d="M329.88888,188.31608c0,0 -0.43984,3.0648 0.0485,4.47818c0.50994,1.47589 1.95964,1.30474 2.48497,1.38783c1.39311,0.22036 2.65647,-0.61533 2.75493,-1.61805c0.49331,-5.02384 0.19178,-17.03817 0.12856,-23.86253c-0.01662,-1.79419 1.19355,-2.47816 2.91521,-2.49133c0.2876,-0.0022 2.70899,0.04506 3.1439,1.07829c0.56358,1.33893 -0.27998,4.99652 0.16771,5.45636" fill="none" stroke="#ff0000" stroke-width="1.5" stroke-linecap="round"/><path d="M339.48889,188.31608c0,0 -0.43984,3.0648 0.0485,4.47818c0.50993,1.47589 1.95964,1.30474 2.48497,1.38783c1.39311,0.22036 2.65646,-0.61533 2.75492,-1.61805c0.49331,-5.02384 0.19179,-17.03817 0.12857,-23.86253c-0.01662,-1.79419 1.19355,-2.47816 2.91521,-2.49133c0.2876,-0.0022 2.70899,0.04506 3.1439,1.07829c0.56358,1.33893 -0.27998,4.99652 0.16771,5.45636" fill="none" stroke="#ff0000" stroke-width="1.5" stroke-linecap="round"/><path d="M349.78889,188.31608c0,0 -0.43984,3.0648 0.0485,4.47818c0.50994,1.47589 1.95964,1.30474 2.48497,1.38783c1.39311,0.22036 2.65647,-0.61533 2.75493,-1.61805c0.49331,-5.02384 0.19179,-17.03817 0.12857,-23.86253c-0.01662,-1.79419 1.19354,-2.47816 2.9152,-2.49133c0.28759,-0.0022 2.70899,0.04506 3.1439,1.07829c0.56358,1.33893 -0.27998,4.99652 0.16771,5.45636" fill="none" stroke="#ff0000" stroke-width="1.5" stroke-linecap="round"/><path d="M360.55556,188.31608c0,0 -0.43984,3.0648 0.0485,4.47818c0.50993,1.47589 1.95964,1.30474 2.48497,1.38783c1.39311,0.22036 2.65646,-0.61533 2.75492,-1.61805c0.49331,-5.02384 0.19179,-17.03817 0.12857,-23.86253c-0.01662,-1.79419 1.19355,-2.47816 2.91521,-2.49133c0.2876,-0.0022 2.70899,0.04506 3.1439,1.07829c0.56358,1.33893 -0.27998,4.99652 0.16771,5.45636" fill="none" stroke="#ff0000" stroke-width="1.5" stroke-linecap="round"/><path d="M339.48889,188.31608c0,0 -0.43984,3.0648 0.0485,4.47818c0.50993,1.47589 1.95964,1.30474 2.48497,1.38783c1.39311,0.22036 2.65646,-0.61533 2.75492,-1.61805c0.49331,-5.02384 0.19179,-17.03817 0.12857,-23.86253c-0.01662,-1.79419 1.19355,-2.47816 2.91521,-2.49133c0.2876,-0.0022 2.70899,0.04506 3.1439,1.07829c0.56358,1.33893 -0.27998,4.99652 0.16771,5.45636" fill="none" stroke="#ff0000" stroke-width="1.5" stroke-linecap="round"/><path d="M371.55556,188.64942c0,0 -0.43984,3.0648 0.0485,4.47818c0.50993,1.47589 1.95964,1.30474 2.48497,1.38783c1.39311,0.22036 2.65646,-0.61533 2.75492,-1.61805c0.49331,-5.02384 0.19179,-17.03817 0.12857,-23.86253c-0.01662,-1.7942 1.19355,-2.47816 2.91521,-2.49133c0.2876,-0.0022 2.70899,0.04506 3.1439,1.07829c0.56358,1.33893 -0.27998,4.99652 0.16771,5.45636" fill="none" stroke="#ff0000" stroke-width="1.5" stroke-linecap="round"/><path d="M381.15557,188.64942c0,0 -0.43984,3.0648 0.0485,4.47818c0.50994,1.47589 1.95964,1.30474 2.48497,1.38783c1.39311,0.22036 2.65647,-0.61533 2.75493,-1.61805c0.49331,-5.02384 0.19178,-17.03817 0.12856,-23.86253c-0.01662,-1.7942 1.19355,-2.47816 2.91521,-2.49133c0.28759,-0.0022 2.70899,0.04506 3.1439,1.07829c0.56358,1.33893 -0.27999,4.99652 0.1677,5.45636" fill="none" stroke="#ff0000" stroke-width="1.5" stroke-linecap="round"/><path d="M391.45556,188.64942c0,0 -0.43984,3.0648 0.0485,4.47818c0.50994,1.47589 1.95964,1.30474 2.48497,1.38783c1.39311,0.22036 2.65647,-0.61533 2.75493,-1.61805c0.49331,-5.02384 0.19178,-17.03817 0.12856,-23.86253c-0.01662,-1.7942 1.19355,-2.47816 2.91521,-2.49133c0.2876,-0.0022 2.70899,0.04506 3.1439,1.07829c0.56358,1.33893 -0.27998,4.99652 0.16771,5.45636" fill="none" stroke="#ff0000" stroke-width="1.5" stroke-linecap="round"/><path d="M402.22223,188.64942c0,0 -0.43984,3.0648 0.0485,4.47818c0.50994,1.47589 1.95964,1.30474 2.48497,1.38783c1.39311,0.22036 2.65647,-0.61533 2.75493,-1.61805c0.49331,-5.02384 0.19178,-17.03817 0.12856,-23.86253c-0.01662,-1.7942 1.19355,-2.47816 2.91521,-2.49133c0.28759,-0.0022 2.70899,0.04506 3.1439,1.07829c0.56358,1.33893 -0.27999,4.99652 0.1677,5.45636" fill="none" stroke="#ff0000" stroke-width="1.5" stroke-linecap="round"/><path d="M381.15557,188.64942c0,0 -0.43984,3.0648 0.0485,4.47818c0.50994,1.47589 1.95964,1.30474 2.48497,1.38783c1.39311,0.22036 2.65647,-0.61533 2.75493,-1.61805c0.49331,-5.02384 0.19178,-17.03817 0.12856,-23.86253c-0.01662,-1.7942 1.19355,-2.47816 2.91521,-2.49133c0.28759,-0.0022 2.70899,0.04506 3.1439,1.07829c0.56358,1.33893 -0.27999,4.99652 0.1677,5.45636" fill="none" stroke="#ff0000" stroke-width="1.5" stroke-linecap="round"/><path d="M414.22224,187.64941c0,0 -0.43984,3.0648 0.0485,4.47818c0.50993,1.47588 1.95964,1.30474 2.48497,1.38783c1.39311,0.22036 2.65646,-0.61533 2.75492,-1.61805c0.49331,-5.02384 0.19179,-17.03817 0.12857,-23.86253c-0.01662,-1.79419 1.19354,-2.47816 2.9152,-2.49133c0.28759,-0.0022 2.70899,0.04506 3.1439,1.07829c0.56358,1.33893 -0.27998,4.99652 0.16771,5.45636" fill="none" stroke="#ff0000" stroke-width="1.5" stroke-linecap="round"/><path d="M423.82223,187.64941c0,0 -0.43984,3.0648 0.0485,4.47818c0.50994,1.47588 1.95964,1.30474 2.48497,1.38783c1.39311,0.22036 2.65647,-0.61533 2.75493,-1.61805c0.49331,-5.02384 0.19178,-17.03817 0.12856,-23.86253c-0.01662,-1.79419 1.19355,-2.47816 2.91521,-2.49133c0.2876,-0.0022 2.70899,0.04506 3.1439,1.07829c0.56358,1.33893 -0.27998,4.99652 0.16771,5.45636" fill="none" stroke="#ff0000" stroke-width="1.5" stroke-linecap="round"/><path d="M434.12224,187.64941c0,0 -0.43985,3.0648 0.04849,4.47818c0.50993,1.47588 1.95964,1.30474 2.48497,1.38783c1.39311,0.22036 2.65647,-0.61533 2.75493,-1.61805c0.49331,-5.02384 0.19178,-17.03817 0.12856,-23.86253c-0.01662,-1.79419 1.19355,-2.47816 2.91521,-2.49133c0.2876,-0.0022 2.70899,0.04506 3.1439,1.07829c0.56358,1.33893 -0.27998,4.99652 0.16771,5.45636" fill="none" stroke="#ff0000" stroke-width="1.5" stroke-linecap="round"/><path d="M444.88888,187.64941c0,0 -0.43984,3.0648 0.0485,4.47818c0.50994,1.47588 1.95964,1.30474 2.48497,1.38783c1.39311,0.22036 2.65647,-0.61533 2.75493,-1.61805c0.49331,-5.02384 0.19178,-17.03817 0.12856,-23.86253c-0.01662,-1.79419 1.19355,-2.47816 2.91521,-2.49133c0.2876,-0.0022 2.70899,0.04506 3.1439,1.07829c0.56358,1.33893 -0.27998,4.99652 0.16771,5.45636" fill="none" stroke="#ff0000" stroke-width="1.5" stroke-linecap="round"/><path d="M423.82223,187.64941c0,0 -0.43984,3.0648 0.0485,4.47818c0.50994,1.47588 1.95964,1.30474 2.48497,1.38783c1.39311,0.22036 2.65647,-0.61533 2.75493,-1.61805c0.49331,-5.02384 0.19178,-17.03817 0.12856,-23.86253c-0.01662,-1.79419 1.19355,-2.47816 2.91521,-2.49133c0.2876,-0.0022 2.70899,0.04506 3.1439,1.07829c0.56358,1.33893 -0.27998,4.99652 0.16771,5.45636" fill="none" stroke="#ff0000" stroke-width="1.5" stroke-linecap="round"/><path d="M455.88888,187.98275c0,0 -0.43984,3.0648 0.0485,4.47818c0.50994,1.47588 1.95964,1.30474 2.48497,1.38783c1.39311,0.22036 2.65647,-0.61533 2.75493,-1.61805c0.49331,-5.02384 0.19178,-17.03817 0.12856,-23.86253c-0.01662,-1.79419 1.19355,-2.47816 2.91521,-2.49133c0.2876,-0.0022 2.70899,0.04506 3.1439,1.07829c0.56358,1.33893 -0.27998,4.99652 0.16771,5.45636" fill="none" stroke="#ff0000" stroke-width="1.5" stroke-linecap="round"/><path d="M465.48889,187.98275c0,0 -0.43984,3.0648 0.0485,4.47818c0.50993,1.47588 1.95964,1.30474 2.48497,1.38783c1.39311,0.22036 2.65646,-0.61533 2.75492,-1.61805c0.49331,-5.02384 0.19179,-17.03817 0.12857,-23.86253c-0.01662,-1.79419 1.19355,-2.47816 2.91521,-2.49133c0.2876,-0.0022 2.70899,0.04506 3.1439,1.07829c0.56358,1.33893 -0.27998,4.99652 0.16771,5.45636" fill="none" stroke="#ff0000" stroke-width="1.5" stroke-linecap="round"/><path d="M475.78889,187.98275c0,0 -0.43984,3.0648 0.0485,4.47818c0.50994,1.47588 1.95964,1.30474 2.48497,1.38783c1.39311,0.22036 2.65647,-0.61533 2.75493,-1.61805c0.49331,-5.02384 0.19179,-17.03817 0.12857,-23.86253c-0.01662,-1.79419 1.19354,-2.47816 2.9152,-2.49133c0.28759,-0.0022 2.70899,0.04506 3.1439,1.07829c0.56358,1.33893 -0.27998,4.99652 0.16771,5.45636" fill="none" stroke="#ff0000" stroke-width="1.5" stroke-linecap="round"/><path d="M486.55556,187.98275c0,0 -0.43984,3.0648 0.0485,4.47818c0.50993,1.47588 1.95964,1.30474 2.48497,1.38783c1.39311,0.22036 2.65646,-0.61533 2.75492,-1.61805c0.49331,-5.02384 0.19179,-17.03817 0.12857,-23.86253c-0.01662,-1.79419 1.19355,-2.47816 2.91521,-2.49133c0.2876,-0.0022 2.70899,0.04506 3.1439,1.07829c0.56358,1.33893 -0.27998,4.99652 0.16771,5.45636" fill="none" stroke="#ff0000" stroke-width="1.5" stroke-linecap="round"/><path d="M465.48889,187.98275c0,0 -0.43984,3.0648 0.0485,4.47818c0.50993,1.47588 1.95964,1.30474 2.48497,1.38783c1.39311,0.22036 2.65646,-0.61533 2.75492,-1.61805c0.49331,-5.02384 0.19179,-17.03817 0.12857,-23.86253c-0.01662,-1.79419 1.19355,-2.47816 2.91521,-2.49133c0.2876,-0.0022 2.70899,0.04506 3.1439,1.07829c0.56358,1.33893 -0.27998,4.99652 0.16771,5.45636" fill="none" stroke="#ff0000" stroke-width="1.5" stroke-linecap="round"/><path d="M414.22224,187.64941c0,0 -0.43984,3.0648 0.0485,4.47818c0.50993,1.47588 1.95964,1.30474 2.48497,1.38783c1.39311,0.22036 2.65646,-0.61533 2.75492,-1.61805c0.49331,-5.02384 0.19179,-17.03817 0.12857,-23.86253c-0.01662,-1.79419 1.19354,-2.47816 2.9152,-2.49133c0.28759,-0.0022 2.70899,0.04506 3.1439,1.07829c0.56358,1.33893 -0.27998,4.99652 0.16771,5.45636" fill="none" stroke="#ff0000" stroke-width="1.5" stroke-linecap="round"/><path d="M423.82223,187.64941c0,0 -0.43984,3.0648 0.0485,4.47818c0.50994,1.47588 1.95964,1.30474 2.48497,1.38783c1.39311,0.22036 2.65647,-0.61533 2.75493,-1.61805c0.49331,-5.02384 0.19178,-17.03817 0.12856,-23.86253c-0.01662,-1.79419 1.19355,-2.47816 2.91521,-2.49133c0.2876,-0.0022 2.70899,0.04506 3.1439,1.07829c0.56358,1.33893 -0.27998,4.99652 0.16771,5.45636" fill="none" stroke="#ff0000" stroke-width="1.5" stroke-linecap="round"/><path d="M434.12224,187.64941c0,0 -0.43985,3.0648 0.04849,4.47818c0.50993,1.47588 1.95964,1.30474 2.48497,1.38783c1.39311,0.22036 2.65647,-0.61533 2.75493,-1.61805c0.49331,-5.02384 0.19178,-17.03817 0.12856,-23.86253c-0.01662,-1.79419 1.19355,-2.47816 2.91521,-2.49133c0.2876,-0.0022 2.70899,0.04506 3.1439,1.07829c0.56358,1.33893 -0.27998,4.99652 0.16771,5.45636" fill="none" stroke="#ff0000" stroke-width="1.5" stroke-linecap="round"/><path d="M444.88888,187.64941c0,0 -0.43984,3.0648 0.0485,4.47818c0.50994,1.47588 1.95964,1.30474 2.48497,1.38783c1.39311,0.22036 2.65647,-0.61533 2.75493,-1.61805c0.49331,-5.02384 0.19178,-17.03817 0.12856,-23.86253c-0.01662,-1.79419 1.19355,-2.47816 2.91521,-2.49133c0.2876,-0.0022 2.70899,0.04506 3.1439,1.07829c0.56358,1.33893 -0.27998,4.99652 0.16771,5.45636" fill="none" stroke="#ff0000" stroke-width="1.5" stroke-linecap="round"/><path d="M423.82223,187.64941c0,0 -0.43984,3.0648 0.0485,4.47818c0.50994,1.47588 1.95964,1.30474 2.48497,1.38783c1.39311,0.22036 2.65647,-0.61533 2.75493,-1.61805c0.49331,-5.02384 0.19178,-17.03817 0.12856,-23.86253c-0.01662,-1.79419 1.19355,-2.47816 2.91521,-2.49133c0.2876,-0.0022 2.70899,0.04506 3.1439,1.07829c0.56358,1.33893 -0.27998,4.99652 0.16771,5.45636" fill="none" stroke="#ff0000" stroke-width="1.5" stroke-linecap="round"/><path d="M455.88888,187.98275c0,0 -0.43984,3.0648 0.0485,4.47818c0.50994,1.47588 1.95964,1.30474 2.48497,1.38783c1.39311,0.22036 2.65647,-0.61533 2.75493,-1.61805c0.49331,-5.02384 0.19178,-17.03817 0.12856,-23.86253c-0.01662,-1.79419 1.19355,-2.47816 2.91521,-2.49133c0.2876,-0.0022 2.70899,0.04506 3.1439,1.07829c0.56358,1.33893 -0.27998,4.99652 0.16771,5.45636" fill="none" stroke="#ff0000" stroke-width="1.5" stroke-linecap="round"/><path d="M465.48889,187.98275c0,0 -0.43984,3.0648 0.0485,4.47818c0.50993,1.47588 1.95964,1.30474 2.48497,1.38783c1.39311,0.22036 2.65646,-0.61533 2.75492,-1.61805c0.49331,-5.02384 0.19179,-17.03817 0.12857,-23.86253c-0.01662,-1.79419 1.19355,-2.47816 2.91521,-2.49133c0.2876,-0.0022 2.70899,0.04506 3.1439,1.07829c0.56358,1.33893 -0.27998,4.99652 0.16771,5.45636" fill="none" stroke="#ff0000" stroke-width="1.5" stroke-linecap="round"/><path d="M475.78889,187.98275c0,0 -0.43984,3.0648 0.0485,4.47818c0.50994,1.47588 1.95964,1.30474 2.48497,1.38783c1.39311,0.22036 2.65647,-0.61533 2.75493,-1.61805c0.49331,-5.02384 0.19179,-17.03817 0.12857,-23.86253c-0.01662,-1.79419 1.19354,-2.47816 2.9152,-2.49133c0.28759,-0.0022 2.70899,0.04506 3.1439,1.07829c0.56358,1.33893 -0.27998,4.99652 0.16771,5.45636" fill="none" stroke="#ff0000" stroke-width="1.5" stroke-linecap="round"/><path d="M486.55556,187.98275c0,0 -0.43984,3.0648 0.0485,4.47818c0.50993,1.47588 1.95964,1.30474 2.48497,1.38783c1.39311,0.22036 2.65646,-0.61533 2.75492,-1.61805c0.49331,-5.02384 0.19179,-17.03817 0.12857,-23.86253c-0.01662,-1.79419 1.19355,-2.47816 2.91521,-2.49133c0.2876,-0.0022 2.70899,0.04506 3.1439,1.07829c0.56358,1.33893 -0.27998,4.99652 0.16771,5.45636" fill="none" stroke="#ff0000" stroke-width="1.5" stroke-linecap="round"/><path d="M465.48889,187.98275c0,0 -0.43984,3.0648 0.0485,4.47818c0.50993,1.47588 1.95964,1.30474 2.48497,1.38783c1.39311,0.22036 2.65646,-0.61533 2.75492,-1.61805c0.49331,-5.02384 0.19179,-17.03817 0.12857,-23.86253c-0.01662,-1.79419 1.19355,-2.47816 2.91521,-2.49133c0.2876,-0.0022 2.70899,0.04506 3.1439,1.07829c0.56358,1.33893 -0.27998,4.99652 0.16771,5.45636" fill="none" stroke="#ff0000" stroke-width="1.5" stroke-linecap="round"/><path d="M498.22224,187.98275c0,0 -0.43984,3.0648 0.0485,4.47818c0.50993,1.47588 1.95964,1.30474 2.48497,1.38783c1.39311,0.22036 2.65646,-0.61533 2.75492,-1.61805c0.49331,-5.02384 0.19179,-17.03817 0.12857,-23.86253c-0.01662,-1.79419 1.19354,-2.47816 2.9152,-2.49133c0.28759,-0.0022 2.70899,0.04506 3.1439,1.07829c0.56358,1.33893 -0.27998,4.99652 0.16771,5.45636" fill="none" stroke="#ff0000" stroke-width="1.5" stroke-linecap="round"/><path d="M507.82223,187.98275c0,0 -0.43984,3.0648 0.0485,4.47818c0.50994,1.47588 1.95964,1.30474 2.48497,1.38783c1.39311,0.22036 2.65646,-0.61533 2.75492,-1.61805c0.49331,-5.02384 0.19179,-17.03817 0.12857,-23.86253c-0.01662,-1.79419 1.19354,-2.47816 2.9152,-2.49133c0.28759,-0.0022 2.709,0.04506 3.1439,1.07829c0.56358,1.33893 -0.27998,4.99652 0.16771,5.45636" fill="none" stroke="#ff0000" stroke-width="1.5" stroke-linecap="round"/><path d="M518.12223,187.98275c0,0 -0.43984,3.0648 0.0485,4.47818c0.50994,1.47588 1.95964,1.30474 2.48497,1.38783c1.39311,0.22036 2.65647,-0.61533 2.75493,-1.61805c0.4933,-5.02384 0.19178,-17.03817 0.12856,-23.86253c-0.01662,-1.79419 1.19355,-2.47816 2.91521,-2.49133c0.28759,-0.0022 2.709,0.04506 3.1439,1.07829c0.56358,1.33893 -0.27999,4.99652 0.1677,5.45636" fill="none" stroke="#ff0000" stroke-width="1.5" stroke-linecap="round"/><path d="M528.88891,187.98275c0,0 -0.43984,3.0648 0.0485,4.47818c0.50993,1.47588 1.95964,1.30474 2.48497,1.38783c1.39311,0.22036 2.65646,-0.61533 2.75492,-1.61805c0.4933,-5.02384 0.19178,-17.03817 0.12856,-23.86253c-0.01662,-1.79419 1.19355,-2.47816 2.91521,-2.49133c0.28759,-0.0022 2.709,0.04506 3.1439,1.07829c0.56358,1.33893 -0.27999,4.99652 0.1677,5.45636" fill="none" stroke="#ff0000" stroke-width="1.5" stroke-linecap="round"/><path d="M507.82223,187.98275c0,0 -0.43984,3.0648 0.0485,4.47818c0.50994,1.47588 1.95964,1.30474 2.48497,1.38783c1.39311,0.22036 2.65646,-0.61533 2.75492,-1.61805c0.49331,-5.02384 0.19179,-17.03817 0.12857,-23.86253c-0.01662,-1.79419 1.19354,-2.47816 2.9152,-2.49133c0.28759,-0.0022 2.709,0.04506 3.1439,1.07829c0.56358,1.33893 -0.27998,4.99652 0.16771,5.45636" fill="none" stroke="#ff0000" stroke-width="1.5" stroke-linecap="round"/><path d="M539.88891,188.31608c0,0 -0.43984,3.0648 0.0485,4.47818c0.50993,1.47589 1.95964,1.30474 2.48497,1.38783c1.39311,0.22036 2.65646,-0.61533 2.75492,-1.61805c0.4933,-5.02384 0.19178,-17.03817 0.12856,-23.86253c-0.01662,-1.79419 1.19355,-2.47816 2.91521,-2.49133c0.28759,-0.0022 2.709,0.04506 3.1439,1.07829c0.56358,1.33893 -0.27999,4.99652 0.1677,5.45636" fill="none" stroke="#ff0000" stroke-width="1.5" stroke-linecap="round"/><path d="M549.48889,188.31608c0,0 -0.43984,3.0648 0.0485,4.47818c0.50994,1.47589 1.95964,1.30474 2.48497,1.38783c1.39311,0.22036 2.65647,-0.61533 2.75493,-1.61805c0.4933,-5.02384 0.19178,-17.03817 0.12856,-23.86253c-0.01662,-1.79419 1.19355,-2.47816 2.91521,-2.49133c0.2876,-0.0022 2.709,0.04506 3.1439,1.07829c0.56358,1.33893 -0.27998,4.99652 0.16771,5.45636" fill="none" stroke="#ff0000" stroke-width="1.5" stroke-linecap="round"/><path d="M559.78891,188.31608c0,0 -0.43984,3.0648 0.0485,4.47818c0.50994,1.47589 1.95964,1.30474 2.48497,1.38783c1.39311,0.22036 2.65646,-0.61533 2.75492,-1.61805c0.4933,-5.02384 0.19178,-17.03817 0.12856,-23.86253c-0.01662,-1.79419 1.19355,-2.47816 2.91521,-2.49133c0.28759,-0.0022 2.709,0.04506 3.1439,1.07829c0.56358,1.33893 -0.27999,4.99652 0.1677,5.45636" fill="none" stroke="#ff0000" stroke-width="1.5" stroke-linecap="round"/><path d="M570.55557,188.31608c0,0 -0.43984,3.0648 0.0485,4.47818c0.50994,1.47589 1.95964,1.30474 2.48497,1.38783c1.39311,0.22036 2.65646,-0.61533 2.75492,-1.61805c0.4933,-5.02384 0.19178,-17.03817 0.12856,-23.86253c-0.01662,-1.79419 1.19355,-2.47816 2.91521,-2.49133c0.28759,-0.0022 2.709,0.04506 3.1439,1.07829c0.56358,1.33893 -0.27999,4.99652 0.1677,5.45636" fill="none" stroke="#ff0000" stroke-width="1.5" stroke-linecap="round"/><path d="M549.48889,188.31608c0,0 -0.43984,3.0648 0.0485,4.47818c0.50994,1.47589 1.95964,1.30474 2.48497,1.38783c1.39311,0.22036 2.65647,-0.61533 2.75493,-1.61805c0.4933,-5.02384 0.19178,-17.03817 0.12856,-23.86253c-0.01662,-1.79419 1.19355,-2.47816 2.91521,-2.49133c0.2876,-0.0022 2.709,0.04506 3.1439,1.07829c0.56358,1.33893 -0.27998,4.99652 0.16771,5.45636" fill="none" stroke="#ff0000" stroke-width="1.5" stroke-linecap="round"/><path d="M582.00005,187.98275c0,0 -0.43984,3.0648 0.0485,4.47818c0.50994,1.47588 1.95964,1.30474 2.48497,1.38783c1.39311,0.22036 2.65646,-0.61533 2.75492,-1.61805c0.4933,-5.02384 0.19178,-17.03817 0.12856,-23.86253c-0.01662,-1.79419 1.19355,-2.47816 2.91521,-2.49133c0.28759,-0.0022 2.709,0.04506 3.1439,1.07829c0.56358,1.33893 -0.27999,4.99652 0.1677,5.45636" fill="none" stroke="#ff0000" stroke-width="1.5" stroke-linecap="round"/><path d="M591.60006,187.98275c0,0 -0.43984,3.0648 0.0485,4.47818c0.50993,1.47588 1.95964,1.30474 2.48497,1.38783c1.39311,0.22036 2.65646,-0.61533 2.75492,-1.61805c0.4933,-5.02384 0.19178,-17.03817 0.12856,-23.86253c-0.01662,-1.79419 1.19355,-2.47816 2.91521,-2.49133c0.28759,-0.0022 2.709,0.04506 3.1439,1.07829c0.56358,1.33893 -0.27999,4.99652 0.1677,5.45636" fill="none" stroke="#ff0000" stroke-width="1.5" stroke-linecap="round"/><path d="M601.90005,187.98275c0,0 -0.43984,3.0648 0.0485,4.47818c0.50994,1.47588 1.95964,1.30474 2.48497,1.38783c1.39311,0.22036 2.65646,-0.61533 2.75492,-1.61805c0.49331,-5.02384 0.19179,-17.03817 0.12857,-23.86253c-0.01662,-1.79419 1.19354,-2.47816 2.9152,-2.49133c0.28759,-0.0022 2.709,0.04506 3.1439,1.07829c0.56358,1.33893 -0.27998,4.99652 0.16771,5.45636" fill="none" stroke="#ff0000" stroke-width="1.5" stroke-linecap="round"/><path d="M612.6667,187.98275c0,0 -0.43984,3.0648 0.0485,4.47818c0.50994,1.47588 1.95964,1.30474 2.48497,1.38783c1.39311,0.22036 2.65647,-0.61533 2.75493,-1.61805c0.4933,-5.02384 0.19178,-17.03817 0.12856,-23.86253c-0.01662,-1.79419 1.19355,-2.47816 2.91521,-2.49133c0.2876,-0.0022 2.709,0.04506 3.1439,1.07829c0.56358,1.33893 -0.27998,4.99652 0.16771,5.45636" fill="none" stroke="#ff0000" stroke-width="1.5" stroke-linecap="round"/><path d="M591.60006,187.98275c0,0 -0.43984,3.0648 0.0485,4.47818c0.50993,1.47588 1.95964,1.30474 2.48497,1.38783c1.39311,0.22036 2.65646,-0.61533 2.75492,-1.61805c0.4933,-5.02384 0.19178,-17.03817 0.12856,-23.86253c-0.01662,-1.79419 1.19355,-2.47816 2.91521,-2.49133c0.28759,-0.0022 2.709,0.04506 3.1439,1.07829c0.56358,1.33893 -0.27999,4.99652 0.1677,5.45636" fill="none" stroke="#ff0000" stroke-width="1.5" stroke-linecap="round"/><path d="M623.6667,188.31608c0,0 -0.43984,3.0648 0.0485,4.47818c0.50994,1.47589 1.95964,1.30474 2.48497,1.38783c1.39311,0.22036 2.65647,-0.61533 2.75493,-1.61805c0.4933,-5.02384 0.19178,-17.03817 0.12856,-23.86253c-0.01662,-1.79419 1.19355,-2.47816 2.91521,-2.49133c0.2876,-0.0022 2.709,0.04506 3.1439,1.07829c0.56358,1.33893 -0.27998,4.99652 0.16771,5.45636" fill="none" stroke="#ff0000" stroke-width="1.5" stroke-linecap="round"/><path d="M633.26672,188.31608c0,0 -0.43984,3.0648 0.0485,4.47818c0.50994,1.47589 1.95964,1.30474 2.48497,1.38783c1.39311,0.22036 2.65646,-0.61533 2.75492,-1.61805c0.4933,-5.02384 0.19178,-17.03817 0.12856,-23.86253c-0.01662,-1.79419 1.19355,-2.47816 2.91521,-2.49133c0.28759,-0.0022 2.709,0.04506 3.1439,1.07829c0.56358,1.33893 -0.27999,4.99652 0.1677,5.45636" fill="none" stroke="#ff0000" stroke-width="1.5" stroke-linecap="round"/><path d="M643.5667,188.31608c0,0 -0.43984,3.0648 0.0485,4.47818c0.50994,1.47589 1.95964,1.30474 2.48497,1.38783c1.39311,0.22036 2.65647,-0.61533 2.75493,-1.61805c0.4933,-5.02384 0.19178,-17.03817 0.12856,-23.86253c-0.01662,-1.79419 1.19355,-2.47816 2.91521,-2.49133c0.28759,-0.0022 2.709,0.04506 3.1439,1.07829c0.56358,1.33893 -0.27999,4.99652 0.1677,5.45636" fill="none" stroke="#ff0000" stroke-width="1.5" stroke-linecap="round"/><path d="M654.33337,188.31608c0,0 -0.43984,3.0648 0.0485,4.47818c0.50994,1.47589 1.95964,1.30474 2.48497,1.38783c1.39311,0.22036 2.65647,-0.61533 2.75493,-1.61805c0.4933,-5.02384 0.19178,-17.03817 0.12856,-23.86253c-0.01662,-1.79419 1.19355,-2.47816 2.91521,-2.49133c0.28759,-0.0022 2.709,0.04506 3.1439,1.07829c0.56358,1.33893 -0.27999,4.99652 0.1677,5.45636" fill="none" stroke="#ff0000" stroke-width="1.5" stroke-linecap="round"/><path d="M633.26672,188.31608c0,0 -0.43984,3.0648 0.0485,4.47818c0.50994,1.47589 1.95964,1.30474 2.48497,1.38783c1.39311,0.22036 2.65646,-0.61533 2.75492,-1.61805c0.4933,-5.02384 0.19178,-17.03817 0.12856,-23.86253c-0.01662,-1.79419 1.19355,-2.47816 2.91521,-2.49133c0.28759,-0.0022 2.709,0.04506 3.1439,1.07829c0.56358,1.33893 -0.27999,4.99652 0.1677,5.45636" fill="none" stroke="#ff0000" stroke-width="1.5" stroke-linecap="round"/><path d="M582.00005,187.98275c0,0 -0.43984,3.0648 0.0485,4.47818c0.50994,1.47588 1.95964,1.30474 2.48497,1.38783c1.39311,0.22036 2.65646,-0.61533 2.75492,-1.61805c0.4933,-5.02384 0.19178,-17.03817 0.12856,-23.86253c-0.01662,-1.79419 1.19355,-2.47816 2.91521,-2.49133c0.28759,-0.0022 2.709,0.04506 3.1439,1.07829c0.56358,1.33893 -0.27999,4.99652 0.1677,5.45636" fill="none" stroke="#ff0000" stroke-width="1.5" stroke-linecap="round"/><path d="M591.60006,187.98275c0,0 -0.43984,3.0648 0.0485,4.47818c0.50993,1.47588 1.95964,1.30474 2.48497,1.38783c1.39311,0.22036 2.65646,-0.61533 2.75492,-1.61805c0.4933,-5.02384 0.19178,-17.03817 0.12856,-23.86253c-0.01662,-1.79419 1.19355,-2.47816 2.91521,-2.49133c0.28759,-0.0022 2.709,0.04506 3.1439,1.07829c0.56358,1.33893 -0.27999,4.99652 0.1677,5.45636" fill="none" stroke="#ff0000" stroke-width="1.5" stroke-linecap="round"/><path d="M601.90005,187.98275c0,0 -0.43984,3.0648 0.0485,4.47818c0.50994,1.47588 1.95964,1.30474 2.48497,1.38783c1.39311,0.22036 2.65646,-0.61533 2.75492,-1.61805c0.49331,-5.02384 0.19179,-17.03817 0.12857,-23.86253c-0.01662,-1.79419 1.19354,-2.47816 2.9152,-2.49133c0.28759,-0.0022 2.709,0.04506 3.1439,1.07829c0.56358,1.33893 -0.27998,4.99652 0.16771,5.45636" fill="none" stroke="#ff0000" stroke-width="1.5" stroke-linecap="round"/><path d="M612.6667,187.98275c0,0 -0.43984,3.0648 0.0485,4.47818c0.50994,1.47588 1.95964,1.30474 2.48497,1.38783c1.39311,0.22036 2.65647,-0.61533 2.75493,-1.61805c0.4933,-5.02384 0.19178,-17.03817 0.12856,-23.86253c-0.01662,-1.79419 1.19355,-2.47816 2.91521,-2.49133c0.2876,-0.0022 2.709,0.04506 3.1439,1.07829c0.56358,1.33893 -0.27998,4.99652 0.16771,5.45636" fill="none" stroke="#ff0000" stroke-width="1.5" stroke-linecap="round"/><path d="M591.60006,187.98275c0,0 -0.43984,3.0648 0.0485,4.47818c0.50993,1.47588 1.95964,1.30474 2.48497,1.38783c1.39311,0.22036 2.65646,-0.61533 2.75492,-1.61805c0.4933,-5.02384 0.19178,-17.03817 0.12856,-23.86253c-0.01662,-1.79419 1.19355,-2.47816 2.91521,-2.49133c0.28759,-0.0022 2.709,0.04506 3.1439,1.07829c0.56358,1.33893 -0.27999,4.99652 0.1677,5.45636" fill="none" stroke="#ff0000" stroke-width="1.5" stroke-linecap="round"/><path d="M623.6667,188.31608c0,0 -0.43984,3.0648 0.0485,4.47818c0.50994,1.47589 1.95964,1.30474 2.48497,1.38783c1.39311,0.22036 2.65647,-0.61533 2.75493,-1.61805c0.4933,-5.02384 0.19178,-17.03817 0.12856,-23.86253c-0.01662,-1.79419 1.19355,-2.47816 2.91521,-2.49133c0.2876,-0.0022 2.709,0.04506 3.1439,1.07829c0.56358,1.33893 -0.27998,4.99652 0.16771,5.45636" fill="none" stroke="#ff0000" stroke-width="1.5" stroke-linecap="round"/><path d="M633.26672,188.31608c0,0 -0.43984,3.0648 0.0485,4.47818c0.50994,1.47589 1.95964,1.30474 2.48497,1.38783c1.39311,0.22036 2.65646,-0.61533 2.75492,-1.61805c0.4933,-5.02384 0.19178,-17.03817 0.12856,-23.86253c-0.01662,-1.79419 1.19355,-2.47816 2.91521,-2.49133c0.28759,-0.0022 2.709,0.04506 3.1439,1.07829c0.56358,1.33893 -0.27999,4.99652 0.1677,5.45636" fill="none" stroke="#ff0000" stroke-width="1.5" stroke-linecap="round"/><path d="M643.5667,188.31608c0,0 -0.43984,3.0648 0.0485,4.47818c0.50994,1.47589 1.95964,1.30474 2.48497,1.38783c1.39311,0.22036 2.65647,-0.61533 2.75493,-1.61805c0.4933,-5.02384 0.19178,-17.03817 0.12856,-23.86253c-0.01662,-1.79419 1.19355,-2.47816 2.91521,-2.49133c0.28759,-0.0022 2.709,0.04506 3.1439,1.07829c0.56358,1.33893 -0.27999,4.99652 0.1677,5.45636" fill="none" stroke="#ff0000" stroke-width="1.5" stroke-linecap="round"/><path d="M654.33337,188.31608c0,0 -0.43984,3.0648 0.0485,4.47818c0.50994,1.47589 1.95964,1.30474 2.48497,1.38783c1.39311,0.22036 2.65647,-0.61533 2.75493,-1.61805c0.4933,-5.02384 0.19178,-17.03817 0.12856,-23.86253c-0.01662,-1.79419 1.19355,-2.47816 2.91521,-2.49133c0.28759,-0.0022 2.709,0.04506 3.1439,1.07829c0.56358,1.33893 -0.27999,4.99652 0.1677,5.45636" fill="none" stroke="#ff0000" stroke-width="1.5" stroke-linecap="round"/><path d="M633.26672,188.31608c0,0 -0.43984,3.0648 0.0485,4.47818c0.50994,1.47589 1.95964,1.30474 2.48497,1.38783c1.39311,0.22036 2.65646,-0.61533 2.75492,-1.61805c0.4933,-5.02384 0.19178,-17.03817 0.12856,-23.86253c-0.01662,-1.79419 1.19355,-2.47816 2.91521,-2.49133c0.28759,-0.0022 2.709,0.04506 3.1439,1.07829c0.56358,1.33893 -0.27999,4.99652 0.1677,5.45636" fill="none" stroke="#ff0000" stroke-width="1.5" stroke-linecap="round"/><path d="M666.00006,188.31608c0,0 -0.43984,3.0648 0.0485,4.47818c0.50994,1.47589 1.95964,1.30474 2.48497,1.38783c1.39311,0.22036 2.65646,-0.61533 2.75492,-1.61805c0.4933,-5.02384 0.19178,-17.03817 0.12856,-23.86253c-0.01662,-1.79419 1.19355,-2.47816 2.91521,-2.49133c0.28759,-0.0022 2.709,0.04506 3.1439,1.07829c0.56358,1.33893 -0.27999,4.99652 0.1677,5.45636" fill="none" stroke="#ff0000" stroke-width="1.5" stroke-linecap="round"/><path d="M675.60006,188.31608c0,0 -0.43984,3.0648 0.0485,4.47818c0.50993,1.47589 1.95964,1.30474 2.48497,1.38783c1.39311,0.22036 2.65646,-0.61533 2.75492,-1.61805c0.4933,-5.02384 0.19178,-17.03817 0.12856,-23.86253c-0.01662,-1.79419 1.19355,-2.47816 2.91521,-2.49133c0.28759,-0.0022 2.709,0.04506 3.1439,1.07829c0.56358,1.33893 -0.27999,4.99652 0.1677,5.45636" fill="none" stroke="#ff0000" stroke-width="1.5" stroke-linecap="round"/><path d="M685.90005,188.31608c0,0 -0.43984,3.0648 0.0485,4.47818c0.50994,1.47589 1.95964,1.30474 2.48497,1.38783c1.39311,0.22036 2.65646,-0.61533 2.75492,-1.61805c0.49331,-5.02384 0.19179,-17.03817 0.12857,-23.86253c-0.01662,-1.79419 1.19354,-2.47816 2.9152,-2.49133c0.28759,-0.0022 2.709,0.04506 3.1439,1.07829c0.56358,1.33893 -0.27998,4.99652 0.16771,5.45636" fill="none" stroke="#ff0000" stroke-width="1.5" stroke-linecap="round"/><path d="M696.6667,188.31608c0,0 -0.43984,3.0648 0.0485,4.47818c0.50994,1.47589 1.95964,1.30474 2.48497,1.38783c1.39311,0.22036 2.65647,-0.61533 2.75493,-1.61805c0.4933,-5.02384 0.19178,-17.03817 0.12856,-23.86253c-0.01662,-1.79419 1.19355,-2.47816 2.91521,-2.49133c0.2876,-0.0022 2.709,0.04506 3.1439,1.07829c0.56358,1.33893 -0.27998,4.99652 0.16771,5.45636" fill="none" stroke="#ff0000" stroke-width="1.5" stroke-linecap="round"/><path d="M675.60006,188.31608c0,0 -0.43984,3.0648 0.0485,4.47818c0.50993,1.47589 1.95964,1.30474 2.48497,1.38783c1.39311,0.22036 2.65646,-0.61533 2.75492,-1.61805c0.4933,-5.02384 0.19178,-17.03817 0.12856,-23.86253c-0.01662,-1.79419 1.19355,-2.47816 2.91521,-2.49133c0.28759,-0.0022 2.709,0.04506 3.1439,1.07829c0.56358,1.33893 -0.27999,4.99652 0.1677,5.45636" fill="none" stroke="#ff0000" stroke-width="1.5" stroke-linecap="round"/><path d="M707.6667,188.64942c0,0 -0.43984,3.0648 0.0485,4.47818c0.50994,1.47589 1.95964,1.30474 2.48497,1.38783c1.39311,0.22036 2.65647,-0.61533 2.75493,-1.61805c0.4933,-5.02384 0.19178,-17.03817 0.12856,-23.86253c-0.01662,-1.7942 1.19355,-2.47816 2.91521,-2.49133c0.2876,-0.0022 2.709,0.04506 3.1439,1.07829c0.56358,1.33893 -0.27998,4.99652 0.16771,5.45636" fill="none" stroke="#ff0000" stroke-width="1.5" stroke-linecap="round"/><path d="M717.26672,188.64942c0,0 -0.43984,3.0648 0.0485,4.47818c0.50994,1.47589 1.95964,1.30474 2.48497,1.38783c1.39311,0.22036 2.65646,-0.61533 2.75492,-1.61805c0.4933,-5.02384 0.19178,-17.03817 0.12856,-23.86253c-0.01662,-1.7942 1.19355,-2.47816 2.91521,-2.49133c0.28759,-0.0022 2.709,0.04506 3.1439,1.07829c0.56358,1.33893 -0.27999,4.99652 0.1677,5.45636" fill="none" stroke="#ff0000" stroke-width="1.5" stroke-linecap="round"/><path d="M727.56671,188.64942c0,0 -0.43984,3.0648 0.0485,4.47818c0.50994,1.47589 1.95964,1.30474 2.48497,1.38783c1.39311,0.22036 2.65647,-0.61533 2.75493,-1.61805c0.4933,-5.02384 0.19178,-17.03817 0.12856,-23.86253c-0.01662,-1.7942 1.19355,-2.47816 2.91521,-2.49133c0.28759,-0.0022 2.709,0.04506 3.1439,1.07829c0.56358,1.33893 -0.27999,4.99652 0.1677,5.45636" fill="none" stroke="#ff0000" stroke-width="1.5" stroke-linecap="round"/><path d="M738.33338,188.64942c0,0 -0.43984,3.0648 0.0485,4.47818c0.50994,1.47589 1.95964,1.30474 2.48497,1.38783c1.39311,0.22036 2.65647,-0.61533 2.75493,-1.61805c0.4933,-5.02384 0.19178,-17.03817 0.12856,-23.86253c-0.01662,-1.7942 1.19355,-2.47816 2.91521,-2.49133c0.28759,-0.0022 2.709,0.04506 3.1439,1.07829c0.56358,1.33893 -0.27999,4.99652 0.1677,5.45636" fill="none" stroke="#ff0000" stroke-width="1.5" stroke-linecap="round"/><path d="M717.26672,188.64942c0,0 -0.43984,3.0648 0.0485,4.47818c0.50994,1.47589 1.95964,1.30474 2.48497,1.38783c1.39311,0.22036 2.65646,-0.61533 2.75492,-1.61805c0.4933,-5.02384 0.19178,-17.03817 0.12856,-23.86253c-0.01662,-1.7942 1.19355,-2.47816 2.91521,-2.49133c0.28759,-0.0022 2.709,0.04506 3.1439,1.07829c0.56358,1.33893 -0.27999,4.99652 0.1677,5.45636" fill="none" stroke="#ff0000" stroke-width="1.5" stroke-linecap="round"/><path d="M750.33339,187.64941c0,0 -0.43984,3.0648 0.0485,4.47818c0.50993,1.47588 1.95964,1.30474 2.48497,1.38783c1.39311,0.22036 2.65646,-0.61533 2.75492,-1.61805c0.4933,-5.02384 0.19178,-17.03817 0.12856,-23.86253c-0.01662,-1.79419 1.19355,-2.47816 2.91521,-2.49133c0.28759,-0.0022 2.709,0.04506 3.1439,1.07829c0.56358,1.33893 -0.27999,4.99652 0.1677,5.45636" fill="none" stroke="#ff0000" stroke-width="1.5" stroke-linecap="round"/><path d="M759.93338,187.64941c0,0 -0.43984,3.0648 0.0485,4.47818c0.50994,1.47588 1.95964,1.30474 2.48497,1.38783c1.39311,0.22036 2.65647,-0.61533 2.75493,-1.61805c0.4933,-5.02384 0.19178,-17.03817 0.12856,-23.86253c-0.01662,-1.79419 1.19355,-2.47816 2.91521,-2.49133c0.28759,-0.0022 2.709,0.04506 3.1439,1.07829c0.56358,1.33893 -0.27999,4.99652 0.1677,5.45636" fill="none" stroke="#ff0000" stroke-width="1.5" stroke-linecap="round"/><path d="M770.23339,187.64941c0,0 -0.43984,3.0648 0.0485,4.47818c0.50994,1.47588 1.95964,1.30474 2.48497,1.38783c1.39311,0.22036 2.65646,-0.61533 2.75492,-1.61805c0.4933,-5.02384 0.19178,-17.03817 0.12856,-23.86253c-0.01662,-1.79419 1.19355,-2.47816 2.91521,-2.49133c0.28759,-0.0022 2.709,0.04506 3.1439,1.07829c0.56358,1.33893 -0.27999,4.99652 0.1677,5.45636" fill="none" stroke="#ff0000" stroke-width="1.5" stroke-linecap="round"/><path d="M781.00006,187.64941c0,0 -0.43984,3.0648 0.0485,4.47818c0.50994,1.47588 1.95964,1.30474 2.48497,1.38783c1.39311,0.22036 2.65646,-0.61533 2.75492,-1.61805c0.4933,-5.02384 0.19178,-17.03817 0.12856,-23.86253c-0.01662,-1.79419 1.19355,-2.47816 2.91521,-2.49133c0.28759,-0.0022 2.709,0.04506 3.1439,1.07829c0.56358,1.33893 -0.27999,4.99652 0.1677,5.45636" fill="none" stroke="#ff0000" stroke-width="1.5" stroke-linecap="round"/><path d="M759.93338,187.64941c0,0 -0.43984,3.0648 0.0485,4.47818c0.50994,1.47588 1.95964,1.30474 2.48497,1.38783c1.39311,0.22036 2.65647,-0.61533 2.75493,-1.61805c0.4933,-5.02384 0.19178,-17.03817 0.12856,-23.86253c-0.01662,-1.79419 1.19355,-2.47816 2.91521,-2.49133c0.28759,-0.0022 2.709,0.04506 3.1439,1.07829c0.56358,1.33893 -0.27999,4.99652 0.1677,5.45636" fill="none" stroke="#ff0000" stroke-width="1.5" stroke-linecap="round"/><path d="M792.00006,187.98275c0,0 -0.43984,3.0648 0.0485,4.47818c0.50994,1.47588 1.95964,1.30474 2.48497,1.38783c1.39311,0.22036 2.65646,-0.61533 2.75492,-1.61805c0.4933,-5.02384 0.19178,-17.03817 0.12856,-23.86253c-0.01662,-1.79419 1.19355,-2.47816 2.91521,-2.49133c0.28759,-0.0022 2.709,0.04506 3.1439,1.07829c0.56358,1.33893 -0.27999,4.99652 0.1677,5.45636" fill="none" stroke="#ff0000" stroke-width="1.5" stroke-linecap="round"/><path d="M801.60006,187.98275c0,0 -0.43984,3.0648 0.0485,4.47818c0.50993,1.47588 1.95964,1.30474 2.48497,1.38783c1.39311,0.22036 2.65646,-0.61533 2.75492,-1.61805c0.4933,-5.02384 0.19178,-17.03817 0.12856,-23.86253c-0.01662,-1.79419 1.19355,-2.47816 2.91521,-2.49133c0.28759,-0.0022 2.709,0.04506 3.1439,1.07829c0.56358,1.33893 -0.27999,4.99652 0.1677,5.45636" fill="none" stroke="#ff0000" stroke-width="1.5" stroke-linecap="round"/><path d="M811.90005,187.98275c0,0 -0.43984,3.0648 0.0485,4.47818c0.50994,1.47588 1.95964,1.30474 2.48497,1.38783c1.39311,0.22036 2.65646,-0.61533 2.75492,-1.61805c0.49331,-5.02384 0.19179,-17.03817 0.12857,-23.86253c-0.01662,-1.79419 1.19354,-2.47816 2.9152,-2.49133c0.28759,-0.0022 2.709,0.04506 3.1439,1.07829c0.56358,1.33893 -0.27998,4.99652 0.16771,5.45636" fill="none" stroke="#ff0000" stroke-width="1.5" stroke-linecap="round"/><path d="M822.6667,187.98275c0,0 -0.43984,3.0648 0.0485,4.47818c0.50994,1.47588 1.95964,1.30474 2.48497,1.38783c1.39311,0.22036 2.65647,-0.61533 2.75493,-1.61805c0.4933,-5.02384 0.19178,-17.03817 0.12856,-23.86253c-0.01662,-1.79419 1.19355,-2.47816 2.91521,-2.49133c0.2876,-0.0022 2.709,0.04506 3.1439,1.07829c0.56358,1.33893 -0.27998,4.99652 0.16771,5.45636" fill="none" stroke="#ff0000" stroke-width="1.5" stroke-linecap="round"/><path d="M801.60006,187.98275c0,0 -0.43984,3.0648 0.0485,4.47818c0.50993,1.47588 1.95964,1.30474 2.48497,1.38783c1.39311,0.22036 2.65646,-0.61533 2.75492,-1.61805c0.4933,-5.02384 0.19178,-17.03817 0.12856,-23.86253c-0.01662,-1.79419 1.19355,-2.47816 2.91521,-2.49133c0.28759,-0.0022 2.709,0.04506 3.1439,1.07829c0.56358,1.33893 -0.27999,4.99652 0.1677,5.45636" fill="none" stroke="#ff0000" stroke-width="1.5" stroke-linecap="round"/><path d="M750.33339,187.64941c0,0 -0.43984,3.0648 0.0485,4.47818c0.50993,1.47588 1.95964,1.30474 2.48497,1.38783c1.39311,0.22036 2.65646,-0.61533 2.75492,-1.61805c0.4933,-5.02384 0.19178,-17.03817 0.12856,-23.86253c-0.01662,-1.79419 1.19355,-2.47816 2.91521,-2.49133c0.28759,-0.0022 2.709,0.04506 3.1439,1.07829c0.56358,1.33893 -0.27999,4.99652 0.1677,5.45636" fill="none" stroke="#ff0000" stroke-width="1.5" stroke-linecap="round"/><path d="M759.93338,187.64941c0,0 -0.43984,3.0648 0.0485,4.47818c0.50994,1.47588 1.95964,1.30474 2.48497,1.38783c1.39311,0.22036 2.65647,-0.61533 2.75493,-1.61805c0.4933,-5.02384 0.19178,-17.03817 0.12856,-23.86253c-0.01662,-1.79419 1.19355,-2.47816 2.91521,-2.49133c0.28759,-0.0022 2.709,0.04506 3.1439,1.07829c0.56358,1.33893 -0.27999,4.99652 0.1677,5.45636" fill="none" stroke="#ff0000" stroke-width="1.5" stroke-linecap="round"/><path d="M770.23339,187.64941c0,0 -0.43984,3.0648 0.0485,4.47818c0.50994,1.47588 1.95964,1.30474 2.48497,1.38783c1.39311,0.22036 2.65646,-0.61533 2.75492,-1.61805c0.4933,-5.02384 0.19178,-17.03817 0.12856,-23.86253c-0.01662,-1.79419 1.19355,-2.47816 2.91521,-2.49133c0.28759,-0.0022 2.709,0.04506 3.1439,1.07829c0.56358,1.33893 -0.27999,4.99652 0.1677,5.45636" fill="none" stroke="#ff0000" stroke-width="1.5" stroke-linecap="round"/><path d="M781.00006,187.64941c0,0 -0.43984,3.0648 0.0485,4.47818c0.50994,1.47588 1.95964,1.30474 2.48497,1.38783c1.39311,0.22036 2.65646,-0.61533 2.75492,-1.61805c0.4933,-5.02384 0.19178,-17.03817 0.12856,-23.86253c-0.01662,-1.79419 1.19355,-2.47816 2.91521,-2.49133c0.28759,-0.0022 2.709,0.04506 3.1439,1.07829c0.56358,1.33893 -0.27999,4.99652 0.1677,5.45636" fill="none" stroke="#ff0000" stroke-width="1.5" stroke-linecap="round"/><path d="M759.93338,187.64941c0,0 -0.43984,3.0648 0.0485,4.47818c0.50994,1.47588 1.95964,1.30474 2.48497,1.38783c1.39311,0.22036 2.65647,-0.61533 2.75493,-1.61805c0.4933,-5.02384 0.19178,-17.03817 0.12856,-23.86253c-0.01662,-1.79419 1.19355,-2.47816 2.91521,-2.49133c0.28759,-0.0022 2.709,0.04506 3.1439,1.07829c0.56358,1.33893 -0.27999,4.99652 0.1677,5.45636" fill="none" stroke="#ff0000" stroke-width="1.5" stroke-linecap="round"/><path d="M792.00006,187.98275c0,0 -0.43984,3.0648 0.0485,4.47818c0.50994,1.47588 1.95964,1.30474 2.48497,1.38783c1.39311,0.22036 2.65646,-0.61533 2.75492,-1.61805c0.4933,-5.02384 0.19178,-17.03817 0.12856,-23.86253c-0.01662,-1.79419 1.19355,-2.47816 2.91521,-2.49133c0.28759,-0.0022 2.709,0.04506 3.1439,1.07829c0.56358,1.33893 -0.27999,4.99652 0.1677,5.45636" fill="none" stroke="#ff0000" stroke-width="1.5" stroke-linecap="round"/><path d="M801.60006,187.98275c0,0 -0.43984,3.0648 0.0485,4.47818c0.50993,1.47588 1.95964,1.30474 2.48497,1.38783c1.39311,0.22036 2.65646,-0.61533 2.75492,-1.61805c0.4933,-5.02384 0.19178,-17.03817 0.12856,-23.86253c-0.01662,-1.79419 1.19355,-2.47816 2.91521,-2.49133c0.28759,-0.0022 2.709,0.04506 3.1439,1.07829c0.56358,1.33893 -0.27999,4.99652 0.1677,5.45636" fill="none" stroke="#ff0000" stroke-width="1.5" stroke-linecap="round"/><path d="M811.90005,187.98275c0,0 -0.43984,3.0648 0.0485,4.47818c0.50994,1.47588 1.95964,1.30474 2.48497,1.38783c1.39311,0.22036 2.65646,-0.61533 2.75492,-1.61805c0.49331,-5.02384 0.19179,-17.03817 0.12857,-23.86253c-0.01662,-1.79419 1.19354,-2.47816 2.9152,-2.49133c0.28759,-0.0022 2.709,0.04506 3.1439,1.07829c0.56358,1.33893 -0.27998,4.99652 0.16771,5.45636" fill="none" stroke="#ff0000" stroke-width="1.5" stroke-linecap="round"/><path d="M822.6667,187.98275c0,0 -0.43984,3.0648 0.0485,4.47818c0.50994,1.47588 1.95964,1.30474 2.48497,1.38783c1.39311,0.22036 2.65647,-0.61533 2.75493,-1.61805c0.4933,-5.02384 0.19178,-17.03817 0.12856,-23.86253c-0.01662,-1.79419 1.19355,-2.47816 2.91521,-2.49133c0.2876,-0.0022 2.709,0.04506 3.1439,1.07829c0.56358,1.33893 -0.27998,4.99652 0.16771,5.45636" fill="none" stroke="#ff0000" stroke-width="1.5" stroke-linecap="round"/><path d="M801.60006,187.98275c0,0 -0.43984,3.0648 0.0485,4.47818c0.50993,1.47588 1.95964,1.30474 2.48497,1.38783c1.39311,0.22036 2.65646,-0.61533 2.75492,-1.61805c0.4933,-5.02384 0.19178,-17.03817 0.12856,-23.86253c-0.01662,-1.79419 1.19355,-2.47816 2.91521,-2.49133c0.28759,-0.0022 2.709,0.04506 3.1439,1.07829c0.56358,1.33893 -0.27999,4.99652 0.1677,5.45636" fill="none" stroke="#ff0000" stroke-width="1.5" stroke-linecap="round"/><path d="M834.33339,187.98275c0,0 -0.43984,3.0648 0.0485,4.47818c0.50993,1.47588 1.95964,1.30474 2.48497,1.38783c1.39311,0.22036 2.65646,-0.61533 2.75492,-1.61805c0.4933,-5.02384 0.19178,-17.03817 0.12856,-23.86253c-0.01662,-1.79419 1.19355,-2.47816 2.91521,-2.49133c0.28759,-0.0022 2.709,0.04506 3.1439,1.07829c0.56358,1.33893 -0.27999,4.99652 0.1677,5.45636" fill="none" stroke="#ff0000" stroke-width="1.5" stroke-linecap="round"/><path d="M843.93338,187.98275c0,0 -0.43984,3.0648 0.0485,4.47818c0.50994,1.47588 1.95964,1.30474 2.48497,1.38783c1.39311,0.22036 2.65647,-0.61533 2.75493,-1.61805c0.4933,-5.02384 0.19178,-17.03817 0.12856,-23.86253c-0.01662,-1.79419 1.19355,-2.47816 2.91521,-2.49133c0.28759,-0.0022 2.709,0.04506 3.1439,1.07829c0.56358,1.33893 -0.27999,4.99652 0.1677,5.45636" fill="none" stroke="#ff0000" stroke-width="1.5" stroke-linecap="round"/><path d="M854.23339,187.98275c0,0 -0.43984,3.0648 0.0485,4.47818c0.50994,1.47588 1.95964,1.30474 2.48497,1.38783c1.39311,0.22036 2.65646,-0.61533 2.75492,-1.61805c0.4933,-5.02384 0.19178,-17.03817 0.12856,-23.86253c-0.01662,-1.79419 1.19355,-2.47816 2.91521,-2.49133c0.28759,-0.0022 2.709,0.04506 3.1439,1.07829c0.56358,1.33893 -0.27999,4.99652 0.1677,5.45636" fill="none" stroke="#ff0000" stroke-width="1.5" stroke-linecap="round"/><path d="M865.00006,187.98275c0,0 -0.43984,3.0648 0.0485,4.47818c0.50994,1.47588 1.95964,1.30474 2.48497,1.38783c1.39311,0.22036 2.65646,-0.61533 2.75492,-1.61805c0.4933,-5.02384 0.19178,-17.03817 0.12856,-23.86253c-0.01662,-1.79419 1.19355,-2.47816 2.91521,-2.49133c0.28759,-0.0022 2.709,0.04506 3.1439,1.07829c0.56358,1.33893 -0.27999,4.99652 0.1677,5.45636" fill="none" stroke="#ff0000" stroke-width="1.5" stroke-linecap="round"/><path d="M843.93338,187.98275c0,0 -0.43984,3.0648 0.0485,4.47818c0.50994,1.47588 1.95964,1.30474 2.48497,1.38783c1.39311,0.22036 2.65647,-0.61533 2.75493,-1.61805c0.4933,-5.02384 0.19178,-17.03817 0.12856,-23.86253c-0.01662,-1.79419 1.19355,-2.47816 2.91521,-2.49133c0.28759,-0.0022 2.709,0.04506 3.1439,1.07829c0.56358,1.33893 -0.27999,4.99652 0.1677,5.45636" fill="none" stroke="#ff0000" stroke-width="1.5" stroke-linecap="round"/><path d="M876.00006,188.31608c0,0 -0.43984,3.0648 0.0485,4.47818c0.50994,1.47589 1.95964,1.30474 2.48497,1.38783c1.39311,0.22036 2.65646,-0.61533 2.75492,-1.61805c0.4933,-5.02384 0.19178,-17.03817 0.12856,-23.86253c-0.01662,-1.79419 1.19355,-2.47816 2.91521,-2.49133c0.28759,-0.0022 2.709,0.04506 3.1439,1.07829c0.56358,1.33893 -0.27999,4.99652 0.1677,5.45636" fill="none" stroke="#ff0000" stroke-width="1.5" stroke-linecap="round"/><path d="M885.60006,188.31608c0,0 -0.43984,3.0648 0.0485,4.47818c0.50993,1.47589 1.95964,1.30474 2.48497,1.38783c1.39311,0.22036 2.65646,-0.61533 2.75492,-1.61805c0.4933,-5.02384 0.19178,-17.03817 0.12856,-23.86253c-0.01662,-1.79419 1.19355,-2.47816 2.91521,-2.49133c0.28759,-0.0022 2.709,0.04506 3.1439,1.07829c0.56358,1.33893 -0.27999,4.99652 0.1677,5.45636" fill="none" stroke="#ff0000" stroke-width="1.5" stroke-linecap="round"/><path d="M895.90005,188.31608c0,0 -0.43984,3.0648 0.0485,4.47818c0.50994,1.47589 1.95964,1.30474 2.48497,1.38783c1.39311,0.22036 2.65646,-0.61533 2.75492,-1.61805c0.49331,-5.02384 0.19179,-17.03817 0.12857,-23.86253c-0.01662,-1.79419 1.19354,-2.47816 2.9152,-2.49133c0.28759,-0.0022 2.709,0.04506 3.1439,1.07829c0.56358,1.33893 -0.27998,4.99652 0.16771,5.45636" fill="none" stroke="#ff0000" stroke-width="1.5" stroke-linecap="round"/><path d="M906.6667,188.31608c0,0 -0.43984,3.0648 0.0485,4.47818c0.50994,1.47589 1.95964,1.30474 2.48497,1.38783c1.39311,0.22036 2.65647,-0.61533 2.75493,-1.61805c0.4933,-5.02384 0.19178,-17.03817 0.12856,-23.86253c-0.01662,-1.79419 1.19355,-2.47816 2.91521,-2.49133c0.2876,-0.0022 2.709,0.04506 3.1439,1.07829c0.56358,1.33893 -0.27998,4.99652 0.16771,5.45636" fill="none" stroke="#ff0000" stroke-width="1.5" stroke-linecap="round"/><path d="M885.60006,188.31608c0,0 -0.43984,3.0648 0.0485,4.47818c0.50993,1.47589 1.95964,1.30474 2.48497,1.38783c1.39311,0.22036 2.65646,-0.61533 2.75492,-1.61805c0.4933,-5.02384 0.19178,-17.03817 0.12856,-23.86253c-0.01662,-1.79419 1.19355,-2.47816 2.91521,-2.49133c0.28759,-0.0022 2.709,0.04506 3.1439,1.07829c0.56358,1.33893 -0.27999,4.99652 0.1677,5.45636" fill="none" stroke="#ff0000" stroke-width="1.5" stroke-linecap="round"/><path d="M916.75081,188.31608c0,0 -0.43984,3.0648 0.0485,4.47818c0.50993,1.47589 1.95964,1.30474 2.48497,1.38783c1.39311,0.22036 2.65646,-0.61533 2.75492,-1.61805c0.4933,-5.02384 0.19178,-17.03817 0.12856,-23.86253c-0.01662,-1.79419 1.19355,-2.47816 2.91521,-2.49133c0.28759,-0.0022 2.709,0.04506 3.1439,1.07829c0.56358,1.33893 -0.27999,4.99652 0.1677,5.45636" fill="none" stroke="#ff0000" stroke-width="1.5" stroke-linecap="round"/><path d="M926.35079,188.31608c0,0 -0.43984,3.0648 0.0485,4.47818c0.50994,1.47589 1.95964,1.30474 2.48497,1.38783c1.39311,0.22036 2.65647,-0.61533 2.75493,-1.61805c0.4933,-5.02384 0.19178,-17.03817 0.12856,-23.86253c-0.01662,-1.79419 1.19355,-2.47816 2.91521,-2.49133c0.2876,-0.0022 2.709,0.04506 3.1439,1.07829c0.56358,1.33893 -0.27998,4.99652 0.16771,5.45636" fill="none" stroke="#ff0000" stroke-width="1.5" stroke-linecap="round"/><path d="M936.65082,188.31608c0,0 -0.43985,3.0648 0.04849,4.47818c0.50993,1.47589 1.95964,1.30474 2.48497,1.38783c1.39311,0.22036 2.65646,-0.61533 2.75492,-1.61805c0.4933,-5.02384 0.19178,-17.03817 0.12856,-23.86253c-0.01662,-1.79419 1.19355,-2.47816 2.91521,-2.49133c0.28759,-0.0022 2.709,0.04506 3.1439,1.07829c0.56358,1.33893 -0.27999,4.99652 0.1677,5.45636" fill="none" stroke="#ff0000" stroke-width="1.5" stroke-linecap="round"/><path d="M947.41747,188.31608c0,0 -0.43984,3.0648 0.0485,4.47818c0.50994,1.47589 1.95964,1.30474 2.48497,1.38783c1.39311,0.22036 2.65646,-0.61533 2.75492,-1.61805c0.4933,-5.02384 0.19178,-17.03817 0.12856,-23.86253c-0.01662,-1.79419 1.19355,-2.47816 2.91521,-2.49133c0.28759,-0.0022 2.709,0.04506 3.1439,1.07829c0.56358,1.33893 -0.27999,4.99652 0.1677,5.45636" fill="none" stroke="#ff0000" stroke-width="1.5" stroke-linecap="round"/><path d="M926.35079,188.31608c0,0 -0.43984,3.0648 0.0485,4.47818c0.50994,1.47589 1.95964,1.30474 2.48497,1.38783c1.39311,0.22036 2.65647,-0.61533 2.75493,-1.61805c0.4933,-5.02384 0.19178,-17.03817 0.12856,-23.86253c-0.01662,-1.79419 1.19355,-2.47816 2.91521,-2.49133c0.2876,-0.0022 2.709,0.04506 3.1439,1.07829c0.56358,1.33893 -0.27998,4.99652 0.16771,5.45636" fill="none" stroke="#ff0000" stroke-width="1.5" stroke-linecap="round"/><path d="M958.41747,188.64942c0,0 -0.43984,3.0648 0.0485,4.47818c0.50994,1.47589 1.95964,1.30474 2.48497,1.38783c1.39311,0.22036 2.65646,-0.61533 2.75492,-1.61805c0.4933,-5.02384 0.19178,-17.03817 0.12856,-23.86253c-0.01662,-1.7942 1.19355,-2.47816 2.91521,-2.49133c0.28759,-0.0022 2.709,0.04506 3.1439,1.07829c0.56358,1.33893 -0.27999,4.99652 0.1677,5.45636" fill="none" stroke="#ff0000" stroke-width="1.5" stroke-linecap="round"/><path d="M968.01747,188.64942c0,0 -0.43984,3.0648 0.0485,4.47818c0.50993,1.47589 1.95964,1.30474 2.48497,1.38783c1.39311,0.22036 2.65646,-0.61533 2.75492,-1.61805c0.4933,-5.02384 0.19178,-17.03817 0.12856,-23.86253c-0.01662,-1.7942 1.19355,-2.47816 2.91521,-2.49133c0.28759,-0.0022 2.709,0.04506 3.1439,1.07829c0.56358,1.33893 -0.27999,4.99652 0.1677,5.45636" fill="none" stroke="#ff0000" stroke-width="1.5" stroke-linecap="round"/><path d="M978.31746,188.64942c0,0 -0.43984,3.0648 0.0485,4.47818c0.50994,1.47589 1.95964,1.30474 2.48497,1.38783c1.39311,0.22036 2.65646,-0.61533 2.75492,-1.61805c0.49331,-5.02384 0.19179,-17.03817 0.12857,-23.86253c-0.01662,-1.7942 1.19354,-2.47816 2.9152,-2.49133c0.28759,-0.0022 2.709,0.04506 3.1439,1.07829c0.56358,1.33893 -0.27998,4.99652 0.16771,5.45636" fill="none" stroke="#ff0000" stroke-width="1.5" stroke-linecap="round"/><path d="M989.08412,188.64942c0,0 -0.43984,3.0648 0.0485,4.47818c0.50994,1.47589 1.95964,1.30474 2.48497,1.38783c1.39311,0.22036 2.65646,-0.61533 2.75492,-1.61805c0.49331,-5.02384 0.19179,-17.03817 0.12857,-23.86253c-0.01662,-1.7942 1.19355,-2.47816 2.91521,-2.49133c0.2876,-0.0022 2.709,0.04506 3.1439,1.07829c0.56358,1.33893 -0.27998,4.99652 0.16771,5.45636" fill="none" stroke="#ff0000" stroke-width="1.5" stroke-linecap="round"/><path d="M968.01747,188.64942c0,0 -0.43984,3.0648 0.0485,4.47818c0.50993,1.47589 1.95964,1.30474 2.48497,1.38783c1.39311,0.22036 2.65646,-0.61533 2.75492,-1.61805c0.4933,-5.02384 0.19178,-17.03817 0.12856,-23.86253c-0.01662,-1.7942 1.19355,-2.47816 2.91521,-2.49133c0.28759,-0.0022 2.709,0.04506 3.1439,1.07829c0.56358,1.33893 -0.27999,4.99652 0.1677,5.45636" fill="none" stroke="#ff0000" stroke-width="1.5" stroke-linecap="round"/><path d="M1001.08412,187.64941c0,0 -0.43984,3.0648 0.0485,4.47818c0.50994,1.47588 1.95964,1.30474 2.48497,1.38783c1.39311,0.22036 2.65647,-0.61533 2.75493,-1.61805c0.4933,-5.02384 0.19178,-17.03817 0.12856,-23.86253c-0.01662,-1.79419 1.19355,-2.47816 2.91521,-2.49133c0.2876,-0.0022 2.709,0.04506 3.1439,1.07829c0.56358,1.33893 -0.27998,4.99652 0.16771,5.45636" fill="none" stroke="#ff0000" stroke-width="1.5" stroke-linecap="round"/><path d="M1010.68413,187.64941c0,0 -0.43984,3.0648 0.0485,4.47818c0.50994,1.47588 1.95964,1.30474 2.48497,1.38783c1.39311,0.22036 2.65646,-0.61533 2.75492,-1.61805c0.49331,-5.02384 0.19179,-17.03817 0.12857,-23.86253c-0.01662,-1.79419 1.19354,-2.47816 2.9152,-2.49133c0.28759,-0.0022 2.709,0.04506 3.1439,1.07829c0.56358,1.33893 -0.27998,4.99652 0.16771,5.45636" fill="none" stroke="#ff0000" stroke-width="1.5" stroke-linecap="round"/><path d="M1020.98413,187.64941c0,0 -0.43984,3.0648 0.0485,4.47818c0.50994,1.47588 1.95964,1.30474 2.48497,1.38783c1.39311,0.22036 2.65646,-0.61533 2.75492,-1.61805c0.49331,-5.02384 0.19179,-17.03817 0.12856,-23.86253c-0.01662,-1.79419 1.19355,-2.47816 2.91521,-2.49133c0.28759,-0.0022 2.70899,0.04506 3.1439,1.07829c0.56358,1.33893 -0.27998,4.99652 0.16771,5.45636" fill="none" stroke="#ff0000" stroke-width="1.5" stroke-linecap="round"/><path d="M1031.7508,187.64941c0,0 -0.43984,3.0648 0.0485,4.47818c0.50994,1.47588 1.95964,1.30474 2.48497,1.38783c1.39311,0.22036 2.65646,-0.61533 2.75492,-1.61805c0.49331,-5.02384 0.19179,-17.03817 0.12856,-23.86253c-0.01662,-1.79419 1.19355,-2.47816 2.91521,-2.49133c0.28759,-0.0022 2.70899,0.04506 3.1439,1.07829c0.56358,1.33893 -0.27998,4.99652 0.16771,5.45636" fill="none" stroke="#ff0000" stroke-width="1.5" stroke-linecap="round"/><path d="M1010.68413,187.64941c0,0 -0.43984,3.0648 0.0485,4.47818c0.50994,1.47588 1.95964,1.30474 2.48497,1.38783c1.39311,0.22036 2.65646,-0.61533 2.75492,-1.61805c0.49331,-5.02384 0.19179,-17.03817 0.12857,-23.86253c-0.01662,-1.79419 1.19354,-2.47816 2.9152,-2.49133c0.28759,-0.0022 2.709,0.04506 3.1439,1.07829c0.56358,1.33893 -0.27998,4.99652 0.16771,5.45636" fill="none" stroke="#ff0000" stroke-width="1.5" stroke-linecap="round"/><path d="M1042.7508,187.98275c0,0 -0.43984,3.0648 0.0485,4.47818c0.50994,1.47588 1.95964,1.30474 2.48497,1.38783c1.39311,0.22036 2.65646,-0.61533 2.75492,-1.61805c0.49331,-5.02384 0.19179,-17.03817 0.12856,-23.86253c-0.01662,-1.79419 1.19355,-2.47816 2.91521,-2.49133c0.28759,-0.0022 2.70899,0.04506 3.1439,1.07829c0.56358,1.33893 -0.27998,4.99652 0.16771,5.45636" fill="none" stroke="#ff0000" stroke-width="1.5" stroke-linecap="round"/><path d="M1052.35079,187.98275c0,0 -0.43984,3.0648 0.0485,4.47818c0.50994,1.47588 1.95964,1.30474 2.48497,1.38783c1.39311,0.22036 2.65646,-0.61533 2.75492,-1.61805c0.49331,-5.02384 0.19179,-17.03817 0.12856,-23.86253c-0.01662,-1.79419 1.19355,-2.47816 2.91521,-2.49133c0.28759,-0.0022 2.70899,0.04506 3.1439,1.07829c0.56358,1.33893 -0.27998,4.99652 0.16771,5.45636" fill="none" stroke="#ff0000" stroke-width="1.5" stroke-linecap="round"/><path d="M1062.65079,187.98275c0,0 -0.43984,3.0648 0.0485,4.47818c0.50994,1.47588 1.95964,1.30474 2.48497,1.38783c1.39311,0.22036 2.65647,-0.61533 2.75493,-1.61805c0.49331,-5.02384 0.19179,-17.03817 0.12856,-23.86253c-0.01662,-1.79419 1.19355,-2.47816 2.91521,-2.49133c0.2876,-0.0022 2.70899,0.04506 3.1439,1.07829c0.56358,1.33893 -0.27998,4.99652 0.16771,5.45636" fill="none" stroke="#ff0000" stroke-width="1.5" stroke-linecap="round"/><path d="M1073.41746,187.98275c0,0 -0.43984,3.0648 0.0485,4.47818c0.50994,1.47588 1.95964,1.30474 2.48497,1.38783c1.39311,0.22036 2.65646,-0.61533 2.75492,-1.61805c0.49331,-5.02384 0.19179,-17.03817 0.12856,-23.86253c-0.01662,-1.79419 1.19355,-2.47816 2.91521,-2.49133c0.28759,-0.0022 2.70899,0.04506 3.1439,1.07829c0.56358,1.33893 -0.27998,4.99652 0.16771,5.45636" fill="none" stroke="#ff0000" stroke-width="1.5" stroke-linecap="round"/><path d="M1052.35079,187.98275c0,0 -0.43984,3.0648 0.0485,4.47818c0.50994,1.47588 1.95964,1.30474 2.48497,1.38783c1.39311,0.22036 2.65646,-0.61533 2.75492,-1.61805c0.49331,-5.02384 0.19179,-17.03817 0.12856,-23.86253c-0.01662,-1.79419 1.19355,-2.47816 2.91521,-2.49133c0.28759,-0.0022 2.70899,0.04506 3.1439,1.07829c0.56358,1.33893 -0.27998,4.99652 0.16771,5.45636" fill="none" stroke="#ff0000" stroke-width="1.5" stroke-linecap="round"/><path d="M1001.08412,187.64941c0,0 -0.43984,3.0648 0.0485,4.47818c0.50994,1.47588 1.95964,1.30474 2.48497,1.38783c1.39311,0.22036 2.65647,-0.61533 2.75493,-1.61805c0.4933,-5.02384 0.19178,-17.03817 0.12856,-23.86253c-0.01662,-1.79419 1.19355,-2.47816 2.91521,-2.49133c0.2876,-0.0022 2.709,0.04506 3.1439,1.07829c0.56358,1.33893 -0.27998,4.99652 0.16771,5.45636" fill="none" stroke="#ff0000" stroke-width="1.5" stroke-linecap="round"/><path d="M1010.68413,187.64941c0,0 -0.43984,3.0648 0.0485,4.47818c0.50994,1.47588 1.95964,1.30474 2.48497,1.38783c1.39311,0.22036 2.65646,-0.61533 2.75492,-1.61805c0.49331,-5.02384 0.19179,-17.03817 0.12857,-23.86253c-0.01662,-1.79419 1.19354,-2.47816 2.9152,-2.49133c0.28759,-0.0022 2.709,0.04506 3.1439,1.07829c0.56358,1.33893 -0.27998,4.99652 0.16771,5.45636" fill="none" stroke="#ff0000" stroke-width="1.5" stroke-linecap="round"/><path d="M1020.98413,187.64941c0,0 -0.43984,3.0648 0.0485,4.47818c0.50994,1.47588 1.95964,1.30474 2.48497,1.38783c1.39311,0.22036 2.65646,-0.61533 2.75492,-1.61805c0.49331,-5.02384 0.19179,-17.03817 0.12856,-23.86253c-0.01662,-1.79419 1.19355,-2.47816 2.91521,-2.49133c0.28759,-0.0022 2.70899,0.04506 3.1439,1.07829c0.56358,1.33893 -0.27998,4.99652 0.16771,5.45636" fill="none" stroke="#ff0000" stroke-width="1.5" stroke-linecap="round"/><path d="M1031.7508,187.64941c0,0 -0.43984,3.0648 0.0485,4.47818c0.50994,1.47588 1.95964,1.30474 2.48497,1.38783c1.39311,0.22036 2.65646,-0.61533 2.75492,-1.61805c0.49331,-5.02384 0.19179,-17.03817 0.12856,-23.86253c-0.01662,-1.79419 1.19355,-2.47816 2.91521,-2.49133c0.28759,-0.0022 2.70899,0.04506 3.1439,1.07829c0.56358,1.33893 -0.27998,4.99652 0.16771,5.45636" fill="none" stroke="#ff0000" stroke-width="1.5" stroke-linecap="round"/><path d="M1010.68413,187.64941c0,0 -0.43984,3.0648 0.0485,4.47818c0.50994,1.47588 1.95964,1.30474 2.48497,1.38783c1.39311,0.22036 2.65646,-0.61533 2.75492,-1.61805c0.49331,-5.02384 0.19179,-17.03817 0.12857,-23.86253c-0.01662,-1.79419 1.19354,-2.47816 2.9152,-2.49133c0.28759,-0.0022 2.709,0.04506 3.1439,1.07829c0.56358,1.33893 -0.27998,4.99652 0.16771,5.45636" fill="none" stroke="#ff0000" stroke-width="1.5" stroke-linecap="round"/><path d="M1042.7508,187.98275c0,0 -0.43984,3.0648 0.0485,4.47818c0.50994,1.47588 1.95964,1.30474 2.48497,1.38783c1.39311,0.22036 2.65646,-0.61533 2.75492,-1.61805c0.49331,-5.02384 0.19179,-17.03817 0.12856,-23.86253c-0.01662,-1.79419 1.19355,-2.47816 2.91521,-2.49133c0.28759,-0.0022 2.70899,0.04506 3.1439,1.07829c0.56358,1.33893 -0.27998,4.99652 0.16771,5.45636" fill="none" stroke="#ff0000" stroke-width="1.5" stroke-linecap="round"/><path d="M1052.35079,187.98275c0,0 -0.43984,3.0648 0.0485,4.47818c0.50994,1.47588 1.95964,1.30474 2.48497,1.38783c1.39311,0.22036 2.65646,-0.61533 2.75492,-1.61805c0.49331,-5.02384 0.19179,-17.03817 0.12856,-23.86253c-0.01662,-1.79419 1.19355,-2.47816 2.91521,-2.49133c0.28759,-0.0022 2.70899,0.04506 3.1439,1.07829c0.56358,1.33893 -0.27998,4.99652 0.16771,5.45636" fill="none" stroke="#ff0000" stroke-width="1.5" stroke-linecap="round"/><path d="M1062.65079,187.98275c0,0 -0.43984,3.0648 0.0485,4.47818c0.50994,1.47588 1.95964,1.30474 2.48497,1.38783c1.39311,0.22036 2.65647,-0.61533 2.75493,-1.61805c0.49331,-5.02384 0.19179,-17.03817 0.12856,-23.86253c-0.01662,-1.79419 1.19355,-2.47816 2.91521,-2.49133c0.2876,-0.0022 2.70899,0.04506 3.1439,1.07829c0.56358,1.33893 -0.27998,4.99652 0.16771,5.45636" fill="none" stroke="#ff0000" stroke-width="1.5" stroke-linecap="round"/><path d="M1073.41746,187.98275c0,0 -0.43984,3.0648 0.0485,4.47818c0.50994,1.47588 1.95964,1.30474 2.48497,1.38783c1.39311,0.22036 2.65646,-0.61533 2.75492,-1.61805c0.49331,-5.02384 0.19179,-17.03817 0.12856,-23.86253c-0.01662,-1.79419 1.19355,-2.47816 2.91521,-2.49133c0.28759,-0.0022 2.70899,0.04506 3.1439,1.07829c0.56358,1.33893 -0.27998,4.99652 0.16771,5.45636" fill="none" stroke="#ff0000" stroke-width="1.5" stroke-linecap="round"/><path d="M1052.35079,187.98275c0,0 -0.43984,3.0648 0.0485,4.47818c0.50994,1.47588 1.95964,1.30474 2.48497,1.38783c1.39311,0.22036 2.65646,-0.61533 2.75492,-1.61805c0.49331,-5.02384 0.19179,-17.03817 0.12856,-23.86253c-0.01662,-1.79419 1.19355,-2.47816 2.91521,-2.49133c0.28759,-0.0022 2.70899,0.04506 3.1439,1.07829c0.56358,1.33893 -0.27998,4.99652 0.16771,5.45636" fill="none" stroke="#ff0000" stroke-width="1.5" stroke-linecap="round"/><path d="M1085.08413,187.98275c0,0 -0.43984,3.0648 0.0485,4.47818c0.50994,1.47588 1.95964,1.30474 2.48497,1.38783c1.39311,0.22036 2.65646,-0.61533 2.75492,-1.61805c0.49331,-5.02384 0.19179,-17.03817 0.12856,-23.86253c-0.01662,-1.79419 1.19355,-2.47816 2.91521,-2.49133c0.28759,-0.0022 2.70899,0.04506 3.1439,1.07829c0.56358,1.33893 -0.27999,4.99652 0.1677,5.45636" fill="none" stroke="#ff0000" stroke-width="1.5" stroke-linecap="round"/><path d="M1094.68413,187.98275c0,0 -0.43984,3.0648 0.0485,4.47818c0.50994,1.47588 1.95964,1.30474 2.48497,1.38783c1.39311,0.22036 2.65646,-0.61533 2.75492,-1.61805c0.49331,-5.02384 0.19179,-17.03817 0.12856,-23.86253c-0.01662,-1.79419 1.19355,-2.47816 2.91521,-2.49133c0.28759,-0.0022 2.70899,0.04506 3.1439,1.07829c0.56358,1.33893 -0.27998,4.99652 0.16771,5.45636" fill="none" stroke="#ff0000" stroke-width="1.5" stroke-linecap="round"/><path d="M1104.98413,187.98275c0,0 -0.43984,3.0648 0.0485,4.47818c0.50994,1.47588 1.95964,1.30474 2.48497,1.38783c1.39311,0.22036 2.65646,-0.61533 2.75492,-1.61805c0.49331,-5.02384 0.19179,-17.03817 0.12856,-23.86253c-0.01662,-1.79419 1.19355,-2.47816 2.91521,-2.49133c0.28759,-0.0022 2.70899,0.04506 3.1439,1.07829c0.56358,1.33893 -0.27998,4.99652 0.16771,5.45636" fill="none" stroke="#ff0000" stroke-width="1.5" stroke-linecap="round"/><path d="M1115.7508,187.98275c0,0 -0.43984,3.0648 0.0485,4.47818c0.50994,1.47588 1.95964,1.30474 2.48497,1.38783c1.39311,0.22036 2.65646,-0.61533 2.75492,-1.61805c0.49331,-5.02384 0.19179,-17.03817 0.12856,-23.86253c-0.01662,-1.79419 1.19355,-2.47816 2.91521,-2.49133c0.28759,-0.0022 2.70899,0.04506 3.1439,1.07829c0.56358,1.33893 -0.27998,4.99652 0.16771,5.45636" fill="none" stroke="#ff0000" stroke-width="1.5" stroke-linecap="round"/><path d="M1094.68413,187.98275c0,0 -0.43984,3.0648 0.0485,4.47818c0.50994,1.47588 1.95964,1.30474 2.48497,1.38783c1.39311,0.22036 2.65646,-0.61533 2.75492,-1.61805c0.49331,-5.02384 0.19179,-17.03817 0.12856,-23.86253c-0.01662,-1.79419 1.19355,-2.47816 2.91521,-2.49133c0.28759,-0.0022 2.70899,0.04506 3.1439,1.07829c0.56358,1.33893 -0.27998,4.99652 0.16771,5.45636" fill="none" stroke="#ff0000" stroke-width="1.5" stroke-linecap="round"/><path d="M1126.7508,188.31608c0,0 -0.43984,3.0648 0.0485,4.47818c0.50994,1.47589 1.95964,1.30474 2.48497,1.38783c1.39311,0.22036 2.65646,-0.61533 2.75492,-1.61805c0.49331,-5.02384 0.19179,-17.03817 0.12856,-23.86253c-0.01662,-1.79419 1.19355,-2.47816 2.91521,-2.49133c0.28759,-0.0022 2.70899,0.04506 3.1439,1.07829c0.56358,1.33893 -0.27998,4.99652 0.16771,5.45636" fill="none" stroke="#ff0000" stroke-width="1.5" stroke-linecap="round"/><path d="M1136.35079,188.31608c0,0 -0.43984,3.0648 0.0485,4.47818c0.50994,1.47589 1.95964,1.30474 2.48497,1.38783c1.39311,0.22036 2.65646,-0.61533 2.75492,-1.61805c0.49331,-5.02384 0.19179,-17.03817 0.12856,-23.86253c-0.01662,-1.79419 1.19355,-2.47816 2.91521,-2.49133c0.28759,-0.0022 2.70899,0.04506 3.1439,1.07829c0.56358,1.33893 -0.27998,4.99652 0.16771,5.45636" fill="none" stroke="#ff0000" stroke-width="1.5" stroke-linecap="round"/><path d="M1146.65079,188.31608c0,0 -0.43984,3.0648 0.0485,4.47818c0.50994,1.47589 1.95964,1.30474 2.48497,1.38783c1.39311,0.22036 2.65647,-0.61533 2.75493,-1.61805c0.49331,-5.02384 0.19179,-17.03817 0.12856,-23.86253c-0.01662,-1.79419 1.19355,-2.47816 2.91521,-2.49133c0.2876,-0.0022 2.70899,0.04506 3.1439,1.07829c0.56358,1.33893 -0.27998,4.99652 0.16771,5.45636" fill="none" stroke="#ff0000" stroke-width="1.5" stroke-linecap="round"/><path d="M1157.41746,188.31608c0,0 -0.43984,3.0648 0.0485,4.47818c0.50994,1.47589 1.95964,1.30474 2.48497,1.38783c1.39311,0.22036 2.65646,-0.61533 2.75492,-1.61805c0.49331,-5.02384 0.19179,-17.03817 0.12856,-23.86253c-0.01662,-1.79419 1.19355,-2.47816 2.91521,-2.49133c0.28759,-0.0022 2.70899,0.04506 3.1439,1.07829c0.56358,1.33893 -0.27998,4.99652 0.16771,5.45636" fill="none" stroke="#ff0000" stroke-width="1.5" stroke-linecap="round"/><path d="M1136.35079,188.31608c0,0 -0.43984,3.0648 0.0485,4.47818c0.50994,1.47589 1.95964,1.30474 2.48497,1.38783c1.39311,0.22036 2.65646,-0.61533 2.75492,-1.61805c0.49331,-5.02384 0.19179,-17.03817 0.12856,-23.86253c-0.01662,-1.79419 1.19355,-2.47816 2.91521,-2.49133c0.28759,-0.0022 2.70899,0.04506 3.1439,1.07829c0.56358,1.33893 -0.27998,4.99652 0.16771,5.45636" fill="none" stroke="#ff0000" stroke-width="1.5" stroke-linecap="round"/></g></g></svg>