<svg version="1.1" xmlns="http://www.w3.org/2000/svg" xmlns:xlink="http://www.w3.org/1999/xlink" width="812.20833" height="20.5" viewBox="0,0,812.20833,20.5"><g transform="translate(-267.125,-169)"><g data-paper-data="{&quot;isPaintingLayer&quot;:true}" fill="#ffffff" fill-rule="nonzero" stroke="#cccccc" stroke-linecap="butt" stroke-linejoin="miter" stroke-miterlimit="10" stroke-dasharray="" stroke-dashoffset="0" style="mix-blend-mode: normal"><path d="M284.175,184.25v-10.2h794.53333v10.2z" stroke-width="1.25"/><path d="M284.175,181.14693v-4.25h794.53333v4.25z" stroke-width="1.25"/><path d="M267.875,179.25c0,-5.24671 4.25329,-9.5 9.5,-9.5c5.24671,0 9.5,4.25329 9.5,9.5c0,5.24671 -4.25329,9.5 -9.5,9.5c-5.24671,0 -9.5,-4.25329 -9.5,-9.5z" stroke-width="1.5"/><path d="M270.07891,179.25c0,-4.02953 3.26657,-7.29609 7.29609,-7.29609c4.02953,0 7.29609,3.26657 7.29609,7.29609c0,4.02953 -3.26657,7.29609 -7.29609,7.29609c-4.02953,0 -7.29609,-3.26657 -7.29609,-7.29609z" stroke-width="1.5"/></g></g></svg>