<svg version="1.1" xmlns="http://www.w3.org/2000/svg" xmlns:xlink="http://www.w3.org/1999/xlink" width="1427.68919" height="1288.22973" viewBox="0,0,1427.68919,1288.22973"><g transform="translate(473.84461,464.11487)"><g data-paper-data="{&quot;isPaintingLayer&quot;:true}" fill="#50ff00" fill-rule="nonzero" stroke-linecap="butt" stroke-linejoin="miter" stroke-miterlimit="10" stroke-dasharray="" stroke-dashoffset="0" style="mix-blend-mode: normal"><path d="M258.5,-462.11486v1284.22973h-37v-1284.22973z" stroke="#3ab700" stroke-width="4"/><path d="M951.84459,198.5h-1423.68919v-37h1423.68919z" stroke="#3ab700" stroke-width="4"/><path d="M-200.9623,-287.12525l908.08755,908.08755l-26.16295,26.16295l-908.08755,-908.08755z" stroke="#3ab700" stroke-width="4"/><path d="M707.12525,-260.9623l-908.08755,908.08755l-26.16295,-26.16295l908.08755,-908.08755z" data-paper-data="{&quot;index&quot;:null}" stroke="#3ab700" stroke-width="4"/><path d="M256.49998,145.5v95.33333h-32.99999v-95.33333z" stroke="none" stroke-width="0"/><path d="M256.5,132.33334v95.33333h-32.99999v-95.33333z" stroke="none" stroke-width="0"/><path d="M192.33334,163.5l95.33333,0l0,32.99999h-95.33333z" stroke="none" stroke-width="0"/><path d="M194.62732,202.03816l67.41084,-67.41084l23.33452,23.33452l-67.41084,67.41084z" stroke="none" stroke-width="0"/><path d="M262.03817,225.37268l-67.41084,-67.41084l23.33451,-23.33452l67.41085,67.41084z" stroke="none" stroke-width="0"/></g></g></svg>