<svg version="1.1" xmlns="http://www.w3.org/2000/svg" xmlns:xlink="http://www.w3.org/1999/xlink" width="77.39583" height="40.08333" viewBox="0,0,77.39583,40.08333"><g transform="translate(-219.95835,-159.95835)"><g data-paper-data="{&quot;isPaintingLayer&quot;:true}" fill-rule="nonzero" stroke-linejoin="miter" stroke-miterlimit="10" stroke-dasharray="" stroke-dashoffset="0" style="mix-blend-mode: normal"><path d="M260.56599,193.26955l11.75,-1.25" data-paper-data="{&quot;index&quot;:null}" fill="none" stroke="#ababab" stroke-width="4" stroke-linecap="round"/><path d="M260.06598,166.14454l11.75,1.25" fill="none" stroke="#ababab" stroke-width="4" stroke-linecap="round"/><path d="M255.31251,189.87502v-20.33333h40.04167v20.33333z" fill="#ffffff" stroke="#cccccc" stroke-width="4" stroke-linecap="butt"/><path d="M221.95835,198.04168v-36.08333h36.08333v36.08333z" fill="#ffffff" stroke="#cccccc" stroke-width="4" stroke-linecap="butt"/><path d="M260.04168,188.06252v-16.625h4v16.625z" fill="#000000" stroke="none" stroke-width="0" stroke-linecap="butt"/><path d="M263.91668,188.06252v-16.625h4.625v16.625z" fill="#1d1d1d" stroke="none" stroke-width="0" stroke-linecap="butt"/><path d="M268.54168,188.06252v-16.625h4.625v16.625z" fill="#343434" stroke="none" stroke-width="0" stroke-linecap="butt"/><path d="M273.04168,188.06252v-16.625h4.875v16.625z" fill="#575757" stroke="none" stroke-width="0" stroke-linecap="butt"/><path d="M277.79168,188.06252v-16.625h5.375v16.625z" fill="#7a7a7a" stroke="none" stroke-width="0" stroke-linecap="butt"/><path d="M283.04168,188.06252v-16.625h5.125v16.625z" fill="#9b9b9b" stroke="none" stroke-width="0" stroke-linecap="butt"/><path d="M287.91668,188.06252v-16.625h5.5v16.625z" fill="#b1b1b1" stroke="none" stroke-width="0" stroke-linecap="butt"/><path d="M230.94098,196.39454v-32.875" fill="none" stroke="#cccccc" stroke-width="4" stroke-linecap="round"/><path d="M240,163.5v33" fill="none" stroke="#cccccc" stroke-width="4" stroke-linecap="round"/><path d="M249.44098,162.26954v33.625" fill="none" stroke="#cccccc" stroke-width="4" stroke-linecap="round"/><path d="M224.32576,188.63477h32.875" fill="none" stroke="#cccccc" stroke-width="4" stroke-linecap="round"/><path d="M224.30621,179.57576h33" fill="none" stroke="#cccccc" stroke-width="4" stroke-linecap="round"/><path d="M223.07576,170.13477h33.625" fill="none" stroke="#cccccc" stroke-width="4" stroke-linecap="round"/><path d="M256.77068,162.30173l37.3406,7.31063" fill="none" stroke="#cccccc" stroke-width="4" stroke-linecap="round"/><path d="M257.27069,197.23736l37.3406,-7.31063" data-paper-data="{&quot;index&quot;:null}" fill="none" stroke="#cccccc" stroke-width="4" stroke-linecap="round"/></g></g></svg>