<svg version="1.1" xmlns="http://www.w3.org/2000/svg" xmlns:xlink="http://www.w3.org/1999/xlink" width="67.79166" height="40.08333" viewBox="0,0,67.79166,40.08333"><g transform="translate(-219.95835,-159.95835)"><g data-paper-data="{&quot;isPaintingLayer&quot;:true}" fill-rule="nonzero" stroke-linejoin="miter" stroke-miterlimit="10" stroke-dasharray="" stroke-dashoffset="0" style="mix-blend-mode: normal"><path d="M230.50001,194.07501v-27.875h55.25v27.875z" fill="#ffa200" stroke="#bb7600" stroke-width="4" stroke-linecap="butt"/><path d="M221.95835,198.04168v-36.08333h36.08333v36.08333z" fill="#ffa200" stroke="#bb7600" stroke-width="4" stroke-linecap="butt"/><path d="M259.19098,179.76954h24.5" fill="none" stroke="#bb7600" stroke-width="3" stroke-linecap="round"/><path d="M222.69098,179.76954h34.75" fill="none" stroke="#bb7600" stroke-width="4" stroke-linecap="round"/><path d="M240.06598,197.14454v-34.75" fill="none" stroke="#bb7600" stroke-width="4" stroke-linecap="round"/><path d="M271.44098,192.01954v-24.5" fill="none" stroke="#bb7600" stroke-width="3" stroke-linecap="round"/><path d="M227.125,180c0,-7.11067 5.76433,-12.875 12.875,-12.875c7.11067,0 12.875,5.76433 12.875,12.875c0,7.11067 -5.76433,12.875 -12.875,12.875c-7.11067,0 -12.875,-5.76433 -12.875,-12.875z" fill="#ffa200" stroke="#bb7600" stroke-width="4" stroke-linecap="butt"/><path d="M263.56598,180.33204c0,-4.59087 3.72163,-8.3125 8.3125,-8.3125c4.59087,0 8.3125,3.72163 8.3125,8.3125c0,4.59087 -3.72163,8.3125 -8.3125,8.3125c-4.59087,0 -8.3125,-3.72163 -8.3125,-8.3125z" fill="#ffa200" stroke="#bb7600" stroke-width="3" stroke-linecap="butt"/></g></g></svg>