<svg version="1.1" xmlns="http://www.w3.org/2000/svg" xmlns:xlink="http://www.w3.org/1999/xlink" width="32.9688" height="45.12079" viewBox="0,0,32.9688,45.12079"><g transform="translate(-223.00233,-158.62943)"><g data-paper-data="{&quot;isPaintingLayer&quot;:true}" fill-rule="nonzero" stroke-width="3" stroke-linecap="butt" stroke-linejoin="miter" stroke-miterlimit="10" stroke-dasharray="" stroke-dashoffset="0" style="mix-blend-mode: normal"><path d="M244.50885,168.32781c-0.84792,-4.05442 0.29982,-7.72496 2.56353,-8.19838c2.26371,-0.47342 4.7862,2.42955 5.63411,6.48397c0.84792,4.05442 -0.29982,7.72496 -2.56353,8.19838c-2.26371,0.47342 -4.7862,-2.42955 -5.63411,-6.48397z" fill="none" stroke="#7b0000"/><path d="M239.81903,193.2087c2.80673,-3.04623 6.46082,-4.2453 8.16164,-2.67821c1.70081,1.56709 0.80428,5.30693 -2.00245,8.35316c-2.80673,3.04623 -6.46082,4.2453 -8.16164,2.67821c-1.70081,-1.56709 -0.80428,-5.30693 2.00245,-8.35316z" fill="none" stroke="#7b0000"/><path d="M225.20558,184.69269c-2.49169,-8.08146 2.03971,-16.65269 10.12116,-19.14438c8.08146,-2.49169 16.65269,2.03971 19.14438,10.12116c2.49169,8.08146 -2.03971,16.65269 -10.12116,19.14438c-8.08146,2.49169 -16.65269,-2.03971 -19.14438,-10.12116z" fill="#b30000" stroke="#8d0000"/><path d="M225.07277,177.47388c-1.22042,-3.95826 -0.41818,-7.71946 1.79185,-8.40086c2.21003,-0.6814 4.99096,1.97502 6.21138,5.93329c1.22042,3.95826 0.41818,7.71946 -1.79185,8.40086c-2.21003,0.6814 -4.99096,-1.97502 -6.21138,-5.93329z" fill="none" stroke="#7b0000"/><path d="M226.59467,187.07674c-1.22042,-3.95826 -0.41818,-7.71946 1.79185,-8.40086c2.21003,-0.6814 4.99096,1.97502 6.21138,5.93329c1.22042,3.95826 0.41818,7.71946 -1.79185,8.40086c-2.21003,0.6814 -4.99096,-1.97502 -6.21138,-5.93329z" fill="none" stroke="#7b0000"/><path d="M231.70468,197.23706c-2.528,-3.28123 -3.09221,-7.08542 -1.26019,-8.49689c1.83202,-1.41147 5.36652,0.10427 7.89452,3.38551c2.528,3.28123 3.09221,7.08542 1.26019,8.49689c-1.83202,1.41147 -5.36652,-0.10427 -7.89452,-3.38551z" fill="none" stroke="#7b0000"/><path d="M227.30724,165.42223c2.44547,-3.3432 5.94111,-4.94653 7.80772,-3.58115c1.86662,1.36538 1.39737,5.18245 -1.0481,8.52565c-2.44547,3.3432 -5.94111,4.94653 -7.80772,3.58115c-1.86662,-1.36538 -1.39737,-5.18245 1.0481,-8.52565z" fill="none" stroke="#7b0000"/><path d="M240.88637,160.22104c4.13924,0.15476 7.42472,2.15372 7.33831,4.4648c-0.08641,2.31107 -3.51198,4.05912 -7.65122,3.90436c-4.13924,-0.15476 -7.42472,-2.15372 -7.33831,-4.4648c0.08641,-2.31107 3.51198,-4.05912 7.65122,-3.90436z" fill="none" stroke="#7b0000"/></g></g></svg>