<svg version="1.1" xmlns="http://www.w3.org/2000/svg" xmlns:xlink="http://www.w3.org/1999/xlink" width="812.91118" height="633.66565" viewBox="0,0,812.91118,633.66565"><defs><radialGradient cx="35.55582" cy="347.78979" r="279.12751" gradientUnits="userSpaceOnUse" id="color-1"><stop offset="0" stop-color="#ffffff"/><stop offset="1" stop-color="#ffffff" stop-opacity="0"/></radialGradient></defs><g transform="translate(243.57169,20.45045)"><g data-paper-data="{&quot;isPaintingLayer&quot;:true}" fill-rule="nonzero" stroke-linejoin="miter" stroke-miterlimit="10" stroke-dasharray="" stroke-dashoffset="0" style="mix-blend-mode: normal"><path d="M-19.75977,380.45045v-400.9009h519.51952v400.9009z" fill="#39cc5b" stroke="none" stroke-width="0" stroke-linecap="butt"/><path d="M23.90918,374.41625c0,0 9.19812,-115.51353 17.71909,-188.78504c1.49325,-12.84041 11.39972,-71.2611 11.36164,-71.48089c1.87372,-12.27011 16.37659,-44.96502 42.5931,-61.38969c20.03943,-12.55473 48.09786,-11.2114 58.92413,-10.14566c20.22817,1.99126 43.25734,21.454 41.71592,50.59885c-1.5297,28.92309 -26.5492,229.40466 41.9419,221.11419c0.01217,-0.00178 6.03387,0.50522 13.66939,-0.6872c10.54205,-1.64632 22.16036,-8.62589 27.28604,-13.48663c15.60572,-14.7991 19.82619,-49.36783 21.62299,-51.76796c7.44137,-26.62642 21.71648,-148.14608 34.06974,-168.34003c10.88975,-17.80154 21.85961,-24.59425 37.04794,-24.21073c27.06331,0.68337 43.95067,15.23565 49.29276,29.49461c-0.02241,0.41121 1.81475,3.5811 2.90663,7.94079c1.97976,4.9191 3.59798,11.32989 3.95241,12.39176c2.70702,8.1101 4.60192,17.17008 5.88905,28.52443c2.3257,20.51607 5.37608,48.07703 5.31731,64.13192c0.10533,39.21976 113.71721,32.3109 107.36337,35.32923" fill="none" stroke="#96791c" stroke-width="45" stroke-linecap="round"/><path d="M23.90918,374.41625c0,0 9.19812,-115.51353 17.71909,-188.78504c1.49325,-12.84041 11.39972,-71.2611 11.36164,-71.48089c1.87372,-12.27011 16.37659,-44.96502 42.5931,-61.38969c20.03943,-12.55473 48.09786,-11.2114 58.92413,-10.14566c20.22817,1.99126 43.25734,21.454 41.71592,50.59885c-1.5297,28.92309 -26.5492,229.40466 41.9419,221.11419c0.01217,-0.00178 6.03387,0.50522 13.66939,-0.6872c10.54205,-1.64632 22.16036,-8.62589 27.28604,-13.48663c15.60572,-14.7991 19.82619,-49.36783 21.62299,-51.76796c7.44137,-26.62642 21.71648,-148.14608 34.06974,-168.34003c10.88975,-17.80154 21.85961,-24.59425 37.04794,-24.21073c27.06331,0.68337 43.78426,15.98234 49.29276,29.49461c-0.04052,0.7435 1.61337,3.33958 2.79295,6.71927c1.72662,4.94703 3.29016,11.28862 4.06609,13.61328c2.70702,8.1101 4.60192,17.17008 5.88905,28.52443c2.3257,20.51607 5.37608,48.07703 5.31731,64.13192c0.10533,39.21976 113.71721,32.3109 107.36337,35.32923" fill="none" stroke="#a98920" stroke-width="37.5" stroke-linecap="round"/><path d="M265.25977,240.37462c-0.00527,7.27193 0.17295,19.73437 0.17015,23.59218c-0.00208,2.86853 -3.04012,4.976 -5.51543,4.97421c-3.91838,-0.00284 -15.79468,-0.01144 -22.84308,-0.01655c-3.20969,-0.00232 -5.41612,-2.88297 -5.41467,-4.8885c0.00271,-3.74372 0.0118,-16.29409 0.01702,-23.49841c0.00224,-3.09467 2.33989,-5.2012 4.48578,-5.19964c4.03709,0.00292 16.853,0.01221 23.87289,0.01729c2.48855,0.0018 5.22951,2.02343 5.22734,5.01944z" fill="#ffffff" stroke="#cccccc" stroke-width="2" stroke-linecap="butt"/><path d="M251.67127,240.93535l-12.1167,3.94992l-7.77844,-23.86097l12.1167,-3.94992z" fill="#ffffff" stroke="#cccccc" stroke-width="2" stroke-linecap="butt"/><path d="M263.01714,259.22476l-21.50218,7.0095l-7.0095,-21.50218l21.50218,-7.0095z" fill="#ffffff" stroke="#cccccc" stroke-width="2" stroke-linecap="butt"/><path d="M249.35684,237.50097l-9.9069,3.22955l-0.43708,-1.34079l9.9069,-3.22955z" fill="#cccccc" stroke="none" stroke-width="0" stroke-linecap="butt"/><path d="M248.45839,234.74491l-9.9069,3.22955l-0.43708,-1.34079l9.9069,-3.22955z" fill="#cccccc" stroke="none" stroke-width="0" stroke-linecap="butt"/><path d="M247.55995,231.98886l-9.9069,3.22955l-0.43708,-1.34079l9.9069,-3.22955z" fill="#cccccc" stroke="none" stroke-width="0" stroke-linecap="butt"/><path d="M246.6615,229.23281l-9.9069,3.22955l-0.43708,-1.34079l9.9069,-3.22955z" fill="#cccccc" stroke="none" stroke-width="0" stroke-linecap="butt"/><path d="M245.81162,226.62573l-9.9069,3.22955l-0.43708,-1.34079l9.9069,-3.22955z" fill="#cccccc" stroke="none" stroke-width="0" stroke-linecap="butt"/><path d="M244.91317,223.86967l-9.9069,3.22955l-0.43708,-1.34079l9.9069,-3.22955z" fill="#cccccc" stroke="none" stroke-width="0" stroke-linecap="butt"/><path d="M243.96616,220.96465l-9.9069,3.22955l-0.43708,-1.34079l9.9069,-3.22955z" fill="#cccccc" stroke="none" stroke-width="0" stroke-linecap="butt"/><path d="M107.2177,140.74195c0,-7.0136 -0.18059,-19.03317 -0.18059,-22.75393c0,-2.76662 2.92865,-4.80134 5.31602,-4.80134c3.77918,0 15.23357,0 22.03158,0c3.09566,0 5.22572,2.77676 5.22572,4.71105c0,3.61072 0,15.71524 0,22.66363c0,2.98473 -2.25313,5.01806 -4.32279,5.01806c-3.89367,0 -16.25429,0 -23.0248,0c-2.40015,0 -5.04514,-1.94789 -5.04514,-4.83747z" fill="#547a5c" stroke="#2e4333" stroke-width="2" stroke-linecap="butt"/><path d="M116.06329,124.78323c3.70777,4.29148 3.43007,10.68957 -0.62027,14.29054c-4.05033,3.60097 -10.33952,3.0412 -14.04729,-1.25028c-3.70777,-4.29148 -3.43007,-10.68957 0.62027,-14.29054c4.05033,-3.60097 10.33952,-3.0412 14.04729,1.25028z" fill="none" stroke="#d4c47a" stroke-width="3.75" stroke-linecap="butt"/><path d="M107.76242,122.44953c-0.67055,-0.87417 -0.50549,-2.12641 0.36868,-2.79696c0.87417,-0.67055 2.12641,-0.50549 2.79696,0.36868c0.67055,0.87417 0.50548,2.1264 -0.36869,2.79695c-0.87417,0.67055 -2.1264,0.50549 -2.79695,-0.36868z" fill="#d4aa7b" stroke="none" stroke-width="0.5" stroke-linecap="butt"/><path d="M100.61599,124.49534c-0.67055,-0.87417 -0.50548,-2.1264 0.36869,-2.79695c0.87417,-0.67055 2.1264,-0.50549 2.79695,0.36868c0.67055,0.87417 0.50549,2.12641 -0.36868,2.79696c-0.87417,0.67055 -2.12641,0.50549 -2.79696,-0.36868z" fill="#d4aa7b" stroke="none" stroke-width="0.5" stroke-linecap="butt"/><path d="M97.04185,132.18147c-0.67055,-0.87417 -0.50549,-2.12641 0.36868,-2.79696c0.87417,-0.67055 2.12641,-0.50549 2.79696,0.36868c0.67055,0.87417 0.50549,2.12641 -0.36868,2.79696c-0.87417,0.67055 -2.12641,0.50549 -2.79696,-0.36868z" fill="#d4aa7b" stroke="none" stroke-width="0.5" stroke-linecap="butt"/><path d="M100.99998,140.29136c-0.67055,-0.87417 -0.50549,-2.1264 0.36868,-2.79695c0.87417,-0.67055 2.12641,-0.50549 2.79696,0.36868c0.67055,0.87417 0.50549,2.12641 -0.36868,2.79696c-0.87417,0.67055 -2.1264,0.50548 -2.79695,-0.36869z" fill="#d4aa7b" stroke="none" stroke-width="0.5" stroke-linecap="butt"/><path d="M108.55388,142.70985c-0.67055,-0.87417 -0.50549,-2.1264 0.36868,-2.79695c0.87417,-0.67055 2.1264,-0.50549 2.79695,0.36868c0.67055,0.87417 0.50549,2.12641 -0.36868,2.79696c-0.87417,0.67055 -2.1264,0.50548 -2.79695,-0.36869z" fill="#d4aa7b" stroke="none" stroke-width="0.5" stroke-linecap="butt"/><path d="M122.3475,137.35208l-6.4386,-8.39373l27.93915,-21.43135l6.4386,8.39373z" fill="#547a5c" stroke="#2e4333" stroke-width="2" stroke-linecap="butt"/><path d="M143.8765,106.43526l2.79615,-9.11825l3.29829,5.99282l8.14912,-1.42449l-1.21346,7.0779l5.99136,5.07743l-11.44989,2.51277" fill="#fff300" stroke="#eda41a" stroke-width="1.75" stroke-linecap="round"/><path d="M121.59557,144.85548l-13.27579,-17.30708l17.30708,-13.27579l13.27579,17.30708z" fill="#547a5c" stroke="#2e4333" stroke-width="2" stroke-linecap="butt"/><path d="M361.24301,130.48151c0,-7.19664 -0.1853,-19.52991 -0.1853,-23.34778c0,-2.83883 3.00508,-4.92666 5.45476,-4.92666c3.87781,0 15.63115,0 22.60658,0c3.17645,0 5.36211,2.84923 5.36211,4.834c0,3.70496 0,16.12539 0,23.25512c0,3.06263 -2.31194,5.14902 -4.43561,5.14902c-3.99529,0 -16.67851,0 -23.62573,0c-2.46279,0 -5.17681,-1.99873 -5.17681,-4.96372z" fill="#ffa200" stroke="#bb7600" stroke-width="2" stroke-linecap="butt"/><path d="M383.45548,109.89052l1.83112,17.19301l-28.98912,3.08745l-1.83112,-17.19301z" fill="#ffa200" stroke="#bb7600" stroke-width="2" stroke-linecap="butt"/><path d="M388.46332,106.88281l2.37033,22.25583l-22.25583,2.37033l-2.37033,-22.25583z" fill="#ffa200" stroke="#bb7600" stroke-width="2" stroke-linecap="butt"/><path d="M247.00002,135.16667c0,-7.54789 6.11878,-13.66667 13.66667,-13.66667c7.54789,0 13.66667,6.11878 13.66667,13.66667c0,7.54789 -6.11878,13.66667 -13.66667,13.66667c-7.54789,0 -13.66667,-6.11878 -13.66667,-13.66667z" fill="#ffa200" stroke="#bb7600" stroke-width="2" stroke-linecap="butt"/><path d="M183.18751,127c0,-5.69544 4.61706,-10.3125 10.3125,-10.3125c5.69544,0 10.3125,4.61706 10.3125,10.3125c0,5.69544 -4.61706,10.3125 -10.3125,10.3125c-5.69544,0 -10.3125,-4.61706 -10.3125,-10.3125z" fill="#ffef00" stroke="#ccbe00" stroke-width="1.5" stroke-linecap="butt"/><path d="M193.50001,132.13521v-10.27041" fill="none" stroke="#ccbe00" stroke-width="1.5" stroke-linecap="round"/><path d="M188.36481,127h10.27041" fill="none" stroke="#ccbe00" stroke-width="1.5" stroke-linecap="round"/><path d="M20.18749,245.5c0,-8.45686 6.85564,-15.3125 15.3125,-15.3125c8.45686,0 15.3125,6.85564 15.3125,15.3125c0,8.45686 -6.85564,15.3125 -15.3125,15.3125c-8.45686,0 -15.3125,-6.85564 -15.3125,-15.3125z" fill="#7500cc" stroke="#560099" stroke-width="2" stroke-linecap="butt"/><g fill="none" stroke="#560099" stroke-width="2" stroke-linecap="round"><path d="M45.96706,255.10418l-20.70901,-20.70901"/><path d="M24.80785,256.60483l21.38431,-21.38431"/></g><path d="M53.18751,84.75c0,-5.55737 4.50514,-10.0625 10.0625,-10.0625c5.55736,0 10.0625,4.50513 10.0625,10.0625c0,5.55737 -4.50514,10.0625 -10.0625,10.0625c-5.55736,0 -10.0625,-4.50513 -10.0625,-10.0625z" fill="#ff0000" stroke="#b30000" stroke-width="1.5" stroke-linecap="butt"/><path d="M35.68751,152.75c0,-5.55737 4.50514,-10.0625 10.0625,-10.0625c5.55736,0 10.0625,4.50513 10.0625,10.0625c0,5.55737 -4.50514,10.0625 -10.0625,10.0625c-5.55736,0 -10.0625,-4.50513 -10.0625,-10.0625z" fill="#ff0000" stroke="#b30000" stroke-width="1.5" stroke-linecap="butt"/><path d="M114.18751,45.25c0,-5.55736 4.50513,-10.0625 10.0625,-10.0625c5.55737,0 10.0625,4.50514 10.0625,10.0625c0,5.55736 -4.50513,10.0625 -10.0625,10.0625c-5.55737,0 -10.0625,-4.50514 -10.0625,-10.0625z" fill="#ff0000" stroke="#b30000" stroke-width="1.5" stroke-linecap="butt"/><path d="M178.68751,66.25c0,-5.55736 4.50513,-10.0625 10.0625,-10.0625c5.55737,0 10.0625,4.50514 10.0625,10.0625c0,5.55737 -4.50513,10.0625 -10.0625,10.0625c-5.55737,0 -10.0625,-4.50513 -10.0625,-10.0625z" fill="#ff0000" stroke="#b30000" stroke-width="1.5" stroke-linecap="butt"/><path d="M180.68751,187.25c0,-5.55737 4.50513,-10.0625 10.0625,-10.0625c5.55737,0 10.0625,4.50513 10.0625,10.0625c0,5.55737 -4.50513,10.0625 -10.0625,10.0625c-5.55737,0 -10.0625,-4.50513 -10.0625,-10.0625z" fill="#ff0000" stroke="#b30000" stroke-width="1.5" stroke-linecap="butt"/><path d="M27.68751,210.25c0,-5.55737 4.50514,-10.0625 10.0625,-10.0625c5.55736,0 10.0625,4.50513 10.0625,10.0625c0,5.55737 -4.50514,10.0625 -10.0625,10.0625c-5.55736,0 -10.0625,-4.50513 -10.0625,-10.0625z" fill="#ff0000" stroke="#b30000" stroke-width="1.5" stroke-linecap="butt"/><g stroke="#ccbe00" stroke-width="1.5"><path d="M42.68751,116.5c0,-5.69544 4.61706,-10.3125 10.3125,-10.3125c5.69544,0 10.3125,4.61706 10.3125,10.3125c0,5.69544 -4.61706,10.3125 -10.3125,10.3125c-5.69544,0 -10.3125,-4.61706 -10.3125,-10.3125z" fill="#ffef00" stroke-linecap="butt"/><path d="M53.00001,111.3648v10.27041" fill="none" stroke-linecap="round"/><path d="M47.8648,116.5h10.27041" fill="none" stroke-linecap="round"/></g><g stroke="#ccbe00" stroke-width="1.5"><path d="M151.6875,44.5c0,-5.69544 4.61706,-10.3125 10.3125,-10.3125c5.69544,0 10.3125,4.61706 10.3125,10.3125c0,5.69544 -4.61706,10.3125 -10.3125,10.3125c-5.69544,0 -10.3125,-4.61706 -10.3125,-10.3125z" fill="#ffef00" stroke-linecap="butt"/><path d="M162,49.63521v-10.27041" fill="none" stroke-linecap="round"/><path d="M167.13521,44.5h-10.27041" fill="none" stroke-linecap="round"/></g><path d="M183.68751,250.75c0,-5.55737 4.50513,-10.0625 10.0625,-10.0625c5.55737,0 10.0625,4.50513 10.0625,10.0625c0,5.55737 -4.50513,10.0625 -10.0625,10.0625c-5.55737,0 -10.0625,-4.50513 -10.0625,-10.0625z" fill="#ff0000" stroke="#b30000" stroke-width="1.5" stroke-linecap="butt"/><path d="M16.68749,286c0,-8.45686 6.85564,-15.3125 15.3125,-15.3125c8.45686,0 15.3125,6.85564 15.3125,15.3125c0,8.45686 -6.85564,15.3125 -15.3125,15.3125c-8.45686,0 -15.3125,-6.85564 -15.3125,-15.3125z" fill="#7500cc" stroke="#560099" stroke-width="2" stroke-linecap="butt"/><g fill="none" stroke="#560099" stroke-width="2" stroke-linecap="round"><path d="M42.46706,295.60418l-20.70901,-20.70901"/><path d="M21.30785,297.10483l21.38431,-21.38431"/></g><path d="M296.67949,242.99812c-5.1076,-3.35265 -6.53026,-10.21104 -3.1776,-15.31864c3.35265,-5.1076 10.21104,-6.53026 15.31864,-3.1776c5.1076,3.35265 6.53026,10.21104 3.1776,15.31864c-3.35265,5.1076 -10.21104,6.53026 -15.31864,3.1776z" fill="#0046ff" stroke="#0036cc" stroke-width="1.5" stroke-linecap="butt"/><path d="M307.59193,240.11496l-1.43965,-6.94028l-6.75271,1.40074l-1.49153,-7.19038" fill="none" stroke="#0036cc" stroke-width="1.5" stroke-linecap="round"/><path d="M342.40407,74.97042c-5.59855,-2.44623 -8.15402,-8.9678 -5.7078,-14.56636c2.44623,-5.59855 8.9678,-8.15402 14.56636,-5.7078c5.59855,2.44623 8.15402,8.9678 5.7078,14.56636c-2.44623,5.59855 -8.9678,8.15402 -14.56636,5.7078z" fill="#0046ff" stroke="#0036cc" stroke-width="1.5" stroke-linecap="butt"/><path d="M352.67647,70.29366l-2.58598,-6.59945l-6.42109,2.51609l-2.67917,-6.83727" fill="none" stroke="#0036cc" stroke-width="1.5" stroke-linecap="round"/><path d="M434.09784,182.87123c7.43491,-3.62787 16.40308,-0.54165 20.03095,6.89326c3.62787,7.43491 0.54165,16.40308 -6.89327,20.03095c-7.43491,3.62787 -16.40308,0.54165 -20.03095,-6.89327c-3.62787,-7.43491 -0.54165,-16.40308 6.89326,-20.03095z" fill="#0059c5" stroke="#003c85" stroke-width="1.5" stroke-linecap="butt"/><path d="M444.43455,182.79362l-2.44781,7.11303l-7.84886,-2.70104l-2.72916,7.93062l-4.82378,-1.66001" fill="none" stroke="#003c85" stroke-width="1.5" stroke-linecap="round"/><path d="M449.47017,185.16662l-3.93901,11.44626l-7.84886,-2.70103l-2.72917,7.93062l-9.12622,-3.50637" fill="none" stroke="#003c85" stroke-width="1.5" stroke-linecap="round"/><path d="M453.63624,189.80074l-4.72681,13.73551l-7.84886,-2.70103l-2.70104,7.84886l-9.32052,-3.20748" fill="none" stroke="#003c85" stroke-width="1.5" stroke-linecap="round"/><path d="M331.03987,116.5l-52,7" fill="none" stroke="#bb7600" stroke-width="2" stroke-linecap="round"/><path d="M282.70653,130.83333l51,-7.33333" fill="none" stroke="#bb7600" stroke-width="2" stroke-linecap="round"/><path d="M334.70653,130.16667l-52.33333,8" fill="none" stroke="#bb7600" stroke-width="2" stroke-linecap="round"/><path d="M314.68333,347.78979c0,146.59041 -124.96964,265.42541 -279.12751,265.42541c-154.15787,0 -279.1275,-118.835 -279.1275,-265.42541c0,-146.59041 124.96963,-265.42541 279.1275,-265.42541c154.15787,0 279.12751,118.835 279.12751,265.42541z" fill="url(#color-1)" stroke="none" stroke-width="0" stroke-linecap="butt"/><path d="M38.31455,263.65083c0,-0.69812 0.05818,-1.17322 0.17453,-1.42531c0.13574,-0.27149 0.39754,-0.45571 0.78537,-0.55267l10.00626,-2.4143c0.25209,-0.07757 0.51389,-0.11635 0.78537,-0.11635c0.27149,0 0.45571,0.08727 0.55267,0.26179c0.09696,0.15513 0.14544,0.4848 0.14544,0.98899l-0.34905,4.56681c-0.09696,1.33805 -0.20362,2.66639 -0.31997,3.98505c-0.11635,1.31865 -0.29088,2.47247 -0.52358,3.46146l-0.52358,4.13049c-0.15513,1.22169 -0.30058,2.55004 -0.43632,3.98505c-0.13574,1.41561 -0.28118,3.00576 -0.43632,4.77043l-1.36714,14.34037c-0.01939,0.17453 -0.05818,0.34905 -0.11635,0.52358c-0.05818,0.17453 -0.18423,0.30058 -0.37815,0.37815c-0.13574,0.05818 -0.45571,0.18423 -0.9599,0.37815c-0.4848,0.19392 -1.06656,0.41693 -1.74527,0.66902c-0.67872,0.25209 -1.40592,0.51389 -2.18159,0.78537c-0.77567,0.29088 -1.51257,0.55267 -2.21069,0.78537c-0.69812,0.23269 -1.31865,0.4266 -1.86162,0.58174c-0.54297,0.15513 -0.91143,0.2327 -1.10534,0.2327c-0.27149,0 -0.51389,-0.07757 -0.7272,-0.2327c-0.19392,-0.13574 -0.29088,-0.40722 -0.29088,-0.81444c0,-2.34643 0.13574,-4.74133 0.40723,-7.18472c0.27149,-2.46278 0.51389,-4.90617 0.7272,-7.33017c0.03878,-0.27149 0.04847,-0.52358 0.02909,-0.75629c0,-0.2327 0.01939,-0.4848 0.05818,-0.75629h-10.64619l-1.1926,12.74053c-0.01939,0.17453 -0.05818,0.34905 -0.11635,0.52358c-0.03878,0.15513 -0.16482,0.28118 -0.37815,0.37815c-0.07757,0.03878 -0.4654,0.18423 -1.16352,0.43632c-0.67872,0.2327 -1.47379,0.51389 -2.38521,0.84355c-0.89202,0.31027 -1.78407,0.62055 -2.67609,0.93082c-0.87264,0.32967 -1.54166,0.58175 -2.00707,0.75627c-0.2327,0.09696 -0.52358,0.19392 -0.87264,0.29088c-0.32967,0.11635 -0.65932,0.17453 -0.98899,0.17453c-0.27149,0 -0.51389,-0.07757 -0.7272,-0.2327c-0.19392,-0.15513 -0.29088,-0.43631 -0.29088,-0.84353c0,-0.93082 0.02909,-1.98768 0.08727,-3.17059c0.07757,-1.2023 0.16482,-2.45309 0.26179,-3.75234c0.09696,-1.31865 0.21331,-2.66639 0.34905,-4.04323c0.13574,-1.37683 0.27149,-2.73427 0.40723,-4.07231l0.05818,-0.84355c-1.57075,0 -2.71487,-0.03878 -3.43238,-0.11635c-0.69812,-0.09696 -1.04717,-0.32967 -1.04717,-0.69812c0,-0.25209 0.14544,-0.58175 0.43632,-0.98899c0.38785,-0.54297 0.83385,-1.1926 1.33805,-1.94889c0.52358,-0.77567 1.01808,-1.53196 1.48349,-2.26886c0.4848,-0.75629 0.91143,-1.42531 1.27987,-2.00707c0.38785,-0.60115 0.63993,-0.98899 0.75629,-1.16352l0.66902,-7.0102c0,-0.03878 0.01939,-0.32967 0.05818,-0.87264c0.03878,-0.54297 0.08727,-1.18291 0.14544,-1.9198c0.05818,-0.75629 0.11635,-1.53196 0.17453,-2.32704c0.07757,-0.79507 0.14544,-1.47379 0.20362,-2.03616c0.03878,-0.67872 0.08727,-1.15382 0.14544,-1.42531c0.07757,-0.27149 0.31027,-0.45571 0.69812,-0.55267l9.88991,-2.4143c0.25209,-0.07757 0.51389,-0.11635 0.78537,-0.11635c0.27149,0 0.45571,0.08727 0.55267,0.26179c0.09696,0.15513 0.14544,0.4848 0.14544,0.98899c-0.13574,1.39622 -0.2424,2.66639 -0.31997,3.81052c-0.07757,1.14413 -0.16482,2.21069 -0.26179,3.19967c-0.07757,0.98899 -0.16482,1.9295 -0.26179,2.82154c-0.09696,0.89202 -0.2327,1.80345 -0.40723,2.73427l-0.58175,4.50863l10.55893,-0.11635c0.17453,-2.57913 0.36844,-4.77043 0.58175,-6.57388c0.21331,-1.80345 0.34905,-3.22876 0.40723,-4.27593c0.05818,-0.98899 0.09696,-1.6968 0.11635,-2.12342c0.01939,-0.42662 0.02909,-0.66902 0.02909,-0.7272zM80.43391,277.81667c-0.07757,0.27149 -0.223,0.65932 -0.43632,1.16352c-0.21331,0.4848 -0.4654,1.03747 -0.75629,1.65802c-0.27149,0.62055 -0.57206,1.28957 -0.90172,2.00707c-0.31027,0.69812 -0.62055,1.40592 -0.93082,2.12342c-0.11635,0.27149 -0.223,0.4751 -0.31997,0.61085c-0.09696,0.11635 -0.25209,0.20362 -0.4654,0.26179c-0.21331,0.05818 -0.51389,0.09696 -0.90172,0.11635c-0.36844,0 -0.89202,0.0097 -1.57075,0.02909l-4.04323,0.08727l-0.81447,8.90092h14.92212v1.13443c-0.03878,0.03878 -0.20362,0.30058 -0.4945,0.78537c-0.29088,0.4654 -0.63024,1.02778 -1.01808,1.6871c-0.38785,0.65932 -0.79507,1.32834 -1.22169,2.00707c-0.42662,0.65932 -0.78537,1.1926 -1.07625,1.59984c-0.19392,0.34905 -0.41693,0.62055 -0.66902,0.81447c-0.25209,0.21331 -0.53328,0.36844 -0.84355,0.4654c-0.29088,0.09696 -0.62055,0.15512 -0.98899,0.1745c-0.34905,0.01939 -0.7369,0.02909 -1.16352,0.02909c-1.74527,0 -3.56811,-0.03877 -5.46853,-0.11633c-1.88102,-0.07757 -3.76204,-0.17453 -5.64306,-0.29088c-1.88102,-0.11635 -3.72326,-0.25209 -5.52671,-0.40723c-1.78407,-0.13574 -3.44207,-0.28118 -4.97404,-0.43632c-0.13574,-0.01939 -0.26179,-0.09696 -0.37815,-0.2327c-0.09696,-0.13574 -0.14544,-0.29088 -0.14544,-0.4654c-0.07757,0 -0.02909,-0.16482 0.14544,-0.4945c0.19392,-0.32967 0.45571,-0.75629 0.78537,-1.27987c0.32967,-0.52358 0.68841,-1.11505 1.07625,-1.77437c0.40723,-0.67872 0.79507,-1.35744 1.16352,-2.03616l0.4654,-6.54479c0.07757,-1.10534 0.13574,-1.9295 0.17453,-2.47247c0.05818,-0.54297 0.08727,-0.83385 0.08727,-0.87264c-1.16352,-0.01939 -2.03616,-0.07757 -2.61792,-0.17453c-0.56237,-0.09696 -0.84355,-0.31027 -0.84355,-0.63993c0,-0.15513 0.13574,-0.44602 0.40723,-0.87264c0.29088,-0.42662 0.63993,-0.91143 1.04717,-1.4544c0.40723,-0.56237 0.83385,-1.14413 1.27987,-1.74527c0.4654,-0.60115 0.87264,-1.15382 1.22169,-1.65802l0.7272,-9.88991h-0.08727c-0.42662,0.01939 -0.81447,0.03878 -1.16352,0.05818c-0.34905,0 -0.66902,0 -0.9599,0c-0.93082,0 -1.59984,-0.04847 -2.00707,-0.14544c-0.38785,-0.11635 -0.58175,-0.31997 -0.58175,-0.61085c0,-0.13574 0.11635,-0.41693 0.34905,-0.84355c0.2327,-0.42662 0.52358,-0.91143 0.87264,-1.4544c0.34905,-0.56237 0.7175,-1.14413 1.10534,-1.74527c0.38785,-0.62055 0.7369,-1.1926 1.04717,-1.71619l1.74527,-2.96697h12.15876l14.34037,-1.04717c0.01939,0 0.06788,0.0097 0.14544,0.02909c0.09696,0 0.19392,0.02909 0.29088,0.08727c0.09696,0.03878 0.18423,0.11635 0.26179,0.2327c0.09696,0.11635 0.14544,0.28118 0.14544,0.4945l-0.43632,1.51257c-0.13574,0.42662 -0.30058,0.88233 -0.4945,1.36714c-0.19392,0.4654 -0.40723,0.9502 -0.63993,1.4544l-1.27987,3.37421c-0.13574,0.32967 -0.29088,0.58175 -0.4654,0.75629c-0.17453,0.17453 -0.54297,0.27149 -1.10534,0.29088c-1.47379,0.03878 -3.12211,0.10665 -4.94495,0.20362c-1.80345,0.07757 -3.87839,0.15513 -6.22482,0.2327c-0.07757,0.27149 -0.11635,0.4945 -0.11635,0.66902c0,0.15513 -0.01939,0.4654 -0.05818,0.93082l-0.14544,1.33805c-0.03878,0.62055 -0.09696,1.28957 -0.17453,2.00707c-0.07757,0.7175 -0.17453,1.59984 -0.29088,2.64701c0.98899,-0.03878 1.94889,-0.07757 2.87971,-0.11635c0.9502,-0.03878 1.81315,-0.06788 2.58882,-0.08727c0.77567,-0.03878 1.44469,-0.06788 2.00707,-0.08727c0.58175,-0.01939 0.98899,-0.02909 1.22169,-0.02909c0.15513,0 0.32967,0.05818 0.52358,0.17453c0.19392,0.11635 0.29088,0.33935 0.29088,0.66902c0,0.15513 -0.02909,0.32967 -0.08727,0.52358zM86.16424,299.83625c0.25209,-0.5042 0.51389,-1.06656 0.78537,-1.6871c0.27149,-0.63993 0.52358,-1.32834 0.75629,-2.06524l0.78537,-1.9198c-0.34905,-0.52358 -0.70781,-1.08595 -1.07625,-1.6871c-0.34905,-0.62055 -0.66902,-1.25078 -0.9599,-1.89072c-0.29088,-0.63993 -0.53328,-1.27987 -0.7272,-1.9198c-0.17453,-0.63993 -0.26179,-1.26048 -0.26179,-1.86162c0,-0.03878 0.14544,-0.06788 0.43632,-0.08727c0.31027,-0.03878 0.68841,-0.06788 1.13443,-0.08727c0.4654,-0.01939 0.9599,-0.02909 1.48349,-0.02909c0.54297,-0.01939 1.03747,-0.02909 1.48349,-0.02909c0.4654,-0.01939 0.84355,-0.02909 1.13443,-0.02909c0.31027,-0.01939 0.4654,-0.02909 0.4654,-0.02909c0.44602,-1.16352 0.88233,-2.26886 1.30896,-3.31603c0.42662,-1.04717 0.85325,-2.10403 1.27987,-3.17059c0.42662,-1.06656 0.85325,-2.15251 1.27987,-3.25786c0.42662,-1.12474 0.85325,-2.32704 1.27987,-3.60691c0.81447,-2.40461 1.60954,-4.51833 2.38521,-6.34118c0.77567,-1.82284 1.50287,-3.51964 2.18159,-5.09039c0.07757,-0.19392 0.20362,-0.36844 0.37815,-0.52358c0.19392,-0.17453 0.39754,-0.31997 0.61085,-0.43632c0.21331,-0.11635 0.41693,-0.21331 0.61085,-0.29088c0.21331,-0.07757 0.37815,-0.13574 0.4945,-0.17453c0.07757,-0.01939 0.36844,-0.10665 0.87264,-0.26179c0.52358,-0.15513 1.11505,-0.31997 1.77437,-0.4945c0.65932,-0.17453 1.30896,-0.32967 1.94889,-0.4654c0.65932,-0.13574 1.18291,-0.20362 1.57075,-0.20362h0.52358c0.31027,0 0.60115,0.07757 0.87264,0.2327c0.29088,0.13574 0.4848,0.41693 0.58175,0.84355c0.93082,2.38521 1.9198,4.99343 2.96697,7.82466c1.06656,2.81183 2.10403,5.91456 3.11241,9.30814c0.54297,1.82284 1.07625,3.54873 1.59984,5.17766c0.52358,1.62892 1.04717,3.21906 1.57075,4.77043c0.52358,1.55136 1.04717,3.10271 1.57075,4.65408c0.54297,1.55136 1.09564,3.1512 1.65802,4.79951c0.17453,0.69812 0.34905,1.25078 0.52358,1.65802c0.19392,0.40723 0.36844,0.7272 0.52358,0.9599c0.15513,0.2327 0.28118,0.40723 0.37815,0.52358c0.09696,0.09696 0.14544,0.20362 0.14544,0.31997c0,0.11635 -0.18423,0.2327 -0.55267,0.34905l-6.25391,2.03616c-0.4654,0.17453 -0.94052,0.34905 -1.42531,0.52358c-0.4848,0.17453 -0.94052,0.32967 -1.36714,0.4654c-0.42662,0.13573 -0.80477,0.24238 -1.13443,0.31995c-0.31027,0.09696 -0.53328,0.14544 -0.66902,0.14544h-0.17453c-0.27149,0 -0.4654,-0.08727 -0.58175,-0.26179c-0.11635,-0.15513 -0.19392,-0.31025 -0.2327,-0.46539c-0.19392,-0.63993 -0.38785,-1.21199 -0.58175,-1.71619c-0.19392,-0.52358 -0.38785,-1.03747 -0.58175,-1.54166c-0.17453,-0.52358 -0.35875,-1.07625 -0.55267,-1.65802c-0.17453,-0.58175 -0.34905,-1.27017 -0.52358,-2.06524c-0.03878,-0.09696 -0.14544,-0.17453 -0.31997,-0.2327c-0.17453,-0.07757 -0.38785,-0.13574 -0.63993,-0.17453c-0.2327,-0.03878 -0.4848,-0.05818 -0.75629,-0.05818c-0.27149,-0.01939 -0.52358,-0.02909 -0.75629,-0.02909c-0.7369,0 -1.33805,0.0097 -1.80345,0.02909c-0.44602,0 -0.84355,0.0097 -1.1926,0.02909c-0.34905,0 -0.68841,0.0097 -1.01808,0.02909c-0.31027,0 -0.69812,0 -1.16352,0c-0.56237,0 -1.14413,0 -1.74527,0c-0.58175,-0.01939 -1.11505,-0.03878 -1.59984,-0.05818l-1.65802,-0.05818c-0.5042,1.39622 -1.00837,2.70518 -1.51257,3.92688c-0.5042,1.22169 -1.04717,2.48217 -1.62892,3.78143c-0.03878,0.15513 -0.13574,0.28116 -0.29088,0.37812c-0.13574,0.09696 -0.28118,0.14544 -0.43632,0.14544c-0.11635,0 -0.18423,-0.0097 -0.20362,-0.02909c-1.88102,-0.67871 -3.46146,-1.34772 -4.74133,-2.00705c-1.27987,-0.65932 -2.39492,-1.29926 -3.34511,-1.9198zM105.76952,273.68618c-0.4654,1.72589 -0.93082,3.29664 -1.39622,4.71225c-0.44602,1.39622 -0.86294,2.63731 -1.25078,3.72326c-0.36844,1.08595 -0.68841,2.00707 -0.9599,2.76336c-0.27149,0.7369 -0.4654,1.30896 -0.58175,1.71619v0.26179c0,0.11635 -0.0097,0.19392 -0.02909,0.2327h6.9811c-0.21331,-0.9502 -0.44602,-1.91011 -0.69812,-2.87971c-0.2327,-0.9696 -0.4654,-1.98768 -0.69812,-3.05424c-0.2327,-1.06656 -0.4654,-2.21069 -0.69812,-3.43238c-0.2327,-1.22169 -0.45571,-2.56944 -0.66902,-4.04323zM147.01621,299.39993c-0.09696,0.25209 -0.19392,0.4945 -0.29088,0.7272c-0.07757,0.2327 -0.18423,0.44602 -0.31997,0.63993c-0.13574,0.19392 -0.31027,0.36844 -0.52358,0.52358c-0.19392,0.15513 -0.44602,0.28118 -0.75629,0.37815c-1.22169,0.38785 -2.43369,0.7175 -3.63599,0.98899c-1.2023,0.29088 -2.4143,0.63993 -3.63599,1.04715c-0.2327,0.07757 -0.43632,0.13574 -0.61085,0.17453c-0.17453,0.03878 -0.33935,0.05818 -0.4945,0.05818c-0.34905,0 -0.60115,-0.08727 -0.75629,-0.26179c-0.15513,-0.17453 -0.27149,-0.39753 -0.34905,-0.669l-9.94808,-39.55962c-0.15513,-0.5042 -0.2327,-0.92112 -0.2327,-1.25078c0,-0.42662 0.13574,-0.77567 0.40723,-1.04717c0.27149,-0.29088 0.70781,-0.52358 1.30896,-0.69812c0.62055,-0.19392 1.40592,-0.36844 2.35612,-0.52358c0.9696,-0.15513 2.15251,-0.32967 3.54873,-0.52358c0.67872,-0.09696 1.25078,-0.16482 1.71619,-0.20362c0.4654,-0.05818 0.86294,-0.08727 1.1926,-0.08727c0.56237,0 0.93082,0.09696 1.10534,0.29088c0.19392,0.17453 0.36844,0.45571 0.52358,0.84355l5.5558,24.02666l7.82466,-22.07776c0.11635,-0.31027 0.21331,-0.56237 0.29088,-0.75629c0.09696,-0.19392 0.26179,-0.35875 0.4945,-0.4945c0.25209,-0.15513 0.62055,-0.30058 1.10534,-0.43632c0.5042,-0.15513 1.22169,-0.32967 2.15251,-0.52358c1.4544,-0.31027 2.6567,-0.53328 3.60691,-0.66902c0.9502,-0.13574 1.71619,-0.20362 2.29795,-0.20362c0.7369,0 1.21199,0.08727 1.42531,0.26179c0.2327,0.17453 0.34905,0.42662 0.34905,0.75629c0.01939,0.13574 -0.0097,0.28118 -0.08727,0.43632c-0.05818,0.13574 -0.12605,0.31027 -0.20362,0.52358l-15.41662,38.30883zM162.86917,263.21452c0.11635,-0.07757 0.31027,-0.17453 0.58175,-0.29088c0.29088,-0.13574 0.62055,-0.28118 0.98899,-0.43632c0.38785,-0.15513 0.79507,-0.31997 1.22169,-0.4945c0.44602,-0.19392 0.89202,-0.37815 1.33805,-0.55267l3.37421,-1.33805c0.25209,-0.11635 0.4848,-0.17453 0.69812,-0.17453c0.15513,0 0.31997,0.04847 0.4945,0.14544c0.19392,0.07757 0.40723,0.2327 0.63993,0.4654l6.71932,13.0314l0.17453,-0.43632l2.87971,-5.3231c0.36844,-0.65932 0.7272,-1.30896 1.07625,-1.94889c0.36844,-0.63993 0.68841,-1.21199 0.9599,-1.71619c0.29088,-0.5042 0.53328,-0.91143 0.7272,-1.22169c0.19392,-0.31027 0.31027,-0.4654 0.34905,-0.4654l9.97717,-2.50156c0.2327,-0.05818 0.42662,-0.08727 0.58175,-0.08727c0.44602,0 0.66902,0.20362 0.66902,0.61085c-0.01939,0.09696 -0.03878,0.2327 -0.05818,0.40723c-0.01939,0.15513 -0.07757,0.32967 -0.17453,0.52358l-8.55186,15.85294c-0.42662,0.79507 -0.86294,1.59014 -1.30896,2.38521c-0.42662,0.79507 -0.84355,1.55136 -1.25078,2.26886c-0.40723,0.69812 -0.77567,1.33805 -1.10534,1.9198c-0.31027,0.58175 -0.56237,1.05687 -0.75629,1.42531l-0.20362,0.9599l-1.62892,10.90798c-0.05818,0.32967 -0.10665,0.60115 -0.14544,0.81447c-0.03878,0.21331 -0.09696,0.38785 -0.17453,0.52358c-0.05818,0.13574 -0.14544,0.25209 -0.26179,0.34905c-0.09696,0.09696 -0.2424,0.19392 -0.43632,0.29088l-8.26097,4.33408c-0.31027,0.15513 -0.63993,0.28118 -0.98899,0.37815c-0.32967,0.09696 -0.64963,0.14544 -0.9599,0.14544c-0.32967,0 -0.61085,-0.07757 -0.84355,-0.2327c-0.2327,-0.13574 -0.34905,-0.36843 -0.34905,-0.69809v-0.11635c0.07757,-1.10534 0.21331,-2.38521 0.40723,-3.83961c0.21331,-1.47379 0.43632,-2.90879 0.66902,-4.30501l1.62892,-10.79163c-0.31027,-0.65932 -0.7175,-1.53196 -1.22169,-2.61792c-0.5042,-1.08595 -1.04717,-2.25916 -1.62892,-3.51964c-0.58175,-1.26048 -1.1926,-2.55974 -1.83254,-3.89779c-0.62055,-1.33805 -1.21199,-2.59852 -1.77437,-3.78143c-0.54297,-1.2023 -1.03747,-2.25916 -1.48349,-3.17059c-0.42662,-0.91143 -0.74659,-1.58045 -0.9599,-2.00707c-0.09696,-0.29088 -0.14544,-0.59146 -0.14544,-0.90172c0,-0.17453 0.01939,-0.33935 0.05818,-0.4945c0.05818,-0.17453 0.15513,-0.30058 0.29088,-0.37815z" fill="#000000" stroke="#ffffff" stroke-width="2.5" stroke-linecap="square"/><path d="M14.95274,337.35072v-20.97715h-3.79043v-4.12792h13.11071v4.12792h-3.7385v20.97715zM31.63087,337.66226c-1.2808,0 -2.39715,-0.21635 -3.34907,-0.64904c-0.93462,-0.43269 -1.6529,-1.08175 -2.15483,-1.94714c-0.50193,-0.8827 -0.75289,-1.9731 -0.75289,-3.27119v-6.802c0,-1.31539 0.25096,-2.40579 0.75289,-3.27119c0.50193,-0.86539 1.2202,-1.51444 2.15483,-1.94713c0.95192,-0.43269 2.06829,-0.64904 3.34907,-0.64904c1.28079,0 2.38849,0.21635 3.32311,0.64904c0.93462,0.43269 1.66155,1.08173 2.18079,1.94713c0.51924,0.86539 0.77885,1.95578 0.77885,3.27119v6.802c0,1.29809 -0.25961,2.38849 -0.77885,3.27119c-0.51924,0.86539 -1.24616,1.51445 -2.18079,1.94714c-0.93462,0.43269 -2.04232,0.64904 -3.32311,0.64904zM31.65683,334.31318c0.32885,0 0.58846,-0.08655 0.77885,-0.25962c0.19039,-0.17307 0.3202,-0.41539 0.38942,-0.72692c0.06923,-0.32885 0.10385,-0.72694 0.10385,-1.19424v-7.50297c0,-0.45 -0.03462,-0.83078 -0.10385,-1.14231c-0.06923,-0.32885 -0.19903,-0.57982 -0.38942,-0.75289c-0.19039,-0.17307 -0.45001,-0.25962 -0.77885,-0.25962c-0.32885,0 -0.58846,0.08655 -0.77885,0.25962c-0.19039,0.17307 -0.32885,0.42405 -0.41539,0.75289c-0.06922,0.31154 -0.10384,0.69231 -0.10384,1.14231v7.50297c0,0.46731 0.03462,0.86539 0.10384,1.19424c0.08655,0.31154 0.225,0.55385 0.41539,0.72692c0.19039,0.17307 0.45,0.25962 0.77885,0.25962zM42.36121,337.35072l-2.64811,-17.91366h4.20581l1.32406,10.15107l1.37597,-10.15107h3.66062l1.2202,10.41069l1.50579,-10.41069h3.92023l-2.67406,17.91366h-4.33562l-1.55772,-10.07319l-1.73944,10.07319zM65.02115,337.66226c-1.31539,0 -2.44042,-0.23365 -3.37504,-0.70096c-0.91732,-0.46731 -1.62694,-1.15097 -2.12886,-2.05099c-0.48463,-0.9 -0.72693,-1.98176 -0.72693,-3.24523v-6.56833c0,-1.2808 0.24231,-2.36252 0.72693,-3.24523c0.50193,-0.8827 1.22021,-1.55772 2.15483,-2.02503c0.95193,-0.46731 2.06828,-0.70097 3.34907,-0.70097c1.31539,0 2.40579,0.22501 3.27119,0.67502c0.8827,0.45 1.54905,1.12502 1.99906,2.02501c0.45001,0.8827 0.675,1.9731 0.675,3.27119v3.60869h-7.19142v3.42696c0,0.46731 0.05193,0.84808 0.15577,1.14231c0.10384,0.27692 0.24231,0.47595 0.41538,0.5971c0.19039,0.12115 0.4154,0.18175 0.67502,0.18175c0.24232,0 0.45866,-0.05193 0.64905,-0.15577c0.2077,-0.12115 0.36346,-0.30288 0.46731,-0.54519c0.12115,-0.24232 0.18173,-0.57982 0.18173,-1.01251v-1.89522h4.64716v1.73944c0,1.81733 -0.52789,3.18464 -1.58366,4.10197c-1.05577,0.91732 -2.50964,1.37597 -4.36158,1.37597zM63.77498,326.34292h2.54426v-1.79137c0,-0.48462 -0.06059,-0.85674 -0.18174,-1.11635c-0.10385,-0.27692 -0.25961,-0.46733 -0.46731,-0.57117c-0.19039,-0.10384 -0.42404,-0.15577 -0.70096,-0.15577c-0.24232,0 -0.45001,0.06923 -0.6231,0.2077c-0.17307,0.12115 -0.31154,0.32884 -0.41539,0.62309c-0.10384,0.29424 -0.15577,0.72692 -0.15577,1.29809zM73.77495,337.35072v-17.91366h5.06255v2.95964c0.57117,-1.02116 1.14232,-1.80002 1.71349,-2.33657c0.58848,-0.55386 1.29808,-0.83078 2.12887,-0.83078c0.17307,0 0.3202,0.00866 0.44135,0.02596c0.12115,0 0.23366,0.0173 0.33751,0.05192v5.03659c-0.225,-0.10384 -0.48462,-0.19039 -0.77886,-0.25961c-0.27692,-0.08655 -0.56249,-0.12981 -0.85675,-0.12981c-0.58848,0 -1.13367,0.15577 -1.63559,0.46731c-0.48462,0.31154 -0.93462,0.73558 -1.35002,1.27212v11.65686zM93.81657,337.35072v-25.10506h6.33468c2.1981,0 3.90292,0.27691 5.11447,0.83078c1.22886,0.53655 2.0856,1.39328 2.57023,2.57022c0.50193,1.15962 0.75289,2.67407 0.75289,4.54332v9.11259c0,1.86924 -0.25096,3.401 -0.75289,4.59524c-0.48462,1.19424 -1.33272,2.06829 -2.54426,2.62214c-1.21155,0.55386 -2.89907,0.83078 -5.06255,0.83078zM99.34644,333.50837h0.88269c0.84809,0 1.45386,-0.12115 1.81732,-0.36347c0.38077,-0.25961 0.61444,-0.63173 0.70098,-1.11635c0.08655,-0.50193 0.12981,-1.12502 0.12981,-1.86926v-10.92991c0,-0.74423 -0.06059,-1.34136 -0.18174,-1.79137c-0.10385,-0.46731 -0.34616,-0.80481 -0.72694,-1.01251c-0.36347,-0.2077 -0.95193,-0.31154 -1.76539,-0.31154h-0.85675zM117.56346,337.66226c-1.31539,0 -2.44042,-0.23365 -3.37503,-0.70096c-0.91732,-0.46731 -1.62694,-1.15097 -2.12887,-2.05099c-0.48462,-0.9 -0.72693,-1.98176 -0.72693,-3.24523v-6.56833c0,-1.2808 0.24231,-2.36252 0.72693,-3.24523c0.50193,-0.8827 1.2202,-1.55772 2.15482,-2.02503c0.95193,-0.46731 2.0683,-0.70097 3.34907,-0.70097c1.31539,0 2.40579,0.22501 3.27119,0.67502c0.8827,0.45 1.54904,1.12502 1.99905,2.02501c0.45001,0.8827 0.67502,1.9731 0.67502,3.27119v3.60869h-7.19143v3.42696c0,0.46731 0.05192,0.84808 0.15577,1.14231c0.10385,0.27692 0.24232,0.47595 0.4154,0.5971c0.19039,0.12115 0.41539,0.18175 0.675,0.18175c0.24232,0 0.45866,-0.05193 0.64905,-0.15577c0.2077,-0.12115 0.36346,-0.30288 0.46731,-0.54519c0.12115,-0.24232 0.18173,-0.57982 0.18173,-1.01251v-1.89522h4.64717v1.73944c0,1.81733 -0.5279,3.18464 -1.58367,4.10197c-1.05577,0.91732 -2.50964,1.37597 -4.36158,1.37597zM116.3173,326.34292h2.54426v-1.79137c0,-0.48462 -0.06059,-0.85674 -0.18174,-1.11635c-0.10385,-0.27692 -0.25961,-0.46733 -0.46731,-0.57117c-0.19039,-0.10384 -0.42405,-0.15577 -0.70097,-0.15577c-0.24232,0 -0.45,0.06923 -0.62309,0.2077c-0.17307,0.12115 -0.31154,0.32884 -0.4154,0.62309c-0.10385,0.29424 -0.15578,0.72692 -0.15578,1.29809zM126.91437,337.35072v-14.51265h-1.71349v-3.401h1.71349v-1.32405c0,-1.05577 0.10384,-1.97311 0.31154,-2.75196c0.225,-0.79616 0.68367,-1.41059 1.37599,-1.84329c0.69231,-0.43269 1.7654,-0.64904 3.21925,-0.64904c0.38077,0 0.76156,0.00865 1.14233,0.02596c0.38077,0.01731 0.80481,0.06059 1.27212,0.12981v3.7385c-0.15577,-0.03462 -0.32884,-0.06923 -0.51923,-0.10385c-0.19039,-0.03462 -0.38077,-0.05192 -0.57116,-0.05192c-0.38077,0 -0.675,0.1125 -0.8827,0.3375c-0.19039,0.2077 -0.28558,0.5625 -0.28558,1.06443v1.4279h2.25868v3.40099h-2.25868v14.51266zM142.05219,337.66226c-1.31539,0 -2.4404,-0.23365 -3.37503,-0.70096c-0.91733,-0.46731 -1.62693,-1.15097 -2.12886,-2.05099c-0.48461,-0.9 -0.72694,-1.98176 -0.72694,-3.24523v-6.56833c0,-1.2808 0.24232,-2.36252 0.72694,-3.24523c0.50193,-0.8827 1.2202,-1.55772 2.15482,-2.02503c0.95193,-0.46731 2.0683,-0.70097 3.34907,-0.70097c1.31539,0 2.40579,0.22501 3.27119,0.67502c0.8827,0.45 1.54906,1.12502 1.99907,2.02501c0.45001,0.8827 0.675,1.9731 0.675,3.27119v3.60869h-7.19142v3.42696c0,0.46731 0.05193,0.84808 0.15577,1.14231c0.10385,0.27692 0.24231,0.47595 0.41539,0.5971c0.19039,0.12115 0.41539,0.18175 0.675,0.18175c0.24231,0 0.45865,-0.05193 0.64904,-0.15577c0.2077,-0.12115 0.36346,-0.30288 0.46731,-0.54519c0.12115,-0.24232 0.18174,-0.57982 0.18174,-1.01251v-1.89522h4.64717v1.73944c0,1.81733 -0.5279,3.18464 -1.58367,4.10197c-1.05578,0.91732 -2.50964,1.37597 -4.36158,1.37597zM140.80602,326.34292h2.54426v-1.79137c0,-0.48462 -0.06058,-0.85674 -0.18173,-1.11635c-0.10385,-0.27692 -0.25961,-0.46733 -0.46731,-0.57117c-0.19039,-0.10384 -0.42405,-0.15577 -0.70097,-0.15577c-0.24231,0 -0.45,0.06923 -0.62308,0.2077c-0.17308,0.12115 -0.31154,0.32884 -0.41539,0.62309c-0.10385,0.29424 -0.15577,0.72692 -0.15577,1.29809zM150.75403,337.35072v-17.91366h5.06256v1.79137c0.6577,-0.6577 1.34136,-1.16827 2.05099,-1.53174c0.70962,-0.38077 1.45387,-0.57115 2.23272,-0.57115c0.74423,0 1.35867,0.18173 1.84328,0.54519c0.50193,0.36347 0.87404,0.86541 1.11635,1.50579c0.24231,0.62308 0.36346,1.33271 0.36346,2.12886v14.04534h-5.01063v-13.31842c0,-0.43269 -0.07789,-0.76154 -0.23365,-0.98654c-0.13846,-0.24232 -0.40674,-0.36347 -0.80482,-0.36347c-0.2077,0 -0.45001,0.06058 -0.72693,0.18173c-0.27692,0.10384 -0.55387,0.25961 -0.83078,0.46731v14.01939zM171.97412,337.66226c-1.5577,0 -2.86445,-0.34616 -3.92023,-1.03847c-1.03847,-0.70963 -1.88656,-1.8606 -2.54426,-3.45293l3.42697,-1.53174c0.34616,0.81347 0.73558,1.45386 1.16827,1.92116c0.45001,0.46731 0.94328,0.70097 1.47983,0.70097c0.39809,0 0.69231,-0.08655 0.8827,-0.25962c0.19039,-0.17307 0.28556,-0.39808 0.28556,-0.675c0,-0.48462 -0.18171,-0.91731 -0.54518,-1.29809c-0.36346,-0.39808 -1.00385,-0.9779 -1.92118,-1.73944l-1.2981,-1.0904c-0.95193,-0.81347 -1.70481,-1.59233 -2.25868,-2.33656c-0.55385,-0.76155 -0.83077,-1.69617 -0.83077,-2.80387c0,-0.96924 0.25096,-1.82599 0.75289,-2.57022c0.51925,-0.74423 1.2029,-1.32405 2.05099,-1.73944c0.84809,-0.41539 1.75673,-0.62308 2.72599,-0.62308c1.47116,0 2.70003,0.40673 3.68658,1.2202c0.98655,0.79616 1.67885,1.92984 2.07693,3.401l-3.24522,1.47982c-0.13846,-0.39808 -0.3202,-0.78751 -0.5452,-1.16828c-0.225,-0.39808 -0.50193,-0.72693 -0.83077,-0.98654c-0.31154,-0.27692 -0.64904,-0.4154 -1.01251,-0.4154c-0.32885,0 -0.59713,0.09519 -0.80483,0.28558c-0.19039,0.19039 -0.28558,0.43269 -0.28558,0.72693c0,0.39808 0.21635,0.83078 0.64905,1.29809c0.45001,0.45 1.0731,0.99522 1.86925,1.63559l1.27214,1.11635c0.50193,0.43269 1.00385,0.90001 1.50578,1.40194c0.50193,0.48462 0.90866,1.02982 1.2202,1.63559c0.32885,0.58848 0.49327,1.26348 0.49327,2.02503c0,1.03847 -0.25961,1.92984 -0.77885,2.67407c-0.51925,0.72693 -1.20289,1.28078 -2.05098,1.66155c-0.83078,0.36347 -1.72215,0.54519 -2.67407,0.54519zM185.48092,337.66226c-1.31539,0 -2.4404,-0.23365 -3.37503,-0.70096c-0.91733,-0.46731 -1.62694,-1.15097 -2.12887,-2.05099c-0.48461,-0.9 -0.72693,-1.98176 -0.72693,-3.24523v-6.56833c0,-1.2808 0.24231,-2.36252 0.72693,-3.24523c0.50193,-0.8827 1.2202,-1.55772 2.15483,-2.02503c0.95193,-0.46731 2.06829,-0.70097 3.34907,-0.70097c1.31539,0 2.40579,0.22501 3.27119,0.67502c0.8827,0.45 1.54905,1.12502 1.99905,2.02501c0.45001,0.8827 0.675,1.9731 0.675,3.27119v3.60869h-7.19142v3.42696c0,0.46731 0.05192,0.84808 0.15577,1.14231c0.10385,0.27692 0.2423,0.47595 0.41539,0.5971c0.19039,0.12115 0.4154,0.18175 0.675,0.18175c0.24231,0 0.45865,-0.05193 0.64905,-0.15577c0.2077,-0.12115 0.36346,-0.30288 0.46731,-0.54519c0.12115,-0.24232 0.18173,-0.57982 0.18173,-1.01251v-1.89522h4.64717v1.73944c0,1.81733 -0.5279,3.18464 -1.58367,4.10197c-1.05578,0.91732 -2.50964,1.37597 -4.36158,1.37597zM184.23475,326.34292h2.54426v-1.79137c0,-0.48462 -0.06059,-0.85674 -0.18174,-1.11635c-0.10385,-0.27692 -0.25961,-0.46733 -0.46731,-0.57117c-0.19039,-0.10384 -0.42405,-0.15577 -0.70096,-0.15577c-0.24231,0 -0.45001,0.06923 -0.6231,0.2077c-0.17308,0.12115 -0.31154,0.32884 -0.41539,0.62309c-0.10385,0.29424 -0.15577,0.72692 -0.15577,1.29809z" fill="#ffffff" stroke="#000000" stroke-width="1.5" stroke-linecap="square"/></g></g></svg>