<svg version="1.1" xmlns="http://www.w3.org/2000/svg" xmlns:xlink="http://www.w3.org/1999/xlink" width="114.45581" height="55.95077" viewBox="0,0,114.45581,55.95077"><g transform="translate(-196.27469,-144.09094)"><g data-paper-data="{&quot;isPaintingLayer&quot;:true}" fill-rule="nonzero" stroke-linejoin="miter" stroke-miterlimit="10" stroke-dasharray="" stroke-dashoffset="0" style="mix-blend-mode: normal"><path d="M290.8063,172.75013l9.85634,-6.27776l-1.68966,8.20938l8.7299,5.15096l-6.75862,5.63389l1.54885,9.4971l-12.67242,-6.76066" fill="#fff300" stroke="#eda41a" stroke-width="3.5" stroke-linecap="round"/><path d="M234.90632,166.12536c0.54589,9.36599 -6.26045,17.48434 -15.20239,18.13285c-8.94194,0.6485 -16.63335,-6.41842 -17.17924,-15.78441c-0.54589,-9.36599 6.26045,-17.48434 15.20239,-18.13285c8.94194,-0.6485 16.63335,6.41842 17.17924,15.78441z" fill="none" stroke="#d4c47a" stroke-width="12.5" stroke-linecap="butt"/><path d="M223.2355,154.07958c0,-3.2723 2.6527,-5.925 5.925,-5.925c3.2723,0 5.925,2.6527 5.925,5.925c0,3.2723 -2.6527,5.925 -5.925,5.925c-3.2723,0 -5.925,-2.6527 -5.925,-5.925z" fill="#d4aa7b" stroke="none" stroke-width="0.5" stroke-linecap="butt"/><path d="M209.6705,150.56958c0,-3.41036 2.76464,-6.175 6.175,-6.175c3.41036,0 6.175,2.76464 6.175,6.175c0,3.41036 -2.76464,6.175 -6.175,6.175c-3.41036,0 -6.175,-2.76464 -6.175,-6.175z" fill="#d4aa7b" stroke="none" stroke-width="0.5" stroke-linecap="butt"/><path d="M198.3655,159.43456c0,-3.27229 2.65271,-5.925 5.925,-5.925c3.27229,0 5.925,2.65271 5.925,5.925c0,3.27229 -2.65271,5.925 -5.925,5.925c-3.27229,0 -5.925,-2.65271 -5.925,-5.925z" fill="#d4aa7b" stroke="none" stroke-width="0.5" stroke-linecap="butt"/><path d="M197.0205,173.18959c0,-3.47939 2.82062,-6.3 6.3,-6.3c3.47939,0 6.3,2.82061 6.3,6.3c0,3.47939 -2.8206,6.3 -6.3,6.3c-3.47939,0 -6.3,-2.8206 -6.3,-6.3z" fill="#d4aa7b" stroke="none" stroke-width="0.5" stroke-linecap="butt"/><path d="M206.5005,183.03209c0,-3.44487 2.79263,-6.2375 6.2375,-6.2375c3.44487,0 6.2375,2.79263 6.2375,6.2375c0,3.44487 -2.79263,6.2375 -6.2375,6.2375c-3.44487,0 -6.2375,-2.79262 -6.2375,-6.2375z" fill="#d4aa7b" stroke="none" stroke-width="0.5" stroke-linecap="butt"/><path d="M230.50001,187.45006v-14.875h58.25v14.875z" fill="#6fa17a" stroke="#5c8665" stroke-width="4" stroke-linecap="butt"/><path d="M221.95835,198.04172v-36.08333h36.08333v36.08333z" fill="#6fa17a" stroke="#5c8665" stroke-width="4" stroke-linecap="butt"/><path d="M255.69098,195.89457l-33.125,-33.125" fill="none" stroke="#5c8665" stroke-width="4" stroke-linecap="round"/><path d="M287.56598,186.26957l-28.375,-12.25" fill="none" stroke="#5c8665" stroke-width="4" stroke-linecap="round"/><path d="M255.81599,165.14456l-32.75,32.75" fill="none" stroke="#5c8665" stroke-width="4" stroke-linecap="round"/><path d="M228.81599,190.89456v-22.625h22.625v22.625z" fill="#80b98c" stroke="#5c8665" stroke-width="4" stroke-linecap="butt"/><path d="M258.94098,186.26955l28.5,-11.5" fill="none" stroke="#5c8665" stroke-width="4" stroke-linecap="round"/></g></g></svg>