<svg version="1.1" xmlns="http://www.w3.org/2000/svg" xmlns:xlink="http://www.w3.org/1999/xlink" width="70.79166" height="40.08333" viewBox="0,0,70.79166,40.08333"><g transform="translate(-219.95835,-159.95835)"><g data-paper-data="{&quot;isPaintingLayer&quot;:true}" fill-rule="nonzero" stroke-linecap="butt" stroke-linejoin="miter" stroke-miterlimit="10" stroke-dasharray="" stroke-dashoffset="0" style="mix-blend-mode: normal"><path d="M230.50001,188.95001v-17.5h58.25v17.5z" fill="#e04646" stroke="#8f0000" stroke-width="4"/><path d="M221.95835,198.04168v-36.08333h36.08333v36.08333z" fill="#e04646" stroke="#8f0000" stroke-width="4"/><path d="M226.44098,169.01954c0,-1.17361 0.95139,-2.125 2.125,-2.125c1.17361,0 2.125,0.95139 2.125,2.125c0,1.17361 -0.95139,2.125 -2.125,2.125c-1.17361,0 -2.125,-0.95139 -2.125,-2.125z" fill="#42ff00" stroke="none" stroke-width="0"/><path d="M237.56599,169.01955c0,-1.17361 0.95139,-2.125 2.125,-2.125c1.17361,0 2.125,0.95139 2.125,2.125c0,1.17361 -0.95139,2.125 -2.125,2.125c-1.17361,0 -2.125,-0.95139 -2.125,-2.125z" fill="#000000" stroke="none" stroke-width="0"/><path d="M249.44099,169.01955c0,-1.17361 0.95139,-2.125 2.125,-2.125c1.17361,0 2.125,0.95139 2.125,2.125c0,1.17361 -0.95139,2.125 -2.125,2.125c-1.17361,0 -2.125,-0.95139 -2.125,-2.125z" fill="#000000" stroke="none" stroke-width="0"/></g></g></svg>