<svg version="1.1" xmlns="http://www.w3.org/2000/svg" xmlns:xlink="http://www.w3.org/1999/xlink" width="57.88463" height="57.58589" viewBox="0,0,57.88463,57.58589"><g transform="translate(-211.0577,-151.20708)"><g data-paper-data="{&quot;isPaintingLayer&quot;:true}" fill-rule="nonzero" stroke-width="4" stroke-linecap="butt" stroke-linejoin="miter" stroke-miterlimit="10" stroke-dasharray="" stroke-dashoffset="0" style="mix-blend-mode: normal"><path d="M213.35645,198.79058c0,-11.60228 -0.29874,-31.48574 -0.29874,-37.64083c0,-4.5767 4.84473,-7.94266 8.79406,-7.94266c6.25173,0 25.20023,0 36.44588,0c5.12102,0 8.64469,4.59348 8.64469,7.79329c0,5.97306 0,25.99703 0,37.49145c0,4.93751 -3.72726,8.30115 -7.151,8.30115c-6.44113,0 -26.88877,0 -38.08893,0c-3.97046,0 -8.34596,-3.22231 -8.34596,-8.00241z" fill="#e04646" stroke="#8f0000"/><path d="M218.46182,201.76956v-43.375h43.375v43.375z" fill="none" stroke="#8f0000"/><path d="M223.58682,197.26956v-33.5h33.5v33.5z" fill="none" stroke="#8f0000"/><path d="M228.83682,192.26956v-23.25h23.25v23.25z" fill="none" stroke="#8f0000"/></g></g></svg>