<svg version="1.1" xmlns="http://www.w3.org/2000/svg" xmlns:xlink="http://www.w3.org/1999/xlink" width="71.83115" height="58.49399" viewBox="0,0,71.83115,58.49399"><g transform="translate(-210.39804,-150.58634)"><g data-paper-data="{&quot;isPaintingLayer&quot;:true}" fill-rule="nonzero" stroke-linecap="butt" stroke-linejoin="miter" stroke-miterlimit="10" stroke-dasharray="" stroke-dashoffset="0" style="mix-blend-mode: normal"><path d="M237.49842,184.79435v-7.82844h4.5859v7.82844z" fill="#00a8ff" stroke="none" stroke-width="0"/><path d="M254.93753,190.00002v-20.33333h25.29167v20.33333z" fill="#00a60e" stroke="#007b0a" stroke-width="4"/><path d="M221.95837,198.04168v-36.08333h36.08333v36.08333z" fill="#00a60e" stroke="#007b0a" stroke-width="4"/><path d="M237.22048,208.08033v-56.49399h5.14176v56.49399z" fill="#50ff00" stroke="#3ab700" stroke-width="2"/><path d="M211.39805,177.42912h43.62062v5.14176h-43.62062z" fill="#50ff00" stroke="#3ab700" stroke-width="2"/><path d="M238.18752,187.5625v-11.75h3.25v11.75z" fill="#00a8ff" stroke="none" stroke-width="0"/><path d="M258.9247,201.12719l-41.35259,-38.4907l3.5032,-3.76368l41.35259,38.4907z" fill="#50ff00" stroke="#3ab700" stroke-width="2"/><path d="M218.87282,198.9247l38.49071,-41.35259l3.76368,3.5032l-38.49071,41.35259z" fill="#50ff00" stroke="#3ab700" stroke-width="2"/><path d="M238.125,188.3125v-16.625h3.25v16.625z" fill="#50ff00" stroke="none" stroke-width="0"/><path d="M248.3125,181.625h-16.625v-3.25h16.625z" fill="#50ff00" stroke="none" stroke-width="0"/><path d="M247.02688,175.48035l-11.54653,11.54653l-2.25722,-2.25722l11.54653,-11.54653z" fill="#50ff00" stroke="none" stroke-width="0"/><path d="M235.25838,173.91219l11.42676,9.94181l-1.94351,2.23381l-11.42676,-9.94181z" fill="#50ff00" stroke="none" stroke-width="0"/></g></g></svg>