<svg version="1.1" xmlns="http://www.w3.org/2000/svg" xmlns:xlink="http://www.w3.org/1999/xlink" width="74.24833" height="60.16879" viewBox="0,0,74.24833,60.16879"><g transform="translate(-209.50946,-150.32175)"><g data-paper-data="{&quot;isPaintingLayer&quot;:true}" fill-rule="nonzero" stroke-linecap="butt" stroke-linejoin="miter" stroke-miterlimit="10" stroke-dasharray="" stroke-dashoffset="0" style="mix-blend-mode: normal"><path d="M213.35647,198.79058c0,-11.60228 -0.29874,-31.48574 -0.29874,-37.64083c0,-4.5767 4.84473,-7.94266 8.79406,-7.94266c6.25173,0 25.20023,0 36.44588,0c5.12102,0 8.64469,4.59348 8.64469,7.79329c0,5.97306 0,25.99703 0,37.49145c0,4.93751 -3.72726,8.30115 -7.151,8.30115c-6.44113,0 -26.88877,0 -38.08893,0c-3.97046,0 -8.34596,-3.22231 -8.34596,-8.00241z" fill="#009fa7" stroke="#006f74" stroke-width="4"/><path d="M237.49843,184.79435v-7.82844h4.5859v7.82844z" fill="#00a8ff" stroke="none" stroke-width="0"/><path d="M254.93754,190.00002v-20.33333h25.29167v20.33333z" fill="#009fa7" stroke="#006f74" stroke-width="4"/><path d="M221.95838,198.04168v-36.08333h36.08333v36.08333z" fill="#009fa7" stroke="#006f74" stroke-width="4"/><path d="M237.22049,208.08033v-56.49399h5.14176v56.49399z" fill="#00a8ff" stroke="#008fd6" stroke-width="2"/><path d="M211.39806,177.42912h43.62062v5.14176h-43.62062z" fill="#00a8ff" stroke="#008fd6" stroke-width="2"/><path d="M238.18753,187.5625v-11.75h3.25v11.75z" fill="#00a8ff" stroke="none" stroke-width="0"/><path d="M209.50946,210.49054v-60.16879h74.24833v60.16879z" fill="none" stroke="none" stroke-width="0"/></g></g></svg>