<svg version="1.1" xmlns="http://www.w3.org/2000/svg" xmlns:xlink="http://www.w3.org/1999/xlink" width="33.625" height="33.625" viewBox="0,0,33.625,33.625"><g transform="translate(-223.1875,-163.1875)"><g data-paper-data="{&quot;isPaintingLayer&quot;:true}" fill="#004106" fill-rule="nonzero" stroke="#003205" stroke-linecap="butt" stroke-linejoin="miter" stroke-miterlimit="10" stroke-dasharray="" stroke-dashoffset="0" style="mix-blend-mode: normal"><path d="M224.6875,180c0,-8.45686 6.85564,-15.3125 15.3125,-15.3125c8.45686,0 15.3125,6.85564 15.3125,15.3125c0,8.45686 -6.85564,15.3125 -15.3125,15.3125c-8.45686,0 -15.3125,-6.85564 -15.3125,-15.3125z" stroke-width="3"/><path d="M228.75,180c0,-6.21321 5.03679,-11.25 11.25,-11.25c6.21321,0 11.25,5.03679 11.25,11.25c0,6.21321 -5.03679,11.25 -11.25,11.25c-6.21321,0 -11.25,-5.03679 -11.25,-11.25z" stroke-width="2.5"/><path d="M232.3125,180c0,-4.24569 3.44181,-7.6875 7.6875,-7.6875c4.24569,0 7.6875,3.44181 7.6875,7.6875c0,4.24569 -3.44181,7.6875 -7.6875,7.6875c-4.24569,0 -7.6875,-3.44181 -7.6875,-7.6875z" stroke-width="2"/><path d="M235.0625,180c0,-2.72691 2.21059,-4.9375 4.9375,-4.9375c2.72691,0 4.9375,2.21059 4.9375,4.9375c0,2.72691 -2.21059,4.9375 -4.9375,4.9375c-2.72691,0 -4.9375,-2.21059 -4.9375,-4.9375z" stroke-width="1.5"/><path d="M237.0625,180c0,-1.62234 1.31516,-2.9375 2.9375,-2.9375c1.62234,0 2.9375,1.31516 2.9375,2.9375c0,1.62234 -1.31516,2.9375 -2.9375,2.9375c-1.62234,0 -2.9375,-1.31516 -2.9375,-2.9375z" stroke-width="1"/><path d="M238.4375,180c0,-0.86295 0.69955,-1.5625 1.5625,-1.5625c0.86295,0 1.5625,0.69955 1.5625,1.5625c0,0.86295 -0.69955,1.5625 -1.5625,1.5625c-0.86295,0 -1.5625,-0.69955 -1.5625,-1.5625z" stroke-width="0.5"/></g></g></svg>