<svg version="1.1" xmlns="http://www.w3.org/2000/svg" xmlns:xlink="http://www.w3.org/1999/xlink" width="113.20581" height="54.77214" viewBox="0,0,113.20581,54.77214"><g transform="translate(-197.52469,-145.26956)"><g data-paper-data="{&quot;isPaintingLayer&quot;:true}" fill-rule="nonzero" stroke-linejoin="miter" stroke-miterlimit="10" stroke-dasharray="" stroke-dashoffset="0" style="mix-blend-mode: normal"><path d="M290.8063,172.75012l9.85634,-6.27776l-1.68966,8.20938l8.7299,5.15096l-6.75862,5.63389l1.54885,9.4971l-12.67242,-6.76066" fill="#fff300" stroke="#eda41a" stroke-width="3.5" stroke-linecap="round"/><path d="M234.90632,166.12535c0.54589,9.36599 -6.26045,17.48434 -15.20239,18.13285c-8.94194,0.6485 -16.63335,-6.41842 -17.17924,-15.78441c-0.54589,-9.36599 6.26045,-17.48434 15.20239,-18.13285c8.94194,-0.6485 16.63335,6.41842 17.17924,15.78441z" fill="none" stroke="#d4c47a" stroke-width="10" stroke-linecap="butt"/><path d="M224.6105,154.82957c0,-2.85808 2.31692,-5.175 5.175,-5.175c2.85808,0 5.175,2.31692 5.175,5.175c0,2.85808 -2.31692,5.175 -5.175,5.175c-2.85808,0 -5.175,-2.31692 -5.175,-5.175z" fill="#d4aa7b" stroke="none" stroke-width="0.5" stroke-linecap="butt"/><path d="M211.6705,150.31957c0,-2.78904 2.26096,-5.05 5.05,-5.05c2.78904,0 5.05,2.26096 5.05,5.05c0,2.78904 -2.26096,5.05 -5.05,5.05c-2.78904,0 -5.05,-2.26096 -5.05,-5.05z" fill="#d4aa7b" stroke="none" stroke-width="0.5" stroke-linecap="butt"/><path d="M200.3655,157.93455c0,-2.65097 2.14903,-4.8 4.8,-4.8c2.65097,0 4.8,2.14903 4.8,4.8c0,2.65097 -2.14903,4.8 -4.8,4.8c-2.65097,0 -4.8,-2.14903 -4.8,-4.8z" fill="#d4aa7b" stroke="none" stroke-width="0.5" stroke-linecap="butt"/><path d="M198.0205,171.75208c0,-2.82355 2.28895,-5.1125 5.1125,-5.1125c2.82355,0 5.1125,2.28895 5.1125,5.1125c0,2.82355 -2.28894,5.1125 -5.1125,5.1125c-2.82355,0 -5.1125,-2.28894 -5.1125,-5.1125z" fill="#d4aa7b" stroke="none" stroke-width="0.5" stroke-linecap="butt"/><path d="M205.7505,182.40708c0,-2.82355 2.28895,-5.1125 5.1125,-5.1125c2.82355,0 5.1125,2.28895 5.1125,5.1125c0,2.82355 -2.28895,5.1125 -5.1125,5.1125c-2.82355,0 -5.1125,-2.28894 -5.1125,-5.1125z" fill="#d4aa7b" stroke="none" stroke-width="0.5" stroke-linecap="butt"/><path d="M230.50001,187.45005v-14.875h58.25v14.875z" fill="#6fa17a" stroke="#5c8665" stroke-width="4" stroke-linecap="butt"/><path d="M221.95835,198.04171v-36.08333h36.08333v36.08333z" fill="#6fa17a" stroke="#5c8665" stroke-width="4" stroke-linecap="butt"/><path d="M222.56598,162.76956l33.125,33.125" fill="none" stroke="#5c8665" stroke-width="4" stroke-linecap="round"/><path d="M259.19098,174.01956l28.375,12.25" fill="none" stroke="#5c8665" stroke-width="4" stroke-linecap="round"/></g></g></svg>