<svg version="1.1" xmlns="http://www.w3.org/2000/svg" xmlns:xlink="http://www.w3.org/1999/xlink" width="107.6" height="60.8" viewBox="0,0,107.6,60.8"><g transform="translate(-181.5,-146.4)"><g data-paper-data="{&quot;isPaintingLayer&quot;:true}" fill-rule="nonzero" stroke-linejoin="miter" stroke-miterlimit="10" stroke-dasharray="" stroke-dashoffset="0" style="mix-blend-mode: normal"><path d="M202.1485,178.05915c0,-5.4308 4.40254,-9.83333 9.83334,-9.83333c5.4308,0 9.83333,4.40253 9.83333,9.83333c0,5.4308 -4.40253,9.83334 -9.83333,9.83334c-5.4308,0 -9.83334,-4.40254 -9.83334,-9.83334z" fill="#ff6666" stroke="none" stroke-width="NaN" stroke-linecap="butt"/><path d="M211.98371,171.70831v7.95036" fill="none" stroke="#ffffff" stroke-width="2.5" stroke-linecap="round"/><path d="M210.28007,184.2914c0,-0.92439 0.74938,-1.67376 1.67376,-1.67376c0.92439,0 1.67376,0.74938 1.67376,1.67376c0,0.92439 -0.74938,1.67374 -1.67376,1.67374c-0.92439,0 -1.67376,-0.74936 -1.67376,-1.67374z" fill="#ffffff" stroke="none" stroke-width="0" stroke-linecap="butt"/><path d="M181.5,207.2v-60.8h60.8v60.8z" fill="none" stroke="none" stroke-width="none" stroke-linecap="butt"/><path d="M288.3,182.4v-0.6h0.8v0.6z" fill="none" stroke="none" stroke-width="0" stroke-linecap="butt"/></g></g></svg>