<svg version="1.1" xmlns="http://www.w3.org/2000/svg" xmlns:xlink="http://www.w3.org/1999/xlink" width="78.85126" height="62.33487" viewBox="0,0,78.85126,62.33487"><g transform="translate(-208.69718,-148.15566)"><g data-paper-data="{&quot;isPaintingLayer&quot;:true}" fill-rule="nonzero" stroke-linecap="butt" stroke-linejoin="miter" stroke-miterlimit="10" stroke-dasharray="" stroke-dashoffset="0" style="mix-blend-mode: normal"><path d="M213.35643,198.79057c0,-11.60227 -0.29874,-31.48574 -0.29874,-37.64083c0,-4.5767 4.84474,-7.94267 8.79407,-7.94267c6.25172,0 25.20022,0 36.44587,0c5.12102,0 8.64469,4.59349 8.64469,7.79329c0,5.97305 0,25.99704 0,37.49146c0,4.93751 -3.72726,8.30114 -7.151,8.30114c-6.44113,0 -26.88877,0 -38.08893,0c-3.97046,0 -8.34596,-3.22231 -8.34596,-8.00241z" fill="#5a5a5a" stroke="#353535" stroke-width="4"/><path d="M222.30001,195.75002v-12.7h59.85v12.7z" fill="#5a5a5a" stroke="#353535" stroke-width="4"/><path d="M222.30001,176.95001v-12.7h59.85v12.7z" fill="#5a5a5a" stroke="#353535" stroke-width="4"/><path d="M221.95835,198.04169v-36.08333h36.08333v36.08333z" fill="#5a5a5a" stroke="#353535" stroke-width="4"/><path d="M208.69718,210.49054v-62.33487h78.85126v62.33487z" fill="none" stroke="none" stroke-width="0"/></g></g></svg>