<svg version="1.1" xmlns="http://www.w3.org/2000/svg" xmlns:xlink="http://www.w3.org/1999/xlink" width="589.09929" height="434" viewBox="0,0,589.09929,434"><defs><radialGradient cx="240.00003" cy="180" r="217" gradientUnits="userSpaceOnUse" id="color-1"><stop offset="0" stop-color="#ffffff"/><stop offset="1" stop-color="#ffffff" stop-opacity="0"/></radialGradient></defs><g transform="translate(19.75977,37)"><g data-paper-data="{&quot;isPaintingLayer&quot;:true}" stroke-linejoin="miter" stroke-miterlimit="10" stroke-dasharray="" stroke-dashoffset="0" style="mix-blend-mode: normal"><path d="M-19.75977,380.45045v-400.9009h519.51952v400.9009z" fill="#39cc5b" fill-rule="nonzero" stroke="none" stroke-width="0" stroke-linecap="butt"/><path d="M23.9092,374.41625c0,0 9.19812,-115.51353 17.71909,-188.78504c1.49325,-12.84041 11.39972,-71.2611 11.36164,-71.48089c1.87372,-12.27011 16.37659,-44.96502 42.5931,-61.38969c20.03943,-12.55473 48.09786,-11.2114 58.92413,-10.14566c20.22817,1.99126 43.25734,21.454 41.71592,50.59885c-1.5297,28.92309 -26.5492,229.40466 41.9419,221.11419c0.01217,-0.00178 6.03387,0.50522 13.66939,-0.6872c10.54205,-1.64632 22.16036,-8.62589 27.28604,-13.48663c15.60572,-14.7991 19.82619,-49.36783 21.62299,-51.76796c7.44137,-26.62642 21.71648,-148.14608 34.06974,-168.34003c10.88975,-17.80154 21.85961,-24.59425 37.04794,-24.21073c27.06331,0.68337 43.95067,15.23565 49.29276,29.49461c-0.02241,0.41121 1.81475,3.5811 2.90663,7.94079c1.97976,4.9191 3.59798,11.32989 3.95241,12.39176c2.70702,8.1101 4.60192,17.17008 5.88905,28.52443c2.3257,20.51607 5.37608,48.07703 5.31731,64.13192c0.10533,39.21976 113.71721,32.3109 107.36337,35.32923" fill="none" fill-rule="nonzero" stroke="#96791c" stroke-width="45" stroke-linecap="round"/><path d="M23.9092,374.41625c0,0 9.19812,-115.51353 17.71909,-188.78504c1.49325,-12.84041 11.39972,-71.2611 11.36164,-71.48089c1.87372,-12.27011 16.37659,-44.96502 42.5931,-61.38969c20.03943,-12.55473 48.09786,-11.2114 58.92413,-10.14566c20.22817,1.99126 43.25734,21.454 41.71592,50.59885c-1.5297,28.92309 -26.5492,229.40466 41.9419,221.11419c0.01217,-0.00178 6.03387,0.50522 13.66939,-0.6872c10.54205,-1.64632 22.16036,-8.62589 27.28604,-13.48663c15.60572,-14.7991 19.82619,-49.36783 21.62299,-51.76796c7.44137,-26.62642 21.71648,-148.14608 34.06974,-168.34003c10.88975,-17.80154 21.85961,-24.59425 37.04794,-24.21073c27.06331,0.68337 43.78426,15.98234 49.29276,29.49461c-0.04052,0.7435 1.61337,3.33958 2.79295,6.71927c1.72662,4.94703 3.29016,11.28862 4.06609,13.61328c2.70702,8.1101 4.60192,17.17008 5.88905,28.52443c2.3257,20.51607 5.37608,48.07703 5.31731,64.13192c0.10533,39.21976 113.71721,32.3109 107.36337,35.32923" fill="none" fill-rule="nonzero" stroke="#a98920" stroke-width="37.5" stroke-linecap="round"/><path d="M265.2598,240.37462c-0.00527,7.27193 0.17295,19.73437 0.17015,23.59218c-0.00208,2.86853 -3.04012,4.976 -5.51543,4.97421c-3.91838,-0.00284 -15.79468,-0.01144 -22.84308,-0.01655c-3.20969,-0.00232 -5.41612,-2.88297 -5.41467,-4.8885c0.00271,-3.74372 0.0118,-16.29409 0.01702,-23.49841c0.00224,-3.09467 2.33989,-5.2012 4.48578,-5.19964c4.03709,0.00292 16.853,0.01221 23.87289,0.01729c2.48855,0.0018 5.22951,2.02343 5.22734,5.01944z" fill="#ffffff" fill-rule="nonzero" stroke="#cccccc" stroke-width="2" stroke-linecap="butt"/><path d="M251.6713,240.93535l-12.1167,3.94992l-7.77844,-23.86097l12.1167,-3.94992z" fill="#ffffff" fill-rule="nonzero" stroke="#cccccc" stroke-width="2" stroke-linecap="butt"/><path d="M263.01716,259.22476l-21.50218,7.0095l-7.0095,-21.50218l21.50218,-7.0095z" fill="#ffffff" fill-rule="nonzero" stroke="#cccccc" stroke-width="2" stroke-linecap="butt"/><path d="M249.35686,237.50097l-9.9069,3.22955l-0.43708,-1.34079l9.9069,-3.22955z" fill="#cccccc" fill-rule="nonzero" stroke="none" stroke-width="0" stroke-linecap="butt"/><path d="M248.45841,234.74491l-9.9069,3.22955l-0.43708,-1.34079l9.9069,-3.22955z" fill="#cccccc" fill-rule="nonzero" stroke="none" stroke-width="0" stroke-linecap="butt"/><path d="M247.55997,231.98886l-9.9069,3.22955l-0.43708,-1.34079l9.9069,-3.22955z" fill="#cccccc" fill-rule="nonzero" stroke="none" stroke-width="0" stroke-linecap="butt"/><path d="M246.66153,229.23281l-9.9069,3.22955l-0.43708,-1.34079l9.9069,-3.22955z" fill="#cccccc" fill-rule="nonzero" stroke="none" stroke-width="0" stroke-linecap="butt"/><path d="M245.81165,226.62573l-9.9069,3.22955l-0.43708,-1.34079l9.9069,-3.22955z" fill="#cccccc" fill-rule="nonzero" stroke="none" stroke-width="0" stroke-linecap="butt"/><path d="M244.91319,223.86967l-9.9069,3.22955l-0.43708,-1.34079l9.9069,-3.22955z" fill="#cccccc" fill-rule="nonzero" stroke="none" stroke-width="0" stroke-linecap="butt"/><path d="M243.96619,220.96465l-9.9069,3.22955l-0.43708,-1.34079l9.9069,-3.22955z" fill="#cccccc" fill-rule="nonzero" stroke="none" stroke-width="0" stroke-linecap="butt"/><path d="M107.21772,140.74195c0,-7.0136 -0.18059,-19.03317 -0.18059,-22.75393c0,-2.76662 2.92865,-4.80134 5.31602,-4.80134c3.77918,0 15.23357,0 22.03158,0c3.09566,0 5.22572,2.77676 5.22572,4.71105c0,3.61072 0,15.71524 0,22.66363c0,2.98473 -2.25313,5.01806 -4.32279,5.01806c-3.89367,0 -16.25429,0 -23.0248,0c-2.40015,0 -5.04514,-1.94789 -5.04514,-4.83747z" fill="#547a5c" fill-rule="nonzero" stroke="#2e4333" stroke-width="2" stroke-linecap="butt"/><path d="M116.06331,124.78323c3.70777,4.29148 3.43007,10.68957 -0.62027,14.29054c-4.05033,3.60097 -10.33952,3.0412 -14.04729,-1.25028c-3.70777,-4.29148 -3.43007,-10.68957 0.62027,-14.29054c4.05033,-3.60097 10.33952,-3.0412 14.04729,1.25028z" fill="none" fill-rule="nonzero" stroke="#d4c47a" stroke-width="3.75" stroke-linecap="butt"/><path d="M107.76244,122.44953c-0.67055,-0.87417 -0.50549,-2.12641 0.36868,-2.79696c0.87417,-0.67055 2.12641,-0.50549 2.79696,0.36868c0.67055,0.87417 0.50548,2.1264 -0.36869,2.79695c-0.87417,0.67055 -2.1264,0.50549 -2.79695,-0.36868z" fill="#d4aa7b" fill-rule="nonzero" stroke="none" stroke-width="0.5" stroke-linecap="butt"/><path d="M100.61601,124.49534c-0.67055,-0.87417 -0.50548,-2.1264 0.36869,-2.79695c0.87417,-0.67055 2.1264,-0.50549 2.79695,0.36868c0.67055,0.87417 0.50549,2.12641 -0.36868,2.79696c-0.87417,0.67055 -2.12641,0.50549 -2.79696,-0.36868z" fill="#d4aa7b" fill-rule="nonzero" stroke="none" stroke-width="0.5" stroke-linecap="butt"/><path d="M97.04187,132.18147c-0.67055,-0.87417 -0.50549,-2.12641 0.36868,-2.79696c0.87417,-0.67055 2.12641,-0.50549 2.79696,0.36868c0.67055,0.87417 0.50549,2.12641 -0.36868,2.79696c-0.87417,0.67055 -2.12641,0.50549 -2.79696,-0.36868z" fill="#d4aa7b" fill-rule="nonzero" stroke="none" stroke-width="0.5" stroke-linecap="butt"/><path d="M101,140.29136c-0.67055,-0.87417 -0.50549,-2.1264 0.36868,-2.79695c0.87417,-0.67055 2.12641,-0.50549 2.79696,0.36868c0.67055,0.87417 0.50549,2.12641 -0.36868,2.79696c-0.87417,0.67055 -2.1264,0.50548 -2.79695,-0.36869z" fill="#d4aa7b" fill-rule="nonzero" stroke="none" stroke-width="0.5" stroke-linecap="butt"/><path d="M108.5539,142.70985c-0.67055,-0.87417 -0.50549,-2.1264 0.36868,-2.79695c0.87417,-0.67055 2.1264,-0.50549 2.79695,0.36868c0.67055,0.87417 0.50549,2.12641 -0.36868,2.79696c-0.87417,0.67055 -2.1264,0.50548 -2.79695,-0.36869z" fill="#d4aa7b" fill-rule="nonzero" stroke="none" stroke-width="0.5" stroke-linecap="butt"/><path d="M122.34752,137.35208l-6.4386,-8.39373l27.93915,-21.43135l6.4386,8.39373z" fill="#547a5c" fill-rule="nonzero" stroke="#2e4333" stroke-width="2" stroke-linecap="butt"/><path d="M143.87652,106.43526l2.79615,-9.11825l3.29829,5.99282l8.14912,-1.42449l-1.21346,7.0779l5.99136,5.07743l-11.44989,2.51277" fill="#fff300" fill-rule="nonzero" stroke="#eda41a" stroke-width="1.75" stroke-linecap="round"/><path d="M121.59559,144.85548l-13.27579,-17.30708l17.30708,-13.27579l13.27579,17.30708z" fill="#547a5c" fill-rule="nonzero" stroke="#2e4333" stroke-width="2" stroke-linecap="butt"/><path d="M361.24305,130.48151c0,-7.19664 -0.1853,-19.52991 -0.1853,-23.34778c0,-2.83883 3.00508,-4.92666 5.45476,-4.92666c3.87781,0 15.63115,0 22.60658,0c3.17645,0 5.36211,2.84923 5.36211,4.834c0,3.70496 0,16.12539 0,23.25512c0,3.06263 -2.31194,5.14902 -4.43561,5.14902c-3.99529,0 -16.67851,0 -23.62573,0c-2.46279,0 -5.17681,-1.99873 -5.17681,-4.96372z" fill="#ffa200" fill-rule="nonzero" stroke="#bb7600" stroke-width="2" stroke-linecap="butt"/><path d="M383.4555,109.89052l1.83112,17.19301l-28.98912,3.08745l-1.83112,-17.19301z" fill="#ffa200" fill-rule="nonzero" stroke="#bb7600" stroke-width="2" stroke-linecap="butt"/><path d="M388.46336,106.88281l2.37033,22.25583l-22.25583,2.37033l-2.37033,-22.25583z" fill="#ffa200" fill-rule="nonzero" stroke="#bb7600" stroke-width="2" stroke-linecap="butt"/><path d="M247.00005,135.16667c0,-7.54789 6.11878,-13.66667 13.66667,-13.66667c7.54789,0 13.66667,6.11878 13.66667,13.66667c0,7.54789 -6.11878,13.66667 -13.66667,13.66667c-7.54789,0 -13.66667,-6.11878 -13.66667,-13.66667z" fill="#ffa200" fill-rule="nonzero" stroke="#bb7600" stroke-width="2" stroke-linecap="butt"/><path d="M183.18755,127c0,-5.69544 4.61706,-10.3125 10.3125,-10.3125c5.69544,0 10.3125,4.61706 10.3125,10.3125c0,5.69544 -4.61706,10.3125 -10.3125,10.3125c-5.69544,0 -10.3125,-4.61706 -10.3125,-10.3125z" fill="#ffef00" fill-rule="nonzero" stroke="#ccbe00" stroke-width="1.5" stroke-linecap="butt"/><path d="M193.50005,121.8648v10.27041" fill="none" fill-rule="nonzero" stroke="#ccbe00" stroke-width="1.5" stroke-linecap="round"/><path d="M188.36484,127h10.27041" fill="none" fill-rule="nonzero" stroke="#ccbe00" stroke-width="1.5" stroke-linecap="round"/><path d="M20.18749,245.5c0,-8.45686 6.85564,-15.3125 15.3125,-15.3125c8.45686,0 15.3125,6.85564 15.3125,15.3125c0,8.45686 -6.85564,15.3125 -15.3125,15.3125c-8.45686,0 -15.3125,-6.85564 -15.3125,-15.3125z" fill="#7500cc" fill-rule="nonzero" stroke="#560099" stroke-width="2" stroke-linecap="butt"/><g fill="none" fill-rule="nonzero" stroke="#560099" stroke-width="2" stroke-linecap="round"><path d="M25.25807,234.39517l20.70901,20.70901"/><path d="M24.80787,256.60483l21.38431,-21.38431"/></g><path d="M53.18753,84.75c0,-5.55737 4.50514,-10.0625 10.0625,-10.0625c5.55736,0 10.0625,4.50513 10.0625,10.0625c0,5.55737 -4.50514,10.0625 -10.0625,10.0625c-5.55736,0 -10.0625,-4.50513 -10.0625,-10.0625z" fill="#ff0000" fill-rule="nonzero" stroke="#b30000" stroke-width="1.5" stroke-linecap="butt"/><path d="M35.68751,152.75c0,-5.55737 4.50514,-10.0625 10.0625,-10.0625c5.55736,0 10.0625,4.50513 10.0625,10.0625c0,5.55737 -4.50514,10.0625 -10.0625,10.0625c-5.55736,0 -10.0625,-4.50513 -10.0625,-10.0625z" fill="#ff0000" fill-rule="nonzero" stroke="#b30000" stroke-width="1.5" stroke-linecap="butt"/><path d="M114.18753,45.25c0,-5.55736 4.50513,-10.0625 10.0625,-10.0625c5.55737,0 10.0625,4.50514 10.0625,10.0625c0,5.55736 -4.50513,10.0625 -10.0625,10.0625c-5.55737,0 -10.0625,-4.50514 -10.0625,-10.0625z" fill="#ff0000" fill-rule="nonzero" stroke="#b30000" stroke-width="1.5" stroke-linecap="butt"/><path d="M178.68755,66.25c0,-5.55736 4.50513,-10.0625 10.0625,-10.0625c5.55737,0 10.0625,4.50514 10.0625,10.0625c0,5.55737 -4.50513,10.0625 -10.0625,10.0625c-5.55737,0 -10.0625,-4.50513 -10.0625,-10.0625z" fill="#ff0000" fill-rule="nonzero" stroke="#b30000" stroke-width="1.5" stroke-linecap="butt"/><path d="M180.68755,187.25c0,-5.55737 4.50513,-10.0625 10.0625,-10.0625c5.55737,0 10.0625,4.50513 10.0625,10.0625c0,5.55737 -4.50513,10.0625 -10.0625,10.0625c-5.55737,0 -10.0625,-4.50513 -10.0625,-10.0625z" fill="#ff0000" fill-rule="nonzero" stroke="#b30000" stroke-width="1.5" stroke-linecap="butt"/><path d="M27.68753,210.25c0,-5.55737 4.50514,-10.0625 10.0625,-10.0625c5.55736,0 10.0625,4.50513 10.0625,10.0625c0,5.55737 -4.50514,10.0625 -10.0625,10.0625c-5.55736,0 -10.0625,-4.50513 -10.0625,-10.0625z" fill="#ff0000" fill-rule="nonzero" stroke="#b30000" stroke-width="1.5" stroke-linecap="butt"/><g fill-rule="nonzero" stroke="#ccbe00" stroke-width="1.5"><path d="M42.68753,116.5c0,-5.69544 4.61706,-10.3125 10.3125,-10.3125c5.69544,0 10.3125,4.61706 10.3125,10.3125c0,5.69544 -4.61706,10.3125 -10.3125,10.3125c-5.69544,0 -10.3125,-4.61706 -10.3125,-10.3125z" fill="#ffef00" stroke-linecap="butt"/><path d="M53.00003,121.63521v-10.27041" fill="none" stroke-linecap="round"/><path d="M47.86482,116.5h10.27041" fill="none" stroke-linecap="round"/></g><g fill-rule="nonzero" stroke="#ccbe00" stroke-width="1.5"><path d="M151.6875,44.5c0,-5.69544 4.61706,-10.3125 10.3125,-10.3125c5.69544,0 10.3125,4.61706 10.3125,10.3125c0,5.69544 -4.61706,10.3125 -10.3125,10.3125c-5.69544,0 -10.3125,-4.61706 -10.3125,-10.3125z" fill="#ffef00" stroke-linecap="butt"/><path d="M162,39.3648v10.27041" fill="none" stroke-linecap="round"/><path d="M167.13521,44.5h-10.27041" fill="none" stroke-linecap="round"/></g><path d="M183.68755,250.75c0,-5.55737 4.50513,-10.0625 10.0625,-10.0625c5.55737,0 10.0625,4.50513 10.0625,10.0625c0,5.55737 -4.50513,10.0625 -10.0625,10.0625c-5.55737,0 -10.0625,-4.50513 -10.0625,-10.0625z" fill="#ff0000" fill-rule="nonzero" stroke="#b30000" stroke-width="1.5" stroke-linecap="butt"/><path d="M16.68749,286c0,-8.45686 6.85564,-15.3125 15.3125,-15.3125c8.45686,0 15.3125,6.85564 15.3125,15.3125c0,8.45686 -6.85564,15.3125 -15.3125,15.3125c-8.45686,0 -15.3125,-6.85564 -15.3125,-15.3125z" fill="#7500cc" fill-rule="nonzero" stroke="#560099" stroke-width="2" stroke-linecap="butt"/><g fill="none" fill-rule="nonzero" stroke="#560099" stroke-width="2" stroke-linecap="round"><path d="M42.46708,295.60418l-20.70901,-20.70901"/><path d="M42.69218,275.72052l-21.38431,21.38431"/></g><path d="M296.67949,242.99812c-5.1076,-3.35265 -6.53026,-10.21104 -3.1776,-15.31864c3.35265,-5.1076 10.21104,-6.53026 15.31864,-3.1776c5.1076,3.35265 6.53026,10.21104 3.1776,15.31864c-3.35265,5.1076 -10.21104,6.53026 -15.31864,3.1776z" fill="#0046ff" fill-rule="nonzero" stroke="#0036cc" stroke-width="1.5" stroke-linecap="butt"/><path d="M307.59193,240.11496l-1.43965,-6.94028l-6.75271,1.40074l-1.49153,-7.19038" fill="none" fill-rule="nonzero" stroke="#0036cc" stroke-width="1.5" stroke-linecap="round"/><path d="M342.40411,74.97042c-5.59855,-2.44623 -8.15402,-8.9678 -5.7078,-14.56636c2.44623,-5.59855 8.9678,-8.15402 14.56636,-5.7078c5.59855,2.44623 8.15402,8.9678 5.7078,14.56636c-2.44623,5.59855 -8.9678,8.15402 -14.56636,5.7078z" fill="#0046ff" fill-rule="nonzero" stroke="#0036cc" stroke-width="1.5" stroke-linecap="butt"/><path d="M352.67651,70.29366l-2.58598,-6.59945l-6.42109,2.51609l-2.67917,-6.83727" fill="none" fill-rule="nonzero" stroke="#0036cc" stroke-width="1.5" stroke-linecap="round"/><path d="M434.09788,182.87123c7.43491,-3.62787 16.40308,-0.54165 20.03095,6.89326c3.62787,7.43491 0.54165,16.40308 -6.89327,20.03095c-7.43491,3.62787 -16.40308,0.54165 -20.03095,-6.89327c-3.62787,-7.43491 -0.54165,-16.40308 6.89326,-20.03095z" fill="#0059c5" fill-rule="nonzero" stroke="#003c85" stroke-width="1.5" stroke-linecap="butt"/><path d="M444.43459,182.79362l-2.44781,7.11303l-7.84886,-2.70104l-2.72916,7.93062l-4.82378,-1.66001" fill="none" fill-rule="nonzero" stroke="#003c85" stroke-width="1.5" stroke-linecap="round"/><path d="M449.47021,185.16662l-3.93901,11.44626l-7.84886,-2.70103l-2.72917,7.93062l-9.12622,-3.50637" fill="none" fill-rule="nonzero" stroke="#003c85" stroke-width="1.5" stroke-linecap="round"/><path d="M453.63628,189.80074l-4.72681,13.73551l-7.84886,-2.70103l-2.70104,7.84886l-9.32052,-3.20748" fill="none" fill-rule="nonzero" stroke="#003c85" stroke-width="1.5" stroke-linecap="round"/><path d="M331.0399,116.5l-52,7" fill="none" fill-rule="nonzero" stroke="#bb7600" stroke-width="2" stroke-linecap="round"/><path d="M333.70653,123.5l-51,7.33333" fill="none" fill-rule="nonzero" stroke="#bb7600" stroke-width="2" stroke-linecap="round"/><path d="M334.70653,130.16667l-52.33333,8" fill="none" fill-rule="nonzero" stroke="#bb7600" stroke-width="2" stroke-linecap="round"/><path d="M23.00003,180c0,-119.84579 97.15421,-217 217,-217c119.84579,0 217,97.15421 217,217c0,119.84579 -97.15421,217 -217,217c-119.84579,0 -217,-97.15421 -217,-217z" fill="url(#color-1)" fill-rule="nonzero" stroke="none" stroke-width="0" stroke-linecap="butt"/><path d="M136.5,180c0,-57.16147 46.33853,-103.5 103.5,-103.5c57.16148,0 103.5,46.33853 103.5,103.5c0,57.16148 -46.33852,103.5 -103.5,103.5c-57.16147,0 -103.5,-46.33852 -103.5,-103.5z" fill="#ffffff" fill-rule="nonzero" stroke="none" stroke-width="0" stroke-linecap="butt"/><path d="M180.9857,145.93072c0,-0.63685 0.05307,-1.07026 0.15921,-1.30023c0.12383,-0.24766 0.36265,-0.41572 0.71645,-0.50417l9.12812,-2.20242c0.22997,-0.07076 0.46879,-0.10614 0.71645,-0.10614c0.24766,0 0.41572,0.07961 0.50417,0.23882c0.08845,0.14152 0.13268,0.44225 0.13268,0.9022l-0.31842,4.16603c-0.08845,1.22062 -0.18575,2.43239 -0.29189,3.63533c-0.10614,1.20293 -0.26535,2.25549 -0.47763,3.15769l-0.47763,3.768c-0.14152,1.11448 -0.2742,2.32625 -0.39803,3.63533c-0.12383,1.29138 -0.2565,2.74198 -0.39803,4.35178l-1.24716,13.08187c-0.01769,0.15921 -0.05307,0.31842 -0.10614,0.47763c-0.05307,0.15921 -0.16806,0.2742 -0.34496,0.34496c-0.12383,0.05307 -0.41572,0.16806 -0.87566,0.34496c-0.44225,0.1769 -0.97296,0.38034 -1.59211,0.61031c-0.61916,0.22997 -1.28254,0.46879 -1.99014,0.71645c-0.7076,0.26535 -1.37983,0.50417 -2.01668,0.71645c-0.63685,0.21227 -1.20293,0.38916 -1.69825,0.53069c-0.49532,0.14152 -0.83144,0.21228 -1.00834,0.21228c-0.24766,0 -0.46879,-0.07076 -0.66338,-0.21228c-0.1769,-0.12383 -0.26535,-0.37148 -0.26535,-0.74297c0,-2.14051 0.12383,-4.32524 0.37149,-6.5542c0.24766,-2.24665 0.46879,-4.47561 0.66338,-6.68688c0.03538,-0.24766 0.04422,-0.47763 0.02654,-0.68992c0,-0.21228 0.01769,-0.44225 0.05307,-0.68992h-9.71189l-1.08794,11.62243c-0.01769,0.15921 -0.05307,0.31842 -0.10614,0.47763c-0.03538,0.14152 -0.15036,0.2565 -0.34496,0.34496c-0.07076,0.03538 -0.42456,0.16806 -1.06141,0.39803c-0.61916,0.21228 -1.34445,0.46879 -2.17589,0.76952c-0.81374,0.28304 -1.6275,0.56609 -2.44124,0.84913c-0.79606,0.30074 -1.40637,0.5307 -1.83093,0.6899c-0.21228,0.08845 -0.47763,0.1769 -0.79606,0.26535c-0.30074,0.10614 -0.60146,0.15921 -0.9022,0.15921c-0.24766,0 -0.46879,-0.07076 -0.66338,-0.21228c-0.1769,-0.14152 -0.26535,-0.39802 -0.26535,-0.7695c0,-0.84913 0.02654,-1.81324 0.07961,-2.89234c0.07076,-1.09679 0.15036,-2.23781 0.23882,-3.42304c0.08845,-1.20293 0.19459,-2.43239 0.31842,-3.6884c0.12383,-1.256 0.24766,-2.49431 0.37149,-3.71493l0.05307,-0.76952c-1.4329,0 -2.47662,-0.03538 -3.13116,-0.10614c-0.63685,-0.08845 -0.95527,-0.30074 -0.95527,-0.63685c0,-0.22997 0.13268,-0.5307 0.39803,-0.9022c0.35381,-0.49532 0.76067,-1.08794 1.22062,-1.77786c0.47763,-0.7076 0.92873,-1.39752 1.3533,-2.06975c0.44225,-0.68992 0.83144,-1.30023 1.16755,-1.83093c0.35381,-0.54839 0.58377,-0.9022 0.68992,-1.06141l0.61031,-6.39499c0,-0.03538 0.01769,-0.30074 0.05307,-0.79606c0.03538,-0.49532 0.07961,-1.0791 0.13268,-1.75132c0.05307,-0.68992 0.10614,-1.39752 0.15921,-2.12282c0.07076,-0.7253 0.13268,-1.34445 0.18575,-1.85747c0.03538,-0.61916 0.07961,-1.05256 0.13268,-1.30023c0.07076,-0.24766 0.28304,-0.41572 0.63685,-0.50417l9.02198,-2.20242c0.22997,-0.07076 0.46879,-0.10614 0.71645,-0.10614c0.24766,0 0.41572,0.07961 0.50417,0.23882c0.08845,0.14152 0.13268,0.44225 0.13268,0.9022c-0.12383,1.27369 -0.22113,2.43239 -0.29189,3.47611c-0.07076,1.04372 -0.15036,2.01668 -0.23882,2.91887c-0.07076,0.9022 -0.15036,1.76017 -0.23882,2.57392c-0.08845,0.81374 -0.21228,1.64518 -0.37149,2.49431l-0.5307,4.11296l9.63229,-0.10614c0.15921,-2.35279 0.33611,-4.35178 0.5307,-5.99696c0.19459,-1.64518 0.31842,-2.94541 0.37149,-3.90068c0.05307,-0.9022 0.08845,-1.54789 0.10614,-1.93707c0.01769,-0.38918 0.02654,-0.61031 0.02654,-0.66338zM219.40871,158.85338c-0.07076,0.24766 -0.20343,0.60146 -0.39803,1.06141c-0.19459,0.44225 -0.42456,0.94642 -0.68992,1.51251c-0.24766,0.56609 -0.52186,1.1764 -0.82259,1.83093c-0.28304,0.63685 -0.56609,1.28254 -0.84913,1.93707c-0.10614,0.24766 -0.20343,0.43341 -0.29189,0.55724c-0.08845,0.10614 -0.22997,0.18575 -0.42456,0.23882c-0.19459,0.05307 -0.46879,0.08845 -0.82259,0.10614c-0.33611,0 -0.81374,0.00885 -1.4329,0.02654l-3.6884,0.07961l-0.74299,8.11978h13.61257v1.03487c-0.03538,0.03538 -0.18575,0.2742 -0.4511,0.71645c-0.26535,0.42456 -0.57493,0.93758 -0.92873,1.53904c-0.35381,0.60146 -0.7253,1.21177 -1.11448,1.83093c-0.38918,0.60146 -0.71645,1.08794 -0.9818,1.45944c-0.1769,0.31842 -0.38034,0.56609 -0.61031,0.74299c-0.22997,0.19459 -0.48648,0.33611 -0.76952,0.42456c-0.26535,0.08845 -0.56609,0.14151 -0.9022,0.15919c-0.31842,0.01769 -0.67223,0.02654 -1.06141,0.02654c-1.59211,0 -3.25498,-0.03537 -4.98862,-0.10612c-1.71594,-0.07076 -3.43189,-0.15921 -5.14783,-0.26535c-1.71594,-0.10614 -3.39651,-0.22997 -5.04169,-0.37149c-1.6275,-0.12383 -3.14,-0.2565 -4.53752,-0.39803c-0.12383,-0.01769 -0.23882,-0.08845 -0.34496,-0.21228c-0.08845,-0.12383 -0.13268,-0.26535 -0.13268,-0.42456c-0.07076,0 -0.02654,-0.15036 0.13268,-0.4511c0.1769,-0.30074 0.41572,-0.68992 0.71645,-1.16755c0.30074,-0.47763 0.628,-1.01719 0.9818,-1.61865c0.37149,-0.61916 0.7253,-1.23831 1.06141,-1.85747l0.42456,-5.97043c0.07076,-1.00834 0.12383,-1.76017 0.15921,-2.25549c0.05307,-0.49532 0.07961,-0.76067 0.07961,-0.79606c-1.06141,-0.01769 -1.85747,-0.07076 -2.38817,-0.15921c-0.51302,-0.08845 -0.76952,-0.28304 -0.76952,-0.58377c0,-0.14152 0.12383,-0.40688 0.37149,-0.79606c0.26535,-0.38918 0.58377,-0.83144 0.95527,-1.32676c0.37149,-0.51302 0.76067,-1.04372 1.16755,-1.59211c0.42456,-0.54839 0.79606,-1.05256 1.11448,-1.51251l0.66338,-9.02198h-0.07961c-0.38918,0.01769 -0.74299,0.03538 -1.06141,0.05307c-0.31842,0 -0.61031,0 -0.87566,0c-0.84913,0 -1.45944,-0.04422 -1.83093,-0.13268c-0.35381,-0.10614 -0.5307,-0.29189 -0.5307,-0.55724c0,-0.12383 0.10614,-0.38034 0.31842,-0.76952c0.21228,-0.38918 0.47763,-0.83144 0.79606,-1.32676c0.31842,-0.51302 0.65453,-1.04372 1.00834,-1.59211c0.35381,-0.56609 0.67223,-1.08794 0.95527,-1.56558l1.59211,-2.70659h11.09172l13.08187,-0.95527c0.01769,0 0.06192,0.00885 0.13268,0.02654c0.08845,0 0.1769,0.02654 0.26535,0.07961c0.08845,0.03538 0.16806,0.10614 0.23882,0.21228c0.08845,0.10614 0.13268,0.2565 0.13268,0.4511l-0.39803,1.37983c-0.12383,0.38918 -0.2742,0.8049 -0.4511,1.24716c-0.1769,0.42456 -0.37149,0.86681 -0.58377,1.32676l-1.16755,3.07809c-0.12383,0.30074 -0.26535,0.5307 -0.42456,0.68992c-0.15921,0.15921 -0.49532,0.24766 -1.00834,0.26535c-1.34445,0.03538 -2.84812,0.09729 -4.51099,0.18575c-1.64518,0.07076 -3.53803,0.14152 -5.67854,0.21228c-0.07076,0.24766 -0.10614,0.4511 -0.10614,0.61031c0,0.14152 -0.01769,0.42456 -0.05307,0.84913l-0.13268,1.22062c-0.03538,0.56609 -0.08845,1.1764 -0.15921,1.83093c-0.07076,0.65453 -0.15921,1.45944 -0.26535,2.41471c0.9022,-0.03538 1.77786,-0.07076 2.62699,-0.10614c0.86681,-0.03538 1.65403,-0.06192 2.36163,-0.07961c0.7076,-0.03538 1.31791,-0.06192 1.83093,-0.07961c0.5307,-0.01769 0.9022,-0.02654 1.11448,-0.02654c0.14152,0 0.30074,0.05307 0.47763,0.15921c0.1769,0.10614 0.26535,0.30957 0.26535,0.61031c0,0.14152 -0.02654,0.30074 -0.07961,0.47763zM224.63615,178.94054c0.22997,-0.45995 0.46879,-0.97296 0.71645,-1.53904c0.24766,-0.58377 0.47763,-1.21177 0.68992,-1.884l0.71645,-1.75132c-0.31842,-0.47763 -0.64569,-0.99065 -0.9818,-1.53904c-0.31842,-0.56609 -0.61031,-1.14101 -0.87566,-1.72479c-0.26535,-0.58377 -0.48648,-1.16755 -0.66338,-1.75132c-0.15921,-0.58377 -0.23882,-1.14986 -0.23882,-1.69825c0,-0.03538 0.13268,-0.06192 0.39803,-0.07961c0.28304,-0.03538 0.628,-0.06192 1.03487,-0.07961c0.42456,-0.01769 0.87566,-0.02654 1.3533,-0.02654c0.49532,-0.01769 0.94642,-0.02654 1.3533,-0.02654c0.42456,-0.01769 0.76952,-0.02654 1.03487,-0.02654c0.28304,-0.01769 0.42456,-0.02654 0.42456,-0.02654c0.40688,-1.06141 0.8049,-2.06975 1.19409,-3.02502c0.38918,-0.95527 0.77837,-1.91938 1.16755,-2.89234c0.38918,-0.97296 0.77837,-1.96361 1.16755,-2.97195c0.38918,-1.02603 0.77837,-2.12282 1.16755,-3.29037c0.74299,-2.19358 1.46829,-4.12181 2.17589,-5.78468c0.7076,-1.66287 1.37098,-3.21076 1.99014,-4.64366c0.07076,-0.1769 0.18575,-0.33611 0.34496,-0.47763c0.1769,-0.15921 0.36265,-0.29189 0.55724,-0.39803c0.19459,-0.10614 0.38034,-0.19459 0.55724,-0.26535c0.19459,-0.07076 0.34496,-0.12383 0.4511,-0.15921c0.07076,-0.01769 0.33611,-0.09729 0.79606,-0.23882c0.47763,-0.14152 1.01719,-0.29189 1.61865,-0.4511c0.60146,-0.15921 1.19409,-0.30074 1.77786,-0.42456c0.60146,-0.12383 1.0791,-0.18575 1.4329,-0.18575h0.47763c0.28304,0 0.54839,0.07076 0.79606,0.21228c0.26535,0.12383 0.44225,0.38034 0.5307,0.76952c0.84913,2.17589 1.75132,4.55521 2.70659,7.13798c0.97296,2.56507 1.91938,5.3955 2.83927,8.49127c0.49532,1.66287 0.9818,3.2373 1.45944,4.72327c0.47763,1.48597 0.95527,2.93656 1.4329,4.35178c0.47763,1.41521 0.95527,2.83042 1.4329,4.24564c0.49532,1.41521 0.99949,2.87465 1.51251,4.37831c0.15921,0.63685 0.31842,1.14101 0.47763,1.51251c0.1769,0.37149 0.33611,0.66338 0.47763,0.87566c0.14152,0.21228 0.2565,0.37149 0.34496,0.47763c0.08845,0.08845 0.13268,0.18575 0.13268,0.29189c0,0.10614 -0.16806,0.21228 -0.50417,0.31842l-5.70507,1.85747c-0.42456,0.15921 -0.85798,0.31842 -1.30023,0.47763c-0.44225,0.15921 -0.85798,0.30074 -1.24716,0.42456c-0.38918,0.12382 -0.73414,0.22111 -1.03487,0.29187c-0.28304,0.08845 -0.48648,0.13268 -0.61031,0.13268h-0.15921c-0.24766,0 -0.42456,-0.07961 -0.5307,-0.23882c-0.10614,-0.14152 -0.1769,-0.28302 -0.21228,-0.42455c-0.1769,-0.58377 -0.35381,-1.10563 -0.5307,-1.56558c-0.1769,-0.47763 -0.35381,-0.94642 -0.5307,-1.40637c-0.15921,-0.47763 -0.32727,-0.9818 -0.50417,-1.51251c-0.15921,-0.5307 -0.31842,-1.1587 -0.47763,-1.884c-0.03538,-0.08845 -0.13268,-0.15921 -0.29189,-0.21228c-0.15921,-0.07076 -0.35381,-0.12383 -0.58377,-0.15921c-0.21228,-0.03538 -0.44225,-0.05307 -0.68992,-0.05307c-0.24766,-0.01769 -0.47763,-0.02654 -0.68992,-0.02654c-0.67223,0 -1.22062,0.00885 -1.64518,0.02654c-0.40688,0 -0.76952,0.00885 -1.08794,0.02654c-0.31842,0 -0.628,0.00885 -0.92873,0.02654c-0.28304,0 -0.63685,0 -1.06141,0c-0.51302,0 -1.04372,0 -1.59211,0c-0.5307,-0.01769 -1.01719,-0.03538 -1.45944,-0.05307l-1.51251,-0.05307c-0.45995,1.27369 -0.91988,2.46778 -1.37983,3.58226c-0.45995,1.11448 -0.95527,2.26434 -1.48597,3.44958c-0.03538,0.14152 -0.12383,0.25649 -0.26535,0.34494c-0.12383,0.08845 -0.2565,0.13268 -0.39803,0.13268c-0.10614,0 -0.16806,-0.00885 -0.18575,-0.02654c-1.71594,-0.61915 -3.15769,-1.22945 -4.32524,-1.83091c-1.16755,-0.60146 -2.18474,-1.18524 -3.05155,-1.75132zM242.52088,155.08537c-0.42456,1.57443 -0.84913,3.00733 -1.27369,4.29871c-0.40688,1.27369 -0.78721,2.40586 -1.14101,3.39651c-0.33611,0.99065 -0.628,1.83093 -0.87566,2.52085c-0.24766,0.67223 -0.42456,1.19409 -0.5307,1.56558v0.23882c0,0.10614 -0.00885,0.1769 -0.02654,0.21228h6.36845c-0.19459,-0.86681 -0.40688,-1.74248 -0.63685,-2.62699c-0.21228,-0.88451 -0.42456,-1.81324 -0.63685,-2.7862c-0.21228,-0.97296 -0.42456,-2.01668 -0.63685,-3.13116c-0.21228,-1.11448 -0.41572,-2.34395 -0.61031,-3.6884zM280.14779,178.54251c-0.08845,0.22997 -0.1769,0.4511 -0.26535,0.66338c-0.07076,0.21228 -0.16806,0.40688 -0.29189,0.58377c-0.12383,0.1769 -0.28304,0.33611 -0.47763,0.47763c-0.1769,0.14152 -0.40688,0.2565 -0.68992,0.34496c-1.11448,0.35381 -2.22011,0.65453 -3.3169,0.9022c-1.09679,0.26535 -2.20242,0.58377 -3.3169,0.95525c-0.21228,0.07076 -0.39803,0.12383 -0.55724,0.15921c-0.15921,0.03538 -0.30957,0.05307 -0.4511,0.05307c-0.31842,0 -0.54839,-0.07961 -0.68992,-0.23882c-0.14152,-0.15921 -0.24766,-0.36264 -0.31842,-0.61029l-9.07505,-36.08791c-0.14152,-0.45995 -0.21228,-0.84028 -0.21228,-1.14101c0,-0.38918 0.12383,-0.7076 0.37149,-0.95527c0.24766,-0.26535 0.64569,-0.47763 1.19409,-0.63685c0.56609,-0.1769 1.28254,-0.33611 2.14935,-0.47763c0.88451,-0.14152 1.96361,-0.30074 3.2373,-0.47763c0.61916,-0.08845 1.14101,-0.15036 1.56558,-0.18575c0.42456,-0.05307 0.78721,-0.07961 1.08794,-0.07961c0.51302,0 0.84913,0.08845 1.00834,0.26535c0.1769,0.15921 0.33611,0.41572 0.47763,0.76952l5.06823,21.9181l7.13798,-20.14024c0.10614,-0.28304 0.19459,-0.51302 0.26535,-0.68992c0.08845,-0.1769 0.23882,-0.32727 0.4511,-0.4511c0.22997,-0.14152 0.56609,-0.2742 1.00834,-0.39803c0.45995,-0.14152 1.11448,-0.30074 1.96361,-0.47763c1.32676,-0.28304 2.42355,-0.48648 3.29037,-0.61031c0.86681,-0.12383 1.56558,-0.18575 2.09628,-0.18575c0.67223,0 1.10563,0.07961 1.30023,0.23882c0.21228,0.15921 0.31842,0.38918 0.31842,0.68992c0.01769,0.12383 -0.00885,0.2565 -0.07961,0.39803c-0.05307,0.12383 -0.11499,0.28304 -0.18575,0.47763l-14.06367,34.94689zM294.60949,145.53269c0.10614,-0.07076 0.28304,-0.15921 0.5307,-0.26535c0.26535,-0.12383 0.56609,-0.2565 0.9022,-0.39803c0.35381,-0.14152 0.7253,-0.29189 1.11448,-0.4511c0.40688,-0.1769 0.81374,-0.34496 1.22062,-0.50417l3.07809,-1.22062c0.22997,-0.10614 0.44225,-0.15921 0.63685,-0.15921c0.14152,0 0.29189,0.04422 0.4511,0.13268c0.1769,0.07076 0.37149,0.21228 0.58377,0.42456l6.12964,11.88778l0.15921,-0.39803l2.62699,-4.85595c0.33611,-0.60146 0.66338,-1.19409 0.9818,-1.77786c0.33611,-0.58377 0.628,-1.10563 0.87566,-1.56558c0.26535,-0.45995 0.48648,-0.83144 0.66338,-1.11448c0.1769,-0.28304 0.28304,-0.42456 0.31842,-0.42456l9.10158,-2.28203c0.21228,-0.05307 0.38918,-0.07961 0.5307,-0.07961c0.40688,0 0.61031,0.18575 0.61031,0.55724c-0.01769,0.08845 -0.03538,0.21228 -0.05307,0.37149c-0.01769,0.14152 -0.07076,0.30074 -0.15921,0.47763l-7.80136,14.4617c-0.38918,0.7253 -0.78721,1.45059 -1.19409,2.17589c-0.38918,0.7253 -0.76952,1.41521 -1.14101,2.06975c-0.37149,0.63685 -0.7076,1.22062 -1.00834,1.75132c-0.28304,0.5307 -0.51302,0.96412 -0.68992,1.30023l-0.18575,0.87566l-1.48597,9.95071c-0.05307,0.30074 -0.09729,0.54839 -0.13268,0.74299c-0.03538,0.19459 -0.08845,0.35381 -0.15921,0.47763c-0.05307,0.12383 -0.13268,0.22997 -0.23882,0.31842c-0.08845,0.08845 -0.22113,0.1769 -0.39803,0.26535l-7.536,3.95373c-0.28304,0.14152 -0.58377,0.2565 -0.9022,0.34496c-0.30074,0.08845 -0.59262,0.13268 -0.87566,0.13268c-0.30074,0 -0.55724,-0.07076 -0.76952,-0.21228c-0.21228,-0.12383 -0.31842,-0.3361 -0.31842,-0.63683v-0.10614c0.07076,-1.00834 0.19459,-2.17589 0.37149,-3.50265c0.19459,-1.34445 0.39803,-2.65352 0.61031,-3.92721l1.48597,-9.84457c-0.28304,-0.60146 -0.65453,-1.39752 -1.11448,-2.38817c-0.45995,-0.99065 -0.95527,-2.0609 -1.48597,-3.21076c-0.5307,-1.14986 -1.08794,-2.3351 -1.67172,-3.55572c-0.56609,-1.22062 -1.10563,-2.37048 -1.61865,-3.44958c-0.49532,-1.09679 -0.94642,-2.0609 -1.3533,-2.89234c-0.38918,-0.83144 -0.68107,-1.44175 -0.87566,-1.83093c-0.08845,-0.26535 -0.13268,-0.53955 -0.13268,-0.82259c0,-0.15921 0.01769,-0.30957 0.05307,-0.4511c0.05307,-0.15921 0.14152,-0.2742 0.26535,-0.34496z" fill="#ffffff" fill-rule="nonzero" stroke="#000000" stroke-width="2.5" stroke-linecap="square"/><path d="M159.69896,218.14543v-18.55983h-3.35364v-3.65224h11.59989v3.65224h-3.30769v18.55983zM174.45519,218.42107c-1.1332,0 -2.12091,-0.19142 -2.96314,-0.57425c-0.82692,-0.38283 -1.46243,-0.95709 -1.90652,-1.72276c-0.44409,-0.78098 -0.66613,-1.74572 -0.66613,-2.89423v-6.01816c0,-1.16381 0.22204,-2.12856 0.66613,-2.89423c0.44409,-0.76567 1.07959,-1.33992 1.90652,-1.72275c0.84223,-0.38283 1.82995,-0.57425 2.96314,-0.57425c1.1332,0 2.11325,0.19142 2.94017,0.57425c0.82692,0.38283 1.47008,0.95708 1.92948,1.72275c0.45941,0.76567 0.6891,1.73041 0.6891,2.89423v6.01816c0,1.14851 -0.22969,2.11325 -0.6891,2.89423c-0.45941,0.76567 -1.10256,1.33993 -1.92948,1.72276c-0.82692,0.38283 -1.80697,0.57425 -2.94017,0.57425zM174.47817,215.45793c0.29095,0 0.52065,-0.07657 0.6891,-0.2297c0.16845,-0.15313 0.2833,-0.36752 0.34455,-0.64316c0.06125,-0.29095 0.09188,-0.64317 0.09188,-1.05662v-6.63836c0,-0.39815 -0.03063,-0.73504 -0.09188,-1.01068c-0.06125,-0.29095 -0.1761,-0.513 -0.34455,-0.66613c-0.16845,-0.15313 -0.39815,-0.2297 -0.6891,-0.2297c-0.29095,0 -0.52065,0.07657 -0.6891,0.2297c-0.16845,0.15313 -0.29095,0.37518 -0.36752,0.66613c-0.06125,0.27564 -0.09188,0.61253 -0.09188,1.01068v6.63836c0,0.41346 0.03063,0.76567 0.09188,1.05662c0.07657,0.27564 0.19907,0.49003 0.36752,0.64316c0.16845,0.15313 0.39815,0.2297 0.6891,0.2297zM183.94901,218.14543l-2.34295,-15.84936h3.72115l1.17148,8.9813l1.21741,-8.9813h3.23878l1.07959,9.211l1.33227,-9.211h3.46848l-2.36592,15.84936h-3.836l-1.37821,-8.9124l-1.53899,8.9124zM203.99772,218.42107c-1.16381,0 -2.15919,-0.20673 -2.98611,-0.62019c-0.81161,-0.41346 -1.43946,-1.01834 -1.88354,-1.81464c-0.42878,-0.79629 -0.64316,-1.75339 -0.64316,-2.87126v-5.81143c0,-1.1332 0.21439,-2.09027 0.64316,-2.87126c0.44409,-0.78098 1.0796,-1.37821 1.90652,-1.79167c0.84223,-0.41346 1.82994,-0.62019 2.96314,-0.62019c1.16381,0 2.12856,0.19908 2.89423,0.59723c0.78098,0.39815 1.37055,0.99537 1.7687,1.79166c0.39815,0.78098 0.59722,1.74572 0.59722,2.89423v3.19284h-6.36271v3.03205c0,0.41346 0.04594,0.75035 0.13782,1.01068c0.09188,0.24501 0.21439,0.42111 0.36752,0.5283c0.16845,0.10719 0.36753,0.1608 0.59723,0.1608c0.21439,0 0.4058,-0.04594 0.57425,-0.13782c0.18376,-0.10719 0.32158,-0.26798 0.41346,-0.48237c0.10719,-0.21439 0.16079,-0.513 0.16079,-0.89583v-1.67682h4.11164v1.53899c0,1.60791 -0.46706,2.81766 -1.40117,3.62928c-0.93411,0.81161 -2.22044,1.21741 -3.85897,1.21741zM202.89516,208.40612h2.25107v-1.58494c0,-0.42878 -0.0536,-0.75801 -0.16079,-0.98771c-0.09188,-0.24501 -0.2297,-0.41347 -0.41346,-0.50535c-0.16845,-0.09188 -0.37518,-0.13782 -0.62019,-0.13782c-0.21439,0 -0.39815,0.06125 -0.55129,0.18376c-0.15313,0.10719 -0.27564,0.29095 -0.36752,0.55129c-0.09188,0.26033 -0.13782,0.64315 -0.13782,1.1485zM211.74277,218.14543v-15.84936h4.47916v2.61858c0.50535,-0.90349 1.01068,-1.59259 1.51603,-2.06731c0.52066,-0.49004 1.1485,-0.73504 1.88355,-0.73504c0.15313,0 0.2833,0.00766 0.39049,0.02297c0.10719,0 0.20673,0.01531 0.29861,0.04594v4.45619c-0.19907,-0.09188 -0.42877,-0.16845 -0.6891,-0.2297c-0.24501,-0.07657 -0.49768,-0.11485 -0.75802,-0.11485c-0.52066,0 -1.00303,0.13782 -1.44711,0.41346c-0.42878,0.27564 -0.82692,0.65082 -1.19445,1.12553v10.31357zM229.47488,218.14543v-22.21206h5.6047c1.9448,0 3.45317,0.245 4.5251,0.73504c1.08725,0.47472 1.84526,1.23273 2.27404,2.27404c0.44409,1.02599 0.66613,2.36592 0.66613,4.01977v8.0625c0,1.65384 -0.22204,3.00908 -0.66613,4.0657c-0.42878,1.05662 -1.17914,1.82995 -2.25107,2.31998c-1.07193,0.49004 -2.56499,0.73504 -4.47916,0.73504zM234.36751,214.74586h0.78098c0.75036,0 1.28632,-0.10719 1.6079,-0.32158c0.33689,-0.2297 0.54363,-0.55893 0.6202,-0.98771c0.07657,-0.44409 0.11485,-0.99538 0.11485,-1.65385v-9.6704c0,-0.65847 -0.0536,-1.18679 -0.16079,-1.58494c-0.09188,-0.41346 -0.30627,-0.71207 -0.64317,-0.89583c-0.32158,-0.18376 -0.84223,-0.27564 -1.56196,-0.27564h-0.75802zM250.48526,218.42107c-1.16381,0 -2.15919,-0.20673 -2.98611,-0.62019c-0.81161,-0.41346 -1.43946,-1.01834 -1.88355,-1.81464c-0.42878,-0.79629 -0.64316,-1.75339 -0.64316,-2.87126v-5.81143c0,-1.1332 0.21439,-2.09027 0.64316,-2.87126c0.44409,-0.78098 1.07959,-1.37821 1.90651,-1.79167c0.84223,-0.41346 1.82995,-0.62019 2.96314,-0.62019c1.16381,0 2.12856,0.19908 2.89423,0.59723c0.78098,0.39815 1.37054,0.99537 1.76869,1.79166c0.39815,0.78098 0.59723,1.74572 0.59723,2.89423v3.19284h-6.36272v3.03205c0,0.41346 0.04594,0.75035 0.13782,1.01068c0.09188,0.24501 0.21439,0.42111 0.36753,0.5283c0.16845,0.10719 0.36752,0.1608 0.59722,0.1608c0.21439,0 0.4058,-0.04594 0.57425,-0.13782c0.18376,-0.10719 0.32158,-0.26798 0.41346,-0.48237c0.10719,-0.21439 0.16079,-0.513 0.16079,-0.89583v-1.67682h4.11165v1.53899c0,1.60791 -0.46707,2.81766 -1.40118,3.62928c-0.93411,0.81161 -2.22044,1.21741 -3.85897,1.21741zM249.38271,208.40612h2.25107v-1.58494c0,-0.42878 -0.0536,-0.75801 -0.16079,-0.98771c-0.09188,-0.24501 -0.2297,-0.41347 -0.41346,-0.50535c-0.16845,-0.09188 -0.37519,-0.13782 -0.6202,-0.13782c-0.21439,0 -0.39814,0.06125 -0.55128,0.18376c-0.15313,0.10719 -0.27564,0.29095 -0.36753,0.55129c-0.09188,0.26033 -0.13782,0.64315 -0.13782,1.1485zM258.75861,218.14543v-12.84028h-1.51603v-3.00908h1.51603v-1.17148c0,-0.93411 0.09188,-1.74573 0.27564,-2.43483c0.19907,-0.70442 0.60489,-1.24804 1.21742,-1.63088c0.61253,-0.38283 1.56196,-0.57425 2.84828,-0.57425c0.33689,0 0.6738,0.00766 1.01069,0.02297c0.33689,0.01531 0.71207,0.0536 1.12553,0.11485v3.30769c-0.13782,-0.03063 -0.29095,-0.06125 -0.4594,-0.09188c-0.16845,-0.03063 -0.33689,-0.04594 -0.50534,-0.04594c-0.33689,0 -0.59722,0.09954 -0.78098,0.29861c-0.16845,0.18376 -0.25267,0.49768 -0.25267,0.94177v1.26335h1.9984v3.00908h-1.9984v12.84028zM272.152,218.42107c-1.16381,0 -2.15918,-0.20673 -2.98611,-0.62019c-0.81162,-0.41346 -1.43945,-1.01834 -1.88354,-1.81464c-0.42877,-0.79629 -0.64317,-1.75339 -0.64317,-2.87126v-5.81143c0,-1.1332 0.21439,-2.09027 0.64317,-2.87126c0.44409,-0.78098 1.07959,-1.37821 1.90651,-1.79167c0.84224,-0.41346 1.82995,-0.62019 2.96314,-0.62019c1.16381,0 2.12856,0.19908 2.89423,0.59723c0.78098,0.39815 1.37055,0.99537 1.7687,1.79166c0.39815,0.78098 0.59722,1.74572 0.59722,2.89423v3.19284h-6.36271v3.03205c0,0.41346 0.04594,0.75035 0.13782,1.01068c0.09188,0.24501 0.21438,0.42111 0.36752,0.5283c0.16845,0.10719 0.36752,0.1608 0.59722,0.1608c0.21439,0 0.4058,-0.04594 0.57425,-0.13782c0.18376,-0.10719 0.32158,-0.26798 0.41346,-0.48237c0.10719,-0.21439 0.16079,-0.513 0.16079,-0.89583v-1.67682h4.11165v1.53899c0,1.60791 -0.46707,2.81766 -1.40118,3.62928c-0.93411,0.81161 -2.22044,1.21741 -3.85897,1.21741zM271.04945,208.40612h2.25107v-1.58494c0,-0.42878 -0.0536,-0.75801 -0.16079,-0.98771c-0.09188,-0.24501 -0.2297,-0.41347 -0.41346,-0.50535c-0.16845,-0.09188 -0.37518,-0.13782 -0.62019,-0.13782c-0.21439,0 -0.39814,0.06125 -0.55128,0.18376c-0.15314,0.10719 -0.27564,0.29095 -0.36752,0.55129c-0.09188,0.26033 -0.13782,0.64315 -0.13782,1.1485zM279.85112,218.14543v-15.84936h4.47917v1.58494c0.58191,-0.58191 1.18679,-1.03365 1.81464,-1.35523c0.62785,-0.33689 1.28633,-0.50534 1.97543,-0.50534c0.65847,0 1.2021,0.16079 1.63087,0.48237c0.44409,0.32158 0.77332,0.76568 0.98771,1.33227c0.21439,0.55128 0.32158,1.17913 0.32158,1.88354v12.42682h-4.43322v-11.78366c0,-0.38283 -0.06891,-0.67379 -0.20673,-0.87286c-0.12251,-0.21439 -0.35987,-0.32158 -0.71208,-0.32158c-0.18376,0 -0.39815,0.0536 -0.64316,0.16079c-0.24501,0.09188 -0.49004,0.2297 -0.73505,0.41346v12.40385zM298.62586,218.42107c-1.3782,0 -2.53437,-0.30627 -3.46848,-0.9188c-0.9188,-0.62785 -1.66916,-1.64619 -2.25107,-3.05503l3.03206,-1.35523c0.30627,0.71973 0.65082,1.28633 1.03365,1.69978c0.39815,0.41346 0.83458,0.62019 1.3093,0.62019c0.35221,0 0.61253,-0.07657 0.78098,-0.2297c0.16845,-0.15313 0.25266,-0.35221 0.25266,-0.59722c0,-0.42878 -0.16078,-0.81161 -0.48236,-1.14851c-0.32158,-0.35221 -0.88817,-0.86521 -1.69979,-1.53899l-1.14851,-0.96474c-0.84224,-0.71973 -1.50836,-1.40884 -1.9984,-2.06731c-0.49003,-0.67379 -0.73504,-1.50071 -0.73504,-2.48076c0,-0.85755 0.22204,-1.61557 0.66613,-2.27404c0.45941,-0.65847 1.06428,-1.17147 1.81464,-1.53899c0.75036,-0.36752 1.5543,-0.55128 2.41186,-0.55128c1.30163,0 2.38889,0.35986 3.26175,1.07959c0.87286,0.70442 1.48539,1.70745 1.8376,3.00908l-2.87126,1.30929c-0.12251,-0.35221 -0.2833,-0.69676 -0.48237,-1.03365c-0.19907,-0.35221 -0.44409,-0.64316 -0.73504,-0.87286c-0.27564,-0.24501 -0.57425,-0.36753 -0.89583,-0.36753c-0.29095,0 -0.52832,0.08422 -0.71208,0.25267c-0.16845,0.16845 -0.25267,0.38283 -0.25267,0.64316c0,0.35221 0.19142,0.73505 0.57425,1.14851c0.39815,0.39815 0.94944,0.88053 1.65385,1.44711l1.12554,0.98771c0.44409,0.38283 0.88817,0.7963 1.33226,1.24039c0.44409,0.42878 0.80395,0.91115 1.07959,1.44711c0.29095,0.52066 0.43643,1.11788 0.43643,1.79167c0,0.9188 -0.2297,1.70745 -0.6891,2.36592c-0.45941,0.64316 -1.06428,1.13319 -1.81464,1.47008c-0.73505,0.32158 -1.52369,0.48237 -2.36592,0.48237zM310.5762,218.42107c-1.16381,0 -2.15918,-0.20673 -2.98611,-0.62019c-0.81162,-0.41346 -1.43946,-1.01834 -1.88355,-1.81464c-0.42877,-0.79629 -0.64316,-1.75339 -0.64316,-2.87126v-5.81143c0,-1.1332 0.21438,-2.09027 0.64316,-2.87126c0.44409,-0.78098 1.07959,-1.37821 1.90652,-1.79167c0.84224,-0.41346 1.82995,-0.62019 2.96314,-0.62019c1.16381,0 2.12856,0.19908 2.89423,0.59723c0.78098,0.39815 1.37054,0.99537 1.76869,1.79166c0.39815,0.78098 0.59722,1.74572 0.59722,2.89423v3.19284h-6.36271v3.03205c0,0.41346 0.04594,0.75035 0.13782,1.01068c0.09188,0.24501 0.21438,0.42111 0.36752,0.5283c0.16845,0.10719 0.36753,0.1608 0.59722,0.1608c0.21439,0 0.4058,-0.04594 0.57425,-0.13782c0.18376,-0.10719 0.32158,-0.26798 0.41346,-0.48237c0.10719,-0.21439 0.16079,-0.513 0.16079,-0.89583v-1.67682h4.11165v1.53899c0,1.60791 -0.46707,2.81766 -1.40118,3.62928c-0.93411,0.81161 -2.22044,1.21741 -3.85897,1.21741zM309.47364,208.40612h2.25107v-1.58494c0,-0.42878 -0.0536,-0.75801 -0.16079,-0.98771c-0.09188,-0.24501 -0.2297,-0.41347 -0.41346,-0.50535c-0.16845,-0.09188 -0.37518,-0.13782 -0.62019,-0.13782c-0.21439,0 -0.39815,0.06125 -0.55129,0.18376c-0.15314,0.10719 -0.27564,0.29095 -0.36752,0.55129c-0.09188,0.26033 -0.13782,0.64315 -0.13782,1.1485z" fill="#000000" fill-rule="nonzero" stroke="none" stroke-width="1" stroke-linecap="square"/><path d="M31.69534,112.45536l-1.57685,9.34893" fill="none" fill-rule="nonzero" stroke="#96791c" stroke-width="2.5" stroke-linecap="round"/><path d="M35.69532,112.12203l-1.57685,9.34892" fill="none" fill-rule="nonzero" stroke="#aa8b23" stroke-width="2.5" stroke-linecap="round"/><path d="M-6.80315,1.82415h569.6693v42.01574h-569.6693z" fill-opacity="0" fill="#000000" fill-rule="evenodd" stroke="none" stroke-width="1" stroke-linecap="square"/></g></g></svg>