<svg version="1.1" xmlns="http://www.w3.org/2000/svg" xmlns:xlink="http://www.w3.org/1999/xlink" width="56.5744" height="40.08333" viewBox="0,0,56.5744,40.08333"><g transform="translate(-219.95835,-159.95835)"><g data-paper-data="{&quot;isPaintingLayer&quot;:true}" fill-rule="nonzero" stroke-linejoin="miter" stroke-miterlimit="10" stroke-dasharray="" stroke-dashoffset="0" style="mix-blend-mode: normal"><path d="M254.93751,191.71431v-24.04762h19.59524v24.04762z" fill="#97ff00" stroke="#60a000" stroke-width="4" stroke-linecap="butt"/><path d="M221.95835,198.04168v-36.08333h36.08333v36.08333z" fill="#97ff00" stroke="#60a000" stroke-width="4" stroke-linecap="butt"/><path d="M228.5,180c0,-6.35127 5.14873,-11.5 11.5,-11.5c6.35127,0 11.5,5.14873 11.5,11.5c0,6.35127 -5.14873,11.5 -11.5,11.5c-6.35127,0 -11.5,-5.14873 -11.5,-11.5z" fill="#6fb800" stroke="#60a000" stroke-width="3" stroke-linecap="butt"/><path d="M240,169.8125v20.375" fill="none" stroke="#60a000" stroke-width="2" stroke-linecap="round"/><path d="M228.9375,180h22.125" fill="none" stroke="#60a000" stroke-width="2" stroke-linecap="round"/><path d="M263.72719,169.59376v21.42857" fill="none" stroke="#60a000" stroke-width="2" stroke-linecap="round"/><path d="M249.08434,170.9509l6.78571,-6.78571" fill="none" stroke="#60a000" stroke-width="2" stroke-linecap="round"/><path d="M232.01291,189.02233l-8.14286,8.14286" fill="none" stroke="#60a000" stroke-width="2" stroke-linecap="round"/><path d="M230.65576,170.9509l-6.78571,-6.78571" data-paper-data="{&quot;index&quot;:null}" fill="none" stroke="#60a000" stroke-width="2" stroke-linecap="round"/><path d="M247.72719,189.02233l8.14286,8.14286" data-paper-data="{&quot;index&quot;:null}" fill="none" stroke="#60a000" stroke-width="2" stroke-linecap="round"/><path d="M258.7272,179.87948h15.57143" fill="none" stroke="#60a000" stroke-width="2" stroke-linecap="round"/><path d="M269.15577,168.45091v21.71429" fill="none" stroke="#60a000" stroke-width="2" stroke-linecap="round"/></g></g></svg>