<svg version="1.1" xmlns="http://www.w3.org/2000/svg" xmlns:xlink="http://www.w3.org/1999/xlink" width="223.1546" height="23.9764" viewBox="0,0,223.1546,23.9764"><g transform="translate(-145.31442,-166.31522)"><g data-paper-data="{&quot;isPaintingLayer&quot;:true}" fill-rule="nonzero" stroke-linejoin="miter" stroke-miterlimit="10" stroke-dasharray="" stroke-dashoffset="0" style="mix-blend-mode: normal"><text transform="translate(166.71002,184.93975) scale(0.42815,0.42815)" font-size="40" xml:space="preserve" fill="#ffc500" fill-rule="nonzero" stroke="#ffc500" stroke-width="1" stroke-linecap="butt" stroke-linejoin="miter" stroke-miterlimit="10" stroke-dasharray="" stroke-dashoffset="0" font-family="Sans Serif" font-weight="normal" text-anchor="start" style="mix-blend-mode: normal"><tspan x="0" dy="0">Infinite Waves unlocked!</tspan></text><path d="M146.39674,184.11521c0,-3.19705 -0.08232,-8.67601 -0.08232,-10.37206c0,-1.26113 1.33498,-2.18863 2.42323,-2.18863c1.72269,0 6.94401,0 10.04279,0c1.41112,0 2.38207,1.26575 2.38207,2.14747c0,1.6459 0,7.16357 0,10.3309c0,1.36055 -1.02706,2.28741 -1.97048,2.28741c-1.77488,0 -7.40929,0 -10.49554,0c-1.09407,0 -2.29976,-0.88792 -2.29976,-2.20509z" fill="#ffc500" stroke="#a27d00" stroke-width="2" stroke-linecap="butt"/><path d="M145.3367,187.33919v-16.57972h16.72894v16.57972z" fill="none" stroke="none" stroke-width="0" stroke-linecap="butt"/><path d="M153.58457,176.92822v5.87755" fill="none" stroke="#ffe89c" stroke-width="2" stroke-linecap="round"/><path d="M151.70113,177.94081c-1.54422,-0.89327 -0.29742,-2.88181 -0.29742,-2.88181c0,0 1.32896,0.56151 2.02409,0.48977c0.62175,-0.06417 1.98374,-0.58409 1.98374,-0.58409c0,0 0.80635,2.08113 0.26481,2.56587c-0.54154,0.48474 -2.43102,1.30354 -3.97523,0.41027z" fill="#ffe89c" stroke="#ffe89c" stroke-width="2" stroke-linecap="butt"/><path d="M151.55963,182.93815h3.89082" fill="none" stroke="#ffe89c" stroke-width="2" stroke-linecap="round"/><path d="M154.97402,177.37983c0,0 1.10633,1.50919 1.06563,2.11968c-0.03859,0.57889 -1.54206,1.29472 -1.54206,1.29472" fill="none" stroke="#ffe89c" stroke-width="0.5" stroke-linecap="round"/><path d="M152.62388,180.79174c0,0 -1.50347,-0.71582 -1.54206,-1.29472c-0.0407,-0.61049 1.06564,-2.11968 1.06564,-2.11968" data-paper-data="{&quot;index&quot;:null}" fill="none" stroke="#ffe89c" stroke-width="0.5" stroke-linecap="round"/></g></g></svg>