<svg version="1.1" xmlns="http://www.w3.org/2000/svg" xmlns:xlink="http://www.w3.org/1999/xlink" width="589.09925" height="417.3667" viewBox="0,0,589.09925,417.3667"><g transform="translate(19.75976,20.45045)"><g data-paper-data="{&quot;isPaintingLayer&quot;:true}" fill-rule="nonzero" stroke-linejoin="miter" stroke-miterlimit="10" stroke-dasharray="" stroke-dashoffset="0" style="mix-blend-mode: normal"><path d="M-19.75976,380.45045v-400.9009h519.51952v400.9009z" fill="#ff8989" stroke="none" stroke-width="0" stroke-linecap="butt"/><path d="M23.90917,374.41625c0,0 9.19812,-115.51353 17.71909,-188.78504c1.49325,-12.84041 11.39972,-71.2611 11.36164,-71.48089c1.87372,-12.27011 16.37659,-44.96502 42.5931,-61.38969c20.03943,-12.55473 48.09786,-11.2114 58.92413,-10.14566c20.22817,1.99126 43.25734,21.454 41.71592,50.59885c-1.5297,28.92309 -26.5492,229.40466 41.9419,221.11419c0.01217,-0.00178 6.03387,0.50522 13.66939,-0.6872c10.54205,-1.64632 22.16036,-8.62589 27.28604,-13.48663c15.60572,-14.7991 19.82619,-49.36783 21.62299,-51.76796c7.44137,-26.62642 21.71648,-148.14608 34.06974,-168.34003c10.88975,-17.80154 21.85961,-24.59425 37.04794,-24.21073c27.06331,0.68337 43.95067,15.23565 49.29276,29.49461c-0.02241,0.41121 1.81475,3.5811 2.90663,7.94079c1.97976,4.9191 3.59798,11.32989 3.95241,12.39176c2.70702,8.1101 4.60192,17.17008 5.88905,28.52443c2.3257,20.51607 5.37608,48.07703 5.31731,64.13192c0.10533,39.21976 113.71721,32.3109 107.36337,35.32923" fill="none" stroke="#a31f1f" stroke-width="45" stroke-linecap="round"/><path d="M23.90917,374.41625c0,0 9.19812,-115.51353 17.71909,-188.78504c1.49325,-12.84041 11.39972,-71.2611 11.36164,-71.48089c1.87372,-12.27011 16.37659,-44.96502 42.5931,-61.38969c20.03943,-12.55473 48.09786,-11.2114 58.92413,-10.14566c20.22817,1.99126 43.25734,21.454 41.71592,50.59885c-1.5297,28.92309 -26.5492,229.40466 41.9419,221.11419c0.01217,-0.00178 6.03387,0.50522 13.66939,-0.6872c10.54205,-1.64632 22.16036,-8.62589 27.28604,-13.48663c15.60572,-14.7991 19.82619,-49.36783 21.62299,-51.76796c7.44137,-26.62642 21.71648,-148.14608 34.06974,-168.34003c10.88975,-17.80154 21.85961,-24.59425 37.04794,-24.21073c27.06331,0.68337 43.78426,15.98234 49.29276,29.49461c-0.04052,0.7435 1.61337,3.33958 2.79295,6.71927c1.72662,4.94703 3.29016,11.28862 4.06609,13.61328c2.70702,8.1101 4.60192,17.17008 5.88905,28.52443c2.3257,20.51607 5.37608,48.07703 5.31731,64.13192c0.10533,39.21976 113.71721,32.3109 107.36337,35.32923" fill="none" stroke="#cb2727" stroke-width="37.5" stroke-linecap="round"/><path d="M31.94024,111l-1.8,12" fill="none" stroke="#a31f1f" stroke-width="2.5" stroke-linecap="round"/><path d="M35.34024,113.2l-1.8,12" fill="none" stroke="#cb2727" stroke-width="2.5" stroke-linecap="round"/></g></g></svg>