<svg version="1.1" xmlns="http://www.w3.org/2000/svg" xmlns:xlink="http://www.w3.org/1999/xlink" width="33.625" height="33.625" viewBox="0,0,33.625,33.625"><g transform="translate(-223.1875,-163.1875)"><g data-paper-data="{&quot;isPaintingLayer&quot;:true}" fill-rule="nonzero" stroke="#003c85" stroke-width="3" stroke-linejoin="miter" stroke-miterlimit="10" stroke-dasharray="" stroke-dashoffset="0" style="mix-blend-mode: normal"><path d="M224.6875,180c0,-8.45686 6.85564,-15.3125 15.3125,-15.3125c8.45686,0 15.3125,6.85564 15.3125,15.3125c0,8.45686 -6.85564,15.3125 -15.3125,15.3125c-8.45686,0 -15.3125,-6.85564 -15.3125,-15.3125z" fill="#0059c5" stroke-linecap="butt"/><path d="M229.25,170.46876l5.4375,5.4375l-6,6l6.0625,6.0625l-3.6875,3.6875" fill="none" stroke-linecap="round"/><path d="M233.6875,166.90626l8.75,8.75l-6,6l6.0625,6.0625l-7.3125,6.8125" fill="none" stroke-linecap="round"/><path d="M239.8125,165.15626l10.5,10.5l-6,6l6,6l-7.125,7.125" fill="none" stroke-linecap="round"/></g></g></svg>