<svg version="1.1" xmlns="http://www.w3.org/2000/svg" xmlns:xlink="http://www.w3.org/1999/xlink" width="57.88463" height="57.58589" viewBox="0,0,57.88463,57.58589"><g transform="translate(-211.05771,-151.20709)"><g data-paper-data="{&quot;isPaintingLayer&quot;:true}" fill-rule="nonzero" stroke-linecap="butt" stroke-linejoin="miter" stroke-miterlimit="10" stroke-dasharray="" stroke-dashoffset="0" style="mix-blend-mode: normal"><path d="M213.35646,198.79058c0,-11.60228 -0.29874,-31.48574 -0.29874,-37.64083c0,-4.5767 4.84473,-7.94266 8.79406,-7.94266c6.25173,0 25.20023,0 36.44588,0c5.12102,0 8.64469,4.59348 8.64469,7.79329c0,5.97306 0,25.99703 0,37.49145c0,4.93751 -3.72726,8.30115 -7.151,8.30115c-6.44113,0 -26.88877,0 -38.08893,0c-3.97046,0 -8.34596,-3.22231 -8.34596,-8.00241z" fill="#97ff00" stroke="#60a000" stroke-width="4"/><path d="M216.3125,180c0,-13.08224 10.60526,-23.6875 23.6875,-23.6875c13.08225,0 23.6875,10.60526 23.6875,23.6875c0,13.08225 -10.60525,23.6875 -23.6875,23.6875c-13.08224,0 -23.6875,-10.60525 -23.6875,-23.6875z" fill="none" stroke="#60a000" stroke-width="2"/><path d="M220.625,180c0,-10.70052 8.67448,-19.375 19.375,-19.375c10.70052,0 19.375,8.67448 19.375,19.375c0,10.70052 -8.67448,19.375 -19.375,19.375c-10.70052,0 -19.375,-8.67448 -19.375,-19.375z" fill="none" stroke="#60a000" stroke-width="2"/><path d="M225.0625,180c0,-8.24975 6.68775,-14.9375 14.9375,-14.9375c8.24975,0 14.9375,6.68775 14.9375,14.9375c0,8.24975 -6.68775,14.9375 -14.9375,14.9375c-8.24975,0 -14.9375,-6.68775 -14.9375,-14.9375z" fill="none" stroke="#60a000" stroke-width="2"/></g></g></svg>