<svg version="1.1" xmlns="http://www.w3.org/2000/svg" xmlns:xlink="http://www.w3.org/1999/xlink" width="57.88463" height="57.58589" viewBox="0,0,57.88463,57.58589"><g transform="translate(-211.0577,-151.20708)"><g data-paper-data="{&quot;isPaintingLayer&quot;:true}" fill-rule="nonzero" stroke-linejoin="miter" stroke-miterlimit="10" stroke-dasharray="" stroke-dashoffset="0" style="mix-blend-mode: normal"><path d="M213.35645,198.79059c0,-11.60227 -0.29874,-31.48574 -0.29874,-37.64083c0,-4.5767 4.84474,-7.94267 8.79407,-7.94267c6.25172,0 25.20022,0 36.44587,0c5.12102,0 8.64469,4.59349 8.64469,7.79329c0,5.97305 0,25.99704 0,37.49146c0,4.93751 -3.72726,8.30114 -7.151,8.30114c-6.44113,0 -26.88877,0 -38.08893,0c-3.97046,0 -8.34596,-3.22231 -8.34596,-8.00241z" fill="#5a5a5a" stroke="#353535" stroke-width="4" stroke-linecap="butt"/><path d="M221.49902,193.04796c0,-8.05648 -0.20744,-21.86334 -0.20744,-26.13736c0,-3.17801 3.36413,-5.5153 6.1065,-5.5153c4.34112,0 17.49874,0 25.30759,0c3.55598,0 6.00277,3.18967 6.00277,5.41157c0,4.14762 0,18.05205 0,26.03364c0,3.42855 -2.58817,5.76422 -4.96557,5.76422c-4.47265,0 -18.67125,0 -26.44852,0c-2.75704,0 -5.79534,-2.23754 -5.79534,-5.55678z" fill="#5a5a5a" stroke="#353535" stroke-width="3" stroke-linecap="butt"/><path d="M239.67086,154.60949v4.85414" fill="none" stroke="#353535" stroke-width="3" stroke-linecap="round"/><path d="M240.3847,199.01059v5.99629" fill="none" stroke="#353535" stroke-width="3" stroke-linecap="round"/><path d="M213.82971,180.45065h6.71013" fill="none" stroke="#353535" stroke-width="3" stroke-linecap="round"/><path d="M258.80188,179.16573h5.99629" fill="none" stroke="#353535" stroke-width="3" stroke-linecap="round"/><path d="M216.82785,156.03717l6.42459,6.4246" fill="none" stroke="#353535" stroke-width="3" stroke-linecap="round"/><path d="M257.65972,163.03285l6.28183,-6.28183" fill="none" stroke="#353535" stroke-width="3" stroke-linecap="round"/><path d="M257.51696,196.72629l5.99629,5.99629" fill="none" stroke="#353535" stroke-width="3" stroke-linecap="round"/><path d="M222.68137,197.01182l-5.63937,5.63937" fill="none" stroke="#353535" stroke-width="3" stroke-linecap="round"/></g></g></svg>