<svg version="1.1" xmlns="http://www.w3.org/2000/svg" xmlns:xlink="http://www.w3.org/1999/xlink" width="168.62568" height="23.9764" viewBox="0,0,168.62568,23.9764"><g transform="translate(-145.31442,-166.31521)"><g data-paper-data="{&quot;isPaintingLayer&quot;:true}" fill-rule="nonzero" stroke-linejoin="miter" stroke-miterlimit="10" stroke-dasharray="" stroke-dashoffset="0" style="mix-blend-mode: normal"><text transform="translate(166.71002,184.93974) scale(0.42815,0.42815)" font-size="40" xml:space="preserve" fill="#a50000" fill-rule="nonzero" stroke="#a50000" stroke-width="1" stroke-linecap="butt" stroke-linejoin="miter" stroke-miterlimit="10" stroke-dasharray="" stroke-dashoffset="0" font-family="Sans Serif" font-weight="normal" text-anchor="start" style="mix-blend-mode: normal"><tspan x="0" dy="0">Not Enough Cash!</tspan></text><path d="M146.39674,184.1152c0,-3.19705 -0.08232,-8.67601 -0.08232,-10.37206c0,-1.26113 1.33498,-2.18863 2.42323,-2.18863c1.72269,0 6.94401,0 10.04279,0c1.41112,0 2.38207,1.26575 2.38207,2.14747c0,1.6459 0,7.16357 0,10.3309c0,1.36055 -1.02706,2.28741 -1.97048,2.28741c-1.77488,0 -7.40929,0 -10.49554,0c-1.09407,0 -2.29976,-0.88792 -2.29976,-2.20509z" fill="#9c0000" stroke="#660000" stroke-width="2" stroke-linecap="butt"/><path d="M145.3367,187.33918v-16.57972h16.72894v16.57972z" fill="none" stroke="none" stroke-width="0" stroke-linecap="butt"/><path d="M149.95237,174.92376l7.34921,7.34922" fill="none" stroke="#660000" stroke-width="2" stroke-linecap="round"/><path d="M149.95237,182.27298l7.34921,-7.34922" data-paper-data="{&quot;index&quot;:null}" fill="none" stroke="#660000" stroke-width="2" stroke-linecap="round"/></g></g></svg>