<svg version="1.1" xmlns="http://www.w3.org/2000/svg" xmlns:xlink="http://www.w3.org/1999/xlink" width="75.91666" height="40.08333" viewBox="0,0,75.91666,40.08333"><g transform="translate(-219.95835,-159.95835)"><g data-paper-data="{&quot;isPaintingLayer&quot;:true}" fill-rule="nonzero" stroke-linejoin="miter" stroke-miterlimit="10" stroke-dasharray="" stroke-dashoffset="0" style="mix-blend-mode: normal"><path d="M230.50001,189.70001v-19.625h63.375v19.625z" fill="#e04646" stroke="#8f0000" stroke-width="4" stroke-linecap="butt"/><path d="M221.95835,198.04168v-36.08333h36.08333v36.08333z" fill="#e04646" stroke="#8f0000" stroke-width="4" stroke-linecap="butt"/><path d="M236.28242,168.59883c0,-2.04126 1.65476,-3.69602 3.69602,-3.69602c2.04126,0 3.69603,1.65476 3.69603,3.69602c0,2.04126 -1.65476,3.69603 -3.69603,3.69603c-2.04126,0 -3.69602,-1.65476 -3.69602,-3.69603z" fill="#000000" stroke="none" stroke-width="0" stroke-linecap="butt"/><path d="M263.69099,172.51955v15.875" fill="none" stroke="#8f0000" stroke-width="4" stroke-linecap="round"/><path d="M269.94099,172.14455v16.125" fill="none" stroke="#8f0000" stroke-width="4" stroke-linecap="round"/><path d="M275.94099,171.39455v16.25" fill="none" stroke="#8f0000" stroke-width="4" stroke-linecap="round"/><path d="M282.06599,171.51955v17.125" fill="none" stroke="#8f0000" stroke-width="4" stroke-linecap="round"/><path d="M288.19099,171.51955v17.125" fill="none" stroke="#8f0000" stroke-width="4" stroke-linecap="round"/><path d="M246.53242,168.59883c0,-2.04126 1.65476,-3.69602 3.69602,-3.69602c2.04126,0 3.69603,1.65476 3.69603,3.69602c0,2.04126 -1.65475,3.69603 -3.69603,3.69603c-2.04126,0 -3.69602,-1.65475 -3.69602,-3.69603z" fill="#000000" stroke="none" stroke-width="0" stroke-linecap="butt"/><path d="M226.03242,168.59883c0,-2.04126 1.65476,-3.69602 3.69602,-3.69602c2.04126,0 3.69603,1.65476 3.69603,3.69602c0,2.04126 -1.65475,3.69603 -3.69603,3.69603c-2.04126,0 -3.69602,-1.65475 -3.69602,-3.69603z" fill="#000000" stroke="none" stroke-width="0" stroke-linecap="butt"/><path d="M246.53242,178.97383c0,-2.04126 1.65476,-3.69602 3.69602,-3.69602c2.04126,0 3.69603,1.65476 3.69603,3.69602c0,2.04126 -1.65475,3.69603 -3.69603,3.69603c-2.04126,0 -3.69602,-1.65475 -3.69602,-3.69603z" fill="#000000" stroke="none" stroke-width="0" stroke-linecap="butt"/><path d="M246.53242,189.84883c0,-2.04126 1.65476,-3.69602 3.69602,-3.69602c2.04126,0 3.69603,1.65476 3.69603,3.69602c0,2.04126 -1.65475,3.69603 -3.69603,3.69603c-2.04126,0 -3.69602,-1.65475 -3.69602,-3.69603z" fill="#000000" stroke="none" stroke-width="0" stroke-linecap="butt"/><path d="M236.40742,189.84883c0,-2.04126 1.65476,-3.69602 3.69602,-3.69602c2.04126,0 3.69603,1.65476 3.69603,3.69602c0,2.04126 -1.65475,3.69603 -3.69603,3.69603c-2.04126,0 -3.69602,-1.65475 -3.69602,-3.69603z" fill="#000000" stroke="none" stroke-width="0" stroke-linecap="butt"/><path d="M226.40742,189.84883c0,-2.04126 1.65476,-3.69602 3.69602,-3.69602c2.04126,0 3.69603,1.65476 3.69603,3.69602c0,2.04126 -1.65475,3.69603 -3.69603,3.69603c-2.04126,0 -3.69602,-1.65475 -3.69602,-3.69603z" fill="#000000" stroke="none" stroke-width="0" stroke-linecap="butt"/><path d="M226.40742,179.47383c0,-2.04126 1.65476,-3.69602 3.69602,-3.69602c2.04126,0 3.69603,1.65476 3.69603,3.69602c0,2.04126 -1.65475,3.69603 -3.69603,3.69603c-2.04126,0 -3.69602,-1.65475 -3.69602,-3.69603z" fill="#000000" stroke="none" stroke-width="0" stroke-linecap="butt"/><path d="M235.625,183.875v-9.25h9.25v9.25z" fill="#e04646" stroke="#8f0000" stroke-width="2" stroke-linecap="butt"/><path d="M258.06598,180.01954h34.625" fill="none" stroke="#8f0000" stroke-width="4" stroke-linecap="round"/></g></g></svg>